<?xml version="1.0" encoding="utf-8"?>
<!-- Generator: Adobe Illustrator 21.1.0, SVG Export Plug-In . SVG Version: 6.00 Build 0)  -->
<svg version="1.1" id="Layer_1" xmlns="http://www.w3.org/2000/svg" xmlns:xlink="http://www.w3.org/1999/xlink" x="0px" y="0px"
	 viewBox="0 0 283.5 106.7" style="enable-background:new 0 0 283.5 106.7;" xml:space="preserve">
<style type="text/css">
	.st0{clip-path:url(#SVGID_2_);fill:#B2B2B2;}
</style>
<g>
	<defs>
		<rect id="SVGID_1_" width="283.5" height="106.7"/>
	</defs>
	<clipPath id="SVGID_2_">
		<use xlink:href="#SVGID_1_"  style="overflow:visible;"/>
	</clipPath>
	<path class="st0" d="M28.1,0C12.8,0,0,19.3,0,33.4c0,15.8,9.8,21,17.6,21c13.9,0,27.3-17.2,27.3-33.7C44.9,7.9,37.4,0,28.1,0
		 M17.4,52.6c-2.6,0-4.7-0.4-7.2-4.4c-1.4-2.3-2.1-5.3-2.1-10.6C8.2,26.8,14.4,1.7,28,1.7c5.7,0,9.1,4.1,9.1,13.8
		C37,25.7,31.6,52.6,17.4,52.6"/>
	<path class="st0" d="M78.5,46.1h-2c-3,5.2-5.2,6-6,6c-0.8,0-1.4-0.7-1.4-1.6c0-0.9,0.5-2.1,1.1-3.9c0.2-0.6,0.5-1.4,0.6-1.7l4-12
		c1.2-3.6,1.7-5.2,1.7-6.8c0-4-3.3-5.7-6.3-5.6c-2.5,0-7.5,1.7-13.4,14l-0.2-0.2c1.4-3.6,2.5-7.8,2.5-10.1c0-1.2-0.4-3.7-3-3.7
		c-2.5,0-6.8,2.6-10.2,8.8h1.8c1.6-2.9,3.8-5.6,5.4-5.6c1,0,1,1,1,1.3c0,0.8-0.6,2.4-0.8,3.2L45.4,54h5.7l1.9-6.2
		c2.2-7.3,5.1-13.6,8-18c2.9-4.4,5.7-6.8,7.8-6.8c2,0,2.3,1.6,2.3,2.4c0,1.4-0.6,3-1.7,6.3l-4.1,11.7c-1.3,3.7-1.8,5.3-1.8,6.9
		c0,3.7,3.2,4.3,4.3,4.3C74.4,54.5,77.5,48.1,78.5,46.1"/>
	<path class="st0" d="M87.6,54.5c5.2,0,9.8-4.7,12.6-11h-1.9c-2.3,5.1-5.5,8.8-9.3,8.8c-0.4,0-4,0-4-5c0-1.9,0.6-4.8,1.2-6.4
		c0.1,0,0.4-0.2,0.5-0.2c3.5-1.5,16.7-6.7,17.2-14.7c0.1-1.5-0.5-5.3-5.3-5.3c-7,0-18.9,12.2-18.9,24.6
		C79.7,51.9,84.4,54.5,87.6,54.5 M97.4,22.7c0.9,0,2.6,0.3,2.5,2.9c-0.2,4.7-7.3,10.7-13,13.3C90,27.4,95,22.7,97.4,22.7"/>
	<path class="st0" d="M204.8,20.7C204.8,7.9,197.4,0,188,0c-15.2,0-28.1,19.3-28.1,33.4c0,15.8,9.8,21,17.6,21
		C191.4,54.4,204.8,37.2,204.8,20.7 M177.4,52.6c-2.6,0-4.7-0.4-7.2-4.4c-1.4-2.3-2.1-5.3-2.1-10.6c0-10.8,6.1-35.9,19.8-35.9
		c5.7,0,9.1,4.1,9.1,13.8C197,25.7,191.5,52.6,177.4,52.6"/>
	<path class="st0" d="M237.4,46.1c-3,5.2-5.2,6-6,6c-0.8,0-1.4-0.7-1.4-1.6c0-0.9,0.5-2.1,1.1-3.9c0.2-0.6,0.5-1.4,0.6-1.7l4-12
		c1.2-3.6,1.7-5.2,1.7-6.8c0-4-3.3-5.7-6.3-5.6c-2.5,0-7.5,1.7-13.4,14l-0.2-0.2c1.3-3.6,2.5-7.8,2.5-10.1c0-1.2-0.4-3.7-3-3.7
		c-2.5,0-6.8,2.6-10.2,8.8h1.8c1.6-2.9,3.8-5.6,5.4-5.6c1,0,1,1,1,1.3c0,0.8-0.6,2.4-0.8,3.2L206.3,54h5.7l1.9-6.2
		c2.2-7.3,5.1-13.6,8-18c2.9-4.4,5.7-6.8,7.8-6.8c2,0,2.3,1.6,2.3,2.4c0,1.4-0.6,3-1.7,6.3l-4.1,11.7c-1.3,3.7-1.8,5.3-1.8,6.9
		c0,3.7,3.2,4.3,4.3,4.3c6.6,0,9.7-6.4,10.7-8.4H237.4z"/>
	<path class="st0" d="M246.7,54.5c5.2,0,8.6-6.3,10.1-10.4h-1.7c-2,5.1-5,8.2-7,8.2c-0.9,0-1.9-0.6-1.9-2.4c0-1.3,0.3-2.7,1.1-5.1
		c0.4-1.2,0.9-2.5,1.2-3.6L261,0.2c-0.9,0-1,0-1.4,0.2c-0.9,0.4-4.6,1.2-10,1.3l-0.5,1.6h1.4c1.9,0,3.2,0,3.2,1.7
		c0,0.6-0.1,1-1.1,4.4l-9.1,29.9c-0.3,1.1-0.7,2.3-1,2.9c-0.4,1.4-1.5,5-1.5,7.4C241,52.2,243.2,54.5,246.7,54.5"/>
	<path class="st0" d="M280.3,20.6c-1.3,0-2.1,1.3-2.1,2.5c0,1,0.6,2,1,2.6c0.1,0.2,0.5,0.9,0.6,0.9c0.7,1.2,1,2.7,1,3.7
		c0,7.1-7.2,17.3-10.9,21.4l-0.2-0.2c2.1-7.2,2.1-13.9,2.1-16.9c0-3.4-0.1-8.3-2.1-11.3c-1.2-1.8-3.2-2.9-5.1-2.9
		c-0.9,0-5.8,0.2-6.7,10.5h1.6c0.2-1.2,0.7-7.2,3.6-7.2c1.8,0,3.4,3.5,3.4,11.3c0,5.3-0.5,12-1.9,17.8c-0.6,2.5-1.3,6-4.2,9
		c-5.4,5.4-8.5,6.6-10.9,6.6c-1.4,0-2.9-0.4-4-0.7c-1-0.3-1.9-0.6-2.8-0.6c-1.3,0-3.3,0.8-3.3,2.5c0,1.8,2.1,2.9,4.9,2.9
		c2.3,0,5.3-0.6,9.5-3.1c3.6-2.2,29.6-24.7,29.6-42.8C283.5,23.4,282.4,20.6,280.3,20.6"/>
	<path class="st0" d="M157.2,10.8c-1.1-1.3-2.7-2.2-4.4-2.5c-0.4-0.1-0.9-0.1-1.4-0.1h-0.1c-3.5,0-6.5,2.2-7.3,5.3
		c-0.4,1.2-0.6,2.7,0.6,3.5c0.6,0.4,1.4,0.4,1.9-0.1c0.4-0.3,0.8-1,0.6-1.8c-0.3-1.1-0.8-2.2-0.1-3.3c0.1-0.2,0.3-0.3,0.4-0.5
		c0,0,0,0,0.1-0.1l0,0c0.7-0.6,1.5-1,2.4-1.2c4-0.9,7.2,2.5,6.8,6.3c-0.7,5.5-4.9,7.3-12.3,7.2c-6.7-0.1-11.2,0.3-14.8,2.6
		c-2.8,1.8-4.8,4.4-4.9,8.3c-0.1,2.1,0.8,4.2,2.5,5.4c1.5,1.1,3.7,1.4,5.5,0.8c1.3-0.4,3.2-1.2,3.2-2.9c0-0.8-0.5-1.4-1.3-1.6
		c-0.6-0.1-1.4,0-2,0.7c-0.8,1-1.4,2.2-3,2.2c-1.9-0.1-3.1-2.3-3.1-4.2c0-3,2.5-6,7.1-6.9c7.3-1.4,11.6,2.1,12.7,6.6
		c0.9,3.7-1.3,8.7-4.7,11c-7,5-15.6,4.5-21.7,0.7c-7-4.3-9.3-15.7-0.8-22.5c5.5-4.3,10.4-5.2,14.6-6.6c1.2-0.4,2.3-0.8,1.4-1.4
		c-0.7-0.5-0.9-0.6-1.1-0.7c-0.2,0-0.5,0-0.6,0.1c-0.9,0.3-3.3,1.2-5.8,1.2c0,0,0,0-0.1,0c-0.1,0-0.1,0-0.2,0c-0.1,0-0.1,0-0.2,0
		c-0.1,0-0.2,0-0.2,0c0,0,0,0,0,0c-1.2-0.1-2.3-0.5-3.2-1.4c-0.2-0.2-0.4-0.3-0.5-0.5c-2.3-2.7-1.4-7.2,1.9-10.1
		c2.2-1.9,5-2.6,7.3-2.1c0.6,0.1,1.3,0.4,1.9,0.8c1.2,0.8,1.9,2,2.6,3.3c0.3,0.5,0.5,0.9,1,1.2c0.7,0.4,1.5,0.3,2.1-0.3
		c1.1-1.2,0.4-2.7-0.6-3.7c-0.7-0.7-1.6-1.3-2.6-1.8c-2.3-1.2-5.2-1.7-8.2-1.5c-6.8,0.7-11.9,5.4-11.4,10.6c0.3,3.4,3,6.1,6.7,7.4
		c-1.9,0.5-10.3,3.4-14.8,9.8c-4.1,5.7-4.5,12.7-1,18c1,1.5,2.2,2.8,3.6,3.9c4.3,3.7,11.2,5.6,18.7,4.5c11.5-1.7,19.8-9.8,18.6-18.1
		c-0.4-3.1-1.8-5.8-4.7-7.9c8.7-0.3,13.3-4,14.8-8C160.1,17.1,159.5,13.3,157.2,10.8"/>
	<path class="st0" d="M83.4,103.2l-2.1-2.7c-0.4-0.6-1.8-2.2-2.6-2.3c3-0.2,4.9-1.8,4.9-4.2c0-4.4-6.1-4.3-7.2-4.3
		c-1.6,0-4.3,0.1-6.1,0.2v0.5c2.3,0,2.5-0.1,2.5,3.6v8.1c0,3.2,0,3.7-2.1,3.7h-0.5v0.5h7.9v-0.5h-0.8c-2.1,0-2.1-0.5-2.1-3.7v-3.7
		h0.3c0.9,0,1.4,0,2.9,2l2.6,3.6c1.1,1.6,1.8,2.1,2.2,2.4h4.4v-0.5C85.8,105.9,84.5,104.5,83.4,103.2 M76.7,97.9h-1.4v-7.5
		c0.3,0,0.6,0,1,0c2.9,0,4.7,0.7,4.7,3.8C81,96.7,79.7,97.9,76.7,97.9"/>
	<path class="st0" d="M102.7,105.9h-1.2c-2.3,0-2.4-0.2-2.4-4V98h1.8c1.9,0,2.5,0.1,2.5,2.6h0.6v-5.7h-0.6c0,1.9-0.2,2.5-2.5,2.5H99
		v-7h2.3c2.8,0,4,0.1,4.8,3.6h0.6l-0.4-4.1H94.5v0.6c2.1,0,2.1,0.3,2.1,3.6v8.1c0,3.2,0,3.7-2.1,3.7h-0.3v0.6h13.7l0.3-5.2h-0.6
		C106.5,105.9,104.1,105.9,102.7,105.9"/>
	<path class="st0" d="M121.1,96.4c-1.9-0.8-4-1.7-4-3.7c0-1.3,1-2.5,2.9-2.5c1.7,0,3.6,1,4.4,4h0.5v-4.3h-0.5c0,0.3-0.1,0.8-0.6,1.4
		c-0.6-0.6-1.6-1.7-3.8-1.7c-2.7,0-4.4,2-4.4,4.1c0,3.1,2.5,4.2,5,5.3c1.6,0.7,4.1,1.6,4.1,3.9c0,1.7-1.4,3.2-3.7,3.2
		c-3.9,0-4.7-4-4.9-5.2h-0.6v5.3h0.6c0.2-1,0.5-1.4,0.6-1.6c0.8,0.9,2.3,2.1,4.5,2.1c3.7,0,5.2-2.4,5.2-4.8
		C126.4,98.8,124.3,97.8,121.1,96.4"/>
	<path class="st0" d="M142.2,89.6c-4.5,0-8.9,2.8-8.9,8.4c0,5.5,4,8.7,9,8.7c5.5,0,9-3.5,9-8.6C151.3,92.2,146.7,89.6,142.2,89.6
		 M142.4,106.1c-4.3,0-6.3-2.9-6.3-8c0-3.5,1.1-7.9,6.2-7.9c5.7,0,6.2,5.6,6.2,8C148.5,101,147.8,106.1,142.4,106.1"/>
	<path class="st0" d="M170.5,103.2l-2.1-2.7c-0.4-0.6-1.8-2.2-2.6-2.3c3-0.2,4.9-1.8,4.9-4.2c0-4.4-6.1-4.3-7.2-4.3
		c-1.6,0-4.3,0.1-6.1,0.2v0.5c2.4,0,2.5-0.1,2.5,3.6v8.1c0,3.2,0,3.7-2.1,3.7h-0.5v0.5h7.9v-0.5h-0.8c-2.1,0-2.1-0.5-2.1-3.7v-3.7
		h0.4c0.9,0,1.4,0,2.9,2l2.6,3.6c1.1,1.6,1.8,2.1,2.2,2.4h4.4v-0.5C172.9,105.9,171.6,104.5,170.5,103.2 M163.8,97.9h-1.4v-7.5
		c0.3,0,0.6,0,1,0c2.9,0,4.7,0.7,4.7,3.8C168.1,96.7,166.8,97.9,163.8,97.9"/>
	<path class="st0" d="M179.2,89.9l-0.1,4h0.6c0.5-2.3,0.8-3.4,2.9-3.4h3.4v11.7c0,3.2,0,3.7-2.1,3.7h-0.9v0.5h8.3v-0.5h-0.8
		c-2.1,0-2.1-0.6-2.1-3.7V90.4h2.6c2,0,3.2,0,3.7,3.4h0.5l-0.1-4H179.2z"/>
	<path class="st0" d="M208,96.4c-1.9-0.8-4-1.7-4-3.7c0-1.3,1-2.5,2.9-2.5c1.7,0,3.6,1,4.4,4h0.5v-4.3h-0.5c0,0.3-0.1,0.8-0.6,1.4
		c-0.6-0.6-1.6-1.7-3.8-1.7c-2.7,0-4.4,2-4.4,4.1c0,3.1,2.5,4.2,5,5.3c1.6,0.7,4.1,1.6,4.1,3.9c0,1.7-1.4,3.2-3.7,3.2
		c-3.9,0-4.7-4-4.9-5.2h-0.6v5.3h0.6c0.2-1,0.5-1.4,0.6-1.6c0.8,0.9,2.3,2.1,4.5,2.1c3.7,0,5.2-2.4,5.2-4.8
		C213.2,98.8,211.2,97.8,208,96.4"/>
</g>
</svg>
