<?xml version="1.0" encoding="utf-8"?>
<!-- Generator: Adobe Illustrator 21.1.0, SVG Export Plug-In . SVG Version: 6.00 Build 0)  -->
<svg version="1.1" id="Layer_1" xmlns="http://www.w3.org/2000/svg" xmlns:xlink="http://www.w3.org/1999/xlink" x="0px" y="0px"
	 viewBox="0 0 880.8 153.9" style="enable-background:new 0 0 880.8 153.9;" xml:space="preserve">
<style type="text/css">
	.st0{clip-path:url(#SVGID_2_);}
</style>
<polygon points="21,36.5 21,109.8 32.1,112 32.1,51.1 357.3,101.7 356.1,88.3 "/>
<polygon points="523.4,101.7 848.7,51.1 848.7,112 859.8,109.8 859.8,36.5 524.7,88.3 "/>
<polygon points="440.4,78 0,12.1 0,151.5 11.8,151.5 11.8,27.1 440.4,91.8 868.9,27.1 868.9,151.5 880.8,151.5 880.8,12.1 "/>
<polygon points="847.7,0 440.4,61.9 33.1,0 33.1,7.6 440.4,69.1 847.7,7.6 "/>
<g>
	<defs>
		<rect id="SVGID_1_" width="880.8" height="153.9"/>
	</defs>
	<clipPath id="SVGID_2_">
		<use xlink:href="#SVGID_1_"  style="overflow:visible;"/>
	</clipPath>
	<path class="st0" d="M17.2,151.4c0.4,0,0.7-0.1,1-0.3c0.3-0.2,0.4-0.5,0.4-0.9v-31c0-0.4-0.1-0.7-0.4-0.8c-0.3-0.2-0.6-0.2-1-0.2
		v-1.2H30v1.2c-0.2,0-0.5,0.1-0.7,0.2c-0.3,0.1-0.4,0.3-0.4,0.6c0,0.2,0.1,0.5,0.3,0.9c0.2,0.4,0.4,0.7,0.6,1.2l9.9,17.7l9.9-17.5
		c0.3-0.6,0.6-1.1,0.7-1.4c0.2-0.3,0.2-0.6,0.2-0.9c0-0.5-0.3-0.7-0.9-0.7v-1.2h12.8v1.2c-0.4,0-0.7,0.1-1,0.2
		c-0.3,0.2-0.4,0.4-0.4,0.8v31c0,0.4,0.1,0.7,0.4,0.9c0.3,0.2,0.6,0.3,1,0.3v1.2H51.6v-1.2c1.2,0,1.9-0.4,1.9-1.2v-22.6h-0.1
		l-13.9,25h-0.2l-13.6-25.1h-0.1v22.6c0,0.8,0.6,1.2,1.9,1.2v1.2H17.2V151.4z"/>
	<path class="st0" d="M86.5,125.1L75,148.6c-0.5,1-0.7,1.6-0.7,2c0,0.5,0.4,0.7,1.3,0.7v1.2h-9.8v-1.2c0.6-0.1,1.1-0.4,1.4-0.9
		c0.3-0.5,0.7-1.1,1-1.7L81,122.4c0.3-0.6,0.6-1.1,0.9-1.6c0.3-0.5,0.4-0.9,0.4-1.3c0-0.5-0.2-0.8-0.5-1c-0.3-0.2-0.7-0.3-1-0.4
		v-1.2h11.7v1.2c-0.3,0.1-0.6,0.2-1,0.4c-0.3,0.2-0.5,0.5-0.5,1c0,0.4,0.1,0.7,0.2,1.1c0.2,0.4,0.4,0.8,0.7,1.4l14.3,27.7
		c0.2,0.5,0.5,0.9,0.9,1.1c0.4,0.2,0.8,0.5,1.3,0.7v1.2H97.2v-1.2c0.2,0,0.4-0.1,0.7-0.2c0.3-0.1,0.4-0.3,0.4-0.6
		c0-0.5-0.2-1-0.6-1.8L86.5,125.1z"/>
	<path class="st0" d="M327.3,125.1l-11.5,23.5c-0.5,1-0.7,1.6-0.7,2c0,0.5,0.4,0.7,1.3,0.7v1.2h-9.8v-1.2c0.6-0.1,1.1-0.4,1.4-0.9
		c0.3-0.5,0.7-1.1,1-1.7l12.8-26.4c0.3-0.6,0.6-1.1,0.9-1.6c0.3-0.5,0.4-0.9,0.4-1.3c0-0.5-0.2-0.8-0.5-1c-0.3-0.2-0.7-0.3-1-0.4
		v-1.2h11.7v1.2c-0.3,0.1-0.6,0.2-1,0.4c-0.3,0.2-0.5,0.5-0.5,1c0,0.4,0.1,0.7,0.2,1.1c0.2,0.4,0.4,0.8,0.7,1.4l14.3,27.7
		c0.2,0.5,0.5,0.9,0.9,1.1c0.4,0.2,0.8,0.5,1.3,0.7v1.2h-11.4v-1.2c0.2,0,0.4-0.1,0.7-0.2c0.3-0.1,0.4-0.3,0.4-0.6
		c0-0.5-0.2-1-0.6-1.8L327.3,125.1z"/>
	<path class="st0" d="M554.1,125.1l-11.5,23.5c-0.5,1-0.7,1.6-0.7,2c0,0.5,0.4,0.7,1.3,0.7v1.2h-9.8v-1.2c0.6-0.1,1.1-0.4,1.4-0.9
		c0.3-0.5,0.7-1.1,1-1.7l12.8-26.4c0.3-0.6,0.6-1.1,0.9-1.6c0.3-0.5,0.4-0.9,0.4-1.3c0-0.5-0.2-0.8-0.5-1c-0.3-0.2-0.7-0.3-1-0.4
		v-1.2h11.7v1.2c-0.3,0.1-0.6,0.2-1,0.4c-0.3,0.2-0.5,0.5-0.5,1c0,0.4,0.1,0.7,0.2,1.1c0.2,0.4,0.4,0.8,0.7,1.4l14.3,27.7
		c0.2,0.5,0.5,0.9,0.9,1.1c0.4,0.2,0.8,0.5,1.3,0.7v1.2h-11.4v-1.2c0.2,0,0.4-0.1,0.7-0.2c0.3-0.1,0.4-0.3,0.4-0.6
		c0-0.5-0.2-1-0.6-1.8L554.1,125.1z"/>
	<path class="st0" d="M704.5,125.1L693,148.6c-0.5,1-0.7,1.6-0.7,2c0,0.5,0.4,0.7,1.3,0.7v1.2h-9.8v-1.2c0.6-0.1,1.1-0.4,1.4-0.9
		c0.3-0.5,0.7-1.1,1-1.7l12.8-26.4c0.3-0.6,0.6-1.1,0.9-1.6c0.3-0.5,0.4-0.9,0.4-1.3c0-0.5-0.2-0.8-0.5-1c-0.3-0.2-0.7-0.3-1-0.4
		v-1.2h11.7v1.2c-0.3,0.1-0.6,0.2-1,0.4c-0.3,0.2-0.5,0.5-0.5,1c0,0.4,0.1,0.7,0.2,1.1c0.2,0.4,0.4,0.8,0.7,1.4l14.3,27.7
		c0.2,0.5,0.5,0.9,0.9,1.1c0.4,0.2,0.8,0.5,1.3,0.7v1.2h-11.4v-1.2c0.2,0,0.4-0.1,0.7-0.2c0.3-0.1,0.4-0.3,0.4-0.6
		c0-0.5-0.2-1-0.6-1.8L704.5,125.1z"/>
	<path class="st0" d="M135.4,116.9c2.2,0,4.2,0.2,6,0.6c1.8,0.4,3.3,1,4.6,1.8c1.3,0.8,2.3,1.9,3,3.3c0.7,1.3,1,3,1,4.9
		c0,3-0.9,5.3-2.7,6.9c-1.8,1.6-4.2,2.7-7.2,3.2l9.2,12.9c0.3,0.5,0.7,0.7,1.1,0.8c0.4,0.1,0.8,0.1,1.2,0.1v1.2h-12.9v-1.2
		c0.4,0,0.8-0.1,1.1-0.2c0.3-0.1,0.4-0.3,0.4-0.5c0-0.2-0.1-0.5-0.3-0.8c-0.2-0.3-0.5-0.7-0.8-1.2l-7.6-10.6h-9.9v12.1
		c0,0.4,0.1,0.7,0.4,0.9c0.3,0.2,0.8,0.3,1.6,0.3v1.2h-11.9v-1.2c1.3,0,2-0.4,2-1.2v-30.9c0-0.8-0.7-1.2-2-1.2v-1.2H135.4z
		 M133.6,132.8c1.7,0,3-0.1,4.1-0.4c1.1-0.2,2-0.6,2.6-1.1c0.6-0.5,1.1-1,1.4-1.6c0.3-0.6,0.4-1.3,0.4-2c0-0.7-0.1-1.4-0.4-2
		c-0.3-0.6-0.7-1.1-1.4-1.6c-0.6-0.5-1.5-0.8-2.6-1.1c-1.1-0.2-2.5-0.4-4.1-0.4h-11.9v10.1H133.6z"/>
	<path class="st0" d="M154.4,151.4c1.2,0,1.8-0.4,1.8-1.2v-30.9c0-0.8-0.6-1.2-1.8-1.2v-1.2h11.4v1.2c-1.2,0-1.8,0.4-1.8,1.2v30.9
		c0,0.8,0.6,1.2,1.8,1.2v1.2h-11.4V151.4z"/>
	<path class="st0" d="M205.4,124.2c0-0.5-0.2-0.9-0.6-1.1c-0.4-0.2-1.1-0.4-2-0.4h-22.3v8.4H194c0.9,0,1.6-0.1,2.1-0.4
		c0.5-0.2,0.8-0.9,0.8-1.9h1.2v10.6h-1.2c0-1-0.3-1.7-0.8-2c-0.5-0.3-1.2-0.4-2.1-0.4h-13.5v9.4h23c0.7,0,1.3-0.2,1.7-0.5
		c0.4-0.3,0.7-0.7,0.7-1.3h1.2v9.3h-1.2c0-0.7-0.2-1.1-0.7-1.2c-0.4-0.1-1-0.1-1.7-0.1h-32.1v-1.2c0.3,0,0.6-0.1,0.9-0.3
		c0.3-0.2,0.4-0.5,0.4-0.9v-30.9c0-0.4-0.1-0.7-0.4-0.9c-0.3-0.2-0.5-0.3-0.9-0.3v-1.2h31.4c1,0,1.6-0.1,2-0.4
		c0.4-0.3,0.6-0.7,0.6-1.2h1.2v9H205.4z"/>
	<path class="st0" d="M261.4,124.2c0-0.5-0.2-0.9-0.6-1.1c-0.4-0.2-1-0.4-1.9-0.4h-21.3v8.4h12.9c0.9,0,1.6-0.1,2-0.3
		c0.5-0.2,0.7-0.6,0.7-1.2h1.2v9.8h-1.2c0-1-0.2-1.7-0.7-2c-0.5-0.3-1.2-0.4-2-0.4h-12.9v13.2c0,0.4,0.2,0.7,0.6,0.9
		c0.4,0.2,0.8,0.3,1.4,0.3v1.2h-11.2v-1.2c1.1,0,1.7-0.4,1.7-1.2v-30.9c0-0.8-0.6-1.2-1.7-1.2v-1.2h30.5c0.9,0,1.6-0.1,1.9-0.4
		c0.4-0.3,0.6-0.7,0.6-1.2h1.2v9H261.4z"/>
	<path class="st0" d="M288,116.9c2.2,0,4.2,0.2,6,0.6c1.8,0.4,3.3,1,4.6,1.8c1.3,0.8,2.3,1.9,3,3.3c0.7,1.3,1,3,1,4.9
		c0,3-0.9,5.3-2.7,6.9c-1.8,1.6-4.2,2.7-7.2,3.2l9.2,12.9c0.3,0.5,0.7,0.7,1.1,0.8c0.4,0.1,0.8,0.1,1.2,0.1v1.2h-12.9v-1.2
		c0.4,0,0.8-0.1,1.1-0.2c0.3-0.1,0.4-0.3,0.4-0.5c0-0.2-0.1-0.5-0.3-0.8c-0.2-0.3-0.5-0.7-0.8-1.2l-7.6-10.6h-9.9v12.1
		c0,0.4,0.1,0.7,0.4,0.9c0.3,0.2,0.8,0.3,1.6,0.3v1.2h-11.9v-1.2c1.3,0,2-0.4,2-1.2v-30.9c0-0.8-0.7-1.2-2-1.2v-1.2H288z
		 M286.2,132.8c1.7,0,3-0.1,4.1-0.4c1.1-0.2,2-0.6,2.6-1.1c0.6-0.5,1.1-1,1.4-1.6c0.3-0.6,0.4-1.3,0.4-2c0-0.7-0.1-1.4-0.4-2
		c-0.3-0.6-0.7-1.1-1.4-1.6c-0.6-0.5-1.5-0.8-2.6-1.1c-1.1-0.2-2.5-0.4-4.1-0.4h-11.9v10.1H286.2z"/>
	<path class="st0" d="M350.9,151.4c0.9,0,1.3-0.4,1.3-1.2v-30.9c0-0.8-0.4-1.2-1.3-1.2v-1.2h11.8v1.2c-0.4,0-0.6,0.2-0.6,0.7
		c0,0.4,0.5,1,1.4,1.9l19.8,20.3v-21.6c0-0.8-0.6-1.2-1.8-1.2v-1.2H392v1.2c-0.9,0-1.3,0.4-1.3,1.2v30.9c0,0.8,0.4,1.2,1.3,1.2v1.2
		h-11.2v-1.2c0.6,0,0.9-0.2,0.9-0.6c0-0.3-0.4-0.8-1.1-1.6l-21-21.6v22.6c0,0.8,0.5,1.2,1.6,1.2v1.2h-10.2V151.4z"/>
	<path class="st0" d="M435.9,147.7c-0.1,0-0.3,0-0.4,0c-0.1,0-0.2,0-0.4,0c-0.3,0-0.9,0.3-2,0.8c-1,0.5-2.3,1.2-3.9,1.8
		c-1.6,0.7-3.4,1.3-5.4,1.8c-2,0.5-4.1,0.7-6.3,0.7c-2.9,0-5.6-0.4-8.3-1.1c-2.7-0.7-5-1.8-7-3.4c-2-1.5-3.6-3.4-4.8-5.7
		c-1.2-2.3-1.8-4.9-1.8-8c0-3,0.6-5.6,1.8-7.9c1.2-2.3,2.8-4.2,4.8-5.7c2-1.5,4.4-2.7,7-3.5c2.6-0.8,5.4-1.2,8.3-1.2
		c2.3,0,4.4,0.2,6.3,0.5c1.9,0.4,3.6,0.7,5,1.2c1.4,0.4,2.5,0.8,3.4,1.2c0.8,0.4,1.3,0.5,1.5,0.5c0.2,0,0.4-0.1,0.6-0.3
		c0.2-0.2,0.3-0.4,0.4-0.5l1,0.8l-5.4,8.2l-0.7-0.5c0-0.1,0-0.3,0-0.4c0-0.1-0.1-0.3-0.1-0.5c-0.1-0.5-0.5-1-1.4-1.5
		c-0.8-0.5-1.8-1-3-1.4c-1.2-0.4-2.5-0.7-3.8-1c-1.3-0.3-2.6-0.4-3.7-0.4c-1.9,0-3.8,0.3-5.5,0.8c-1.8,0.5-3.3,1.3-4.6,2.4
		c-1.3,1-2.3,2.3-3.1,3.8c-0.8,1.5-1.2,3.3-1.2,5.2c0,1.9,0.4,3.7,1.2,5.2c0.8,1.5,1.8,2.8,3.1,3.8c1.3,1,2.8,1.8,4.6,2.4
		c1.8,0.5,3.6,0.8,5.5,0.8c1.5,0,3-0.2,4.6-0.5c1.6-0.3,3.1-0.8,4.4-1.3c1.3-0.5,2.4-1.1,3.3-1.8c0.9-0.7,1.3-1.3,1.3-1.9
		c0-0.3-0.1-0.6-0.3-0.8l1-0.5l4.5,7.2L435.9,147.7z"/>
	<path class="st0" d="M476.1,124.2c0-0.5-0.2-0.9-0.6-1.1c-0.4-0.2-1.1-0.4-2-0.4h-22.3v8.4h13.5c0.9,0,1.6-0.1,2.1-0.4
		c0.5-0.2,0.8-0.9,0.8-1.9h1.2v10.6h-1.2c0-1-0.3-1.7-0.8-2c-0.5-0.3-1.2-0.4-2.1-0.4h-13.5v9.4h23c0.7,0,1.3-0.2,1.7-0.5
		c0.4-0.3,0.7-0.7,0.7-1.3h1.2v9.3h-1.2c0-0.7-0.2-1.1-0.7-1.2c-0.4-0.1-1-0.1-1.7-0.1H442v-1.2c0.3,0,0.6-0.1,0.9-0.3
		c0.3-0.2,0.4-0.5,0.4-0.9v-30.9c0-0.4-0.1-0.7-0.4-0.9c-0.3-0.2-0.5-0.3-0.9-0.3v-1.2h31.4c1,0,1.6-0.1,2-0.4
		c0.4-0.3,0.6-0.7,0.6-1.2h1.2v9H476.1z"/>
	<path class="st0" d="M534.4,118.1c-0.9,0-1.6,0.3-2,1c-0.4,0.7-0.7,1.2-0.9,1.6l-12.2,26.4c-0.4,0.9-0.8,1.6-1,2.2
		c-0.3,0.5-0.4,0.9-0.4,1.2c0,0.2,0.1,0.4,0.2,0.5c0.1,0.1,0.3,0.3,0.4,0.4v1.2h-10.6v-1.2c0.4-0.2,0.6-0.5,0.6-1
		c0-0.2-0.2-0.7-0.5-1.4c-0.3-0.7-0.8-1.6-1.3-2.6l-12.4-26.6c-0.2-0.5-0.6-0.9-1-1.1c-0.4-0.2-1-0.5-1.8-0.7v-1.2h12.3v1.2
		c-0.3,0-0.6,0.1-0.9,0.2c-0.3,0.2-0.4,0.5-0.4,0.9c0,0.5,0.2,1.1,0.6,1.9c0.4,0.8,0.9,1.7,1.4,2.9l8.8,18.7l8.6-18.4
		c0.6-1.2,1.1-2.2,1.6-3.2c0.5-0.9,0.7-1.6,0.7-1.9c0-0.7-0.6-1.1-1.9-1.1v-1.2h12.1V118.1z"/>
	<path class="st0" d="M580.5,151.4c0.9,0,1.3-0.4,1.3-1.2v-30.9c0-0.8-0.4-1.2-1.3-1.2v-1.2h11.8v1.2c-0.4,0-0.6,0.2-0.6,0.7
		c0,0.4,0.5,1,1.4,1.9l19.8,20.3v-21.6c0-0.8-0.6-1.2-1.8-1.2v-1.2h10.4v1.2c-0.9,0-1.3,0.4-1.3,1.2v30.9c0,0.8,0.4,1.2,1.3,1.2v1.2
		h-11.2v-1.2c0.6,0,0.9-0.2,0.9-0.6c0-0.3-0.4-0.8-1.1-1.6l-21-21.6v22.6c0,0.8,0.5,1.2,1.6,1.2v1.2h-10.2V151.4z"/>
	<path class="st0" d="M662.3,116.9c2.4,0,4.6,0.4,6.7,1.1c2.1,0.7,3.9,1.8,5.4,3.3c1.5,1.5,2.7,3.3,3.6,5.6c0.9,2.2,1.3,4.9,1.3,7.9
		c0,3-0.4,5.7-1.3,7.9c-0.9,2.2-2.1,4.1-3.6,5.6c-1.5,1.5-3.3,2.6-5.4,3.3c-2.1,0.7-4.3,1.1-6.7,1.1h-21.6v-1.2c1,0,1.5-0.4,1.5-1.2
		v-30.9c0-0.8-0.5-1.2-1.5-1.2v-1.2H662.3z M659.7,146.8c2,0,3.8-0.2,5.3-0.5c1.5-0.4,2.8-1,3.8-1.9c1-0.9,1.7-2.2,2.2-3.7
		c0.5-1.5,0.7-3.5,0.7-5.8c0-2.4-0.2-4.3-0.7-5.8c-0.5-1.5-1.2-2.8-2.2-3.7c-1-0.9-2.3-1.6-3.8-1.9c-1.5-0.4-3.3-0.5-5.3-0.5h-10.1
		v24.1H659.7z"/>
	<path class="st0" d="M728.2,151.4c0.4,0,0.7-0.1,1-0.3c0.3-0.2,0.4-0.5,0.4-0.9v-31c0-0.4-0.1-0.7-0.4-0.8c-0.3-0.2-0.6-0.2-1-0.2
		v-1.2h12.9v1.2c-0.2,0-0.5,0.1-0.7,0.2c-0.3,0.1-0.4,0.3-0.4,0.6c0,0.2,0.1,0.5,0.3,0.9c0.2,0.4,0.4,0.7,0.6,1.2l9.9,17.7l9.9-17.5
		c0.3-0.6,0.6-1.1,0.7-1.4c0.2-0.3,0.2-0.6,0.2-0.9c0-0.5-0.3-0.7-0.9-0.7v-1.2h12.8v1.2c-0.4,0-0.7,0.1-1,0.2
		c-0.3,0.2-0.4,0.4-0.4,0.8v31c0,0.4,0.1,0.7,0.4,0.9c0.3,0.2,0.6,0.3,1,0.3v1.2h-10.8v-1.2c1.2,0,1.9-0.4,1.9-1.2v-22.6h-0.1
		l-13.9,25h-0.2l-13.6-25.1h-0.1v22.6c0,0.8,0.6,1.2,1.9,1.2v1.2h-10.3V151.4z"/>
	<path class="st0" d="M777.5,151.4c0.4,0,0.7-0.1,1-0.3c0.3-0.2,0.4-0.5,0.4-0.9v-31c0-0.4-0.1-0.7-0.4-0.8c-0.3-0.2-0.6-0.2-1-0.2
		v-1.2h12.9v1.2c-0.2,0-0.5,0.1-0.7,0.2c-0.3,0.1-0.4,0.3-0.4,0.6c0,0.2,0.1,0.5,0.3,0.9c0.2,0.4,0.4,0.7,0.6,1.2l9.9,17.7l9.9-17.5
		c0.3-0.6,0.6-1.1,0.7-1.4c0.2-0.3,0.2-0.6,0.2-0.9c0-0.5-0.3-0.7-0.9-0.7v-1.2h12.8v1.2c-0.4,0-0.7,0.1-1,0.2
		c-0.3,0.2-0.4,0.4-0.4,0.8v31c0,0.4,0.1,0.7,0.4,0.9c0.3,0.2,0.6,0.3,1,0.3v1.2h-10.8v-1.2c1.2,0,1.9-0.4,1.9-1.2v-22.6h-0.1
		l-13.9,25h-0.2L786,127.5h-0.1v22.6c0,0.8,0.6,1.2,1.9,1.2v1.2h-10.3V151.4z"/>
	<path class="st0" d="M864.3,124.2c0-0.5-0.2-0.9-0.6-1.1c-0.4-0.2-1.1-0.4-2-0.4h-22.3v8.4h13.5c0.9,0,1.6-0.1,2.1-0.4
		c0.5-0.2,0.8-0.9,0.8-1.9h1.2v10.6h-1.2c0-1-0.3-1.7-0.8-2c-0.5-0.3-1.2-0.4-2.1-0.4h-13.5v9.4h23c0.7,0,1.3-0.2,1.7-0.5
		c0.4-0.3,0.7-0.7,0.7-1.3h1.2v9.3h-1.2c0-0.7-0.2-1.1-0.7-1.2c-0.4-0.1-1-0.1-1.7-0.1h-32.1v-1.2c0.3,0,0.6-0.1,0.9-0.3
		c0.3-0.2,0.4-0.5,0.4-0.9v-30.9c0-0.4-0.1-0.7-0.4-0.9c-0.3-0.2-0.5-0.3-0.9-0.3v-1.2h31.4c1,0,1.6-0.1,2-0.4
		c0.4-0.3,0.6-0.7,0.6-1.2h1.2v9H864.3z"/>
</g>
</svg>
