<?xml version="1.0" encoding="utf-8"?>
<!-- Generator: Adobe Illustrator 21.1.0, SVG Export Plug-In . SVG Version: 6.00 Build 0)  -->
<svg version="1.1" id="Layer_1" xmlns="http://www.w3.org/2000/svg" xmlns:xlink="http://www.w3.org/1999/xlink" x="0px" y="0px"
	 viewBox="0 0 210 201.3" style="enable-background:new 0 0 210 201.3;" xml:space="preserve">
<style type="text/css">
	.st0{fill:#D1050C;}
	.st1{clip-path:url(#SVGID_2_);fill:#FFFFFF;}
</style>
<rect y="0" class="st0" width="210" height="201.3"/>
<g>
	<defs>
		<rect id="SVGID_1_" width="210" height="201.3"/>
	</defs>
	<clipPath id="SVGID_2_">
		<use xlink:href="#SVGID_1_"  style="overflow:visible;"/>
	</clipPath>
	<path class="st1" d="M115.1,29.3c-0.9,0.9-2.1,3-2.1,6.1v19c0,1.6-0.6,3.1-1.5,3.9c-0.5,0.5-3.6,3.3-3.8,3.4h1.8
		c0.5-0.5,6.2-5.5,6.8-6.2c0.8-0.9,2.6-3.1,2.6-6.6c0-0.8,0-17.5,0-18.3c0-2.7,1.3-4.3,1.9-5c0.7-0.7,2.8-2.6,3.4-3.1l-1.8,0
		C121.9,23.2,115.8,28.7,115.1,29.3"/>
	<path class="st1" d="M101.2,98.5l6.9,6h4.6c4.7,0,9-2,11.8-4.8c2.8-2.8,3.9-6.6,3.9-10.2v-9.9c0-3.3-2.1-5.2-2.7-5.8
		c-0.3-0.3-2.3-2.2-2.3-2.2v7.6c0,0,2.2,2.3,2.7,2.7c2,2.2,2,6.1-4.5,12.5c-1.1,1.1-4.4,4.2-8.8,4.2H101.2z"/>
	<path class="st1" d="M120.4,57.9c-0.8,0.8-1.5,2.8-1.5,4.6v3.7h3.8c1.5,0,2.8-1.1,3.9-2.1c0,0,0-3.7,0-3.7s1,1.1,1.8,2
		c1.3-1.2,4.5-4.6,6.9-4.6c4.8,0,3.7,6.1,1.8,8c-0.6,0.6-3.5,3.2-4.4,4.1c-2.3,2.2-6.2,1.1-6.2-4.5c0,0-4.2,4-4.8,4.5
		c-0.6,0.5-2.8,2.8-2.8,2.8v9.9c0,4.7-1.4,6.4-2.8,7.7c-0.6,0.6-5.7,5.2-6.6,6h-1.8c0,0,3.3-2.9,3.9-3.5c0.7-0.7,1.5-2.2,1.5-4.7
		c0-0.6-0.1-15.5-0.1-15.5H88.8c-8.4,0-10.2-9.3-10.3-11.8c0-0.7,0-8.2,0-9.4c0-1.5-1-4.1-2.6-4.9h2.4c0.3,0.1,1.8,0.7,1.8,6.4
		c0,0-0.1,6.7-0.1,7c0,2.9,2.3,6.2,5.6,6.2c0.7,0,27.4,0,27.4,0c0-0.7,0.8-3.5,2.1-5c0.7-0.8,6.6-6.2,7.3-6.7l1.7,0
		C123.9,54.7,121,57.3,120.4,57.9 M129.3,63.5c0,0,2,2.3,2.8,2.9c2.6,2.1,3.8-0.3,2.1-3C133.7,62.7,132.1,61.6,129.3,63.5"/>
	<path class="st1" d="M100,81.2c0,1.3-4.2,4.8-4.5,5.1c-0.3-1.4-1.4-3-4.5-6.2l4.6-4.6C98.7,78.6,100,79.3,100,81.2"/>
	<path class="st1" d="M108,28.2c0.9,0.9,2.9,3.4,1.7,4.6c-1.1,1.1-2.7,2.7-2.7,2.7c-0.1-0.6-1.6-2.1-1.6-2.1s0,4.5,0,5
		c0,2-0.8,2.6-0.8,2.6s3.7,3.7,3.7,8.4c0,2.3,0,4.4,0,4.9c0,1-0.2,1.7-0.9,2.5c-0.3,0.4-3.8,3.8-4.3,4.3c-1,0.9-2,1.1-2.8,1.1H87.4
		c-2,0-4.1-1.6-4.1-3.2c0-0.4,0-4.8,0-4.8c0.7,0.8,1.3,1.6,2.9,1.6c1.3,0,2.6-1,3-1.4c0.4-0.4,9.7-10.1,9.7-10.1s-4.4-4-7.3-6
		c-1.4-0.9-3.3,0.3-3.6,1.5c-0.9,3.9,0,9.7,0,9.7s-2.9-2.9-3.6-3.5c-1.4-1.4-1.4-4.7,0.3-6.4c0.3-0.3,2.9-3.2,6.2-3.2h5.1
		c3.4,0,7.1,3.4,7.1,3.4s0.6-0.6,0.6-1.2c0-1.8,0-6.5,0-6.5c-2.6-2.6-2.9-5.2-1.7-6.5c2.3-2.3,3.2-3.1,3.2-3.1S105.3,25.5,108,28.2
		 M91.9,54c-1.3,1.3-1.5,1.7-2.7,2.4h14.5c3.9,0,3.1-2.4,2.4-3.7c-1.4-2.5-6-7.2-6-7.2S92.2,53.7,91.9,54"/>
	<path class="st1" d="M75.4,67.1H73c0,0,2.6,1.4,2.6,5v11.5c0,7.5,6.2,14.5,13.7,14.5h6.3c3.8,0,5.1-0.9,7.4-2.9
		c0.8-0.7,1.9-2,2.3-2.4c1.3-1.5,2.7-2.7,2.7-6.5v-3.8c0-3.3-1.9-4.6-2.8-5.5c-0.6-0.6-2.2-2.1-2.2-2.1v7.7c0,0,1.6,1.7,2.3,2.2
		c3.3,2.6,0.7,7.1-2.4,7.1H89.1c-5.3,0-12-4.4-12-12v-6.3C77.2,67.1,75.4,67.1,75.4,67.1"/>
	<path class="st1" d="M90.6,81.2c0,1.3-4.2,4.8-4.5,5.1c-0.3-1.4-1.4-3-4.5-6.2l4.6-4.6C89.3,78.6,90.6,79.3,90.6,81.2"/>
	<path class="st1" d="M42.2,132.6h-7.4c-2.3,0-2.1-1.9-2.4-3.6v-10.6c0,0,1.6,0,3.4,0c2.1,0,4.6-0.3,7.1,1.1c0,0-1.8-4.3-7.1-4.3
		h-3.4v-2.1v-1.3c0,0,0-3-0.7-3.8c0,0,4.5,0,4.9,0c4.2,0,7.5-0.1,11,2.2c0,0-0.7-5.6-8.9-5.6h-16c0,0,2.9,2.4,2.7,7.2l0.2,19.3
		c0,4.9,1.9,5,1.9,5h5.5h2.5h7.8c3.6,0,4.8-2.5,4.8-3.9l0-1.9C48,130.3,46.9,132.6,42.2,132.6"/>
	<path class="st1" d="M84,131v-13.5c0-5.2-4.3-6.6-7.5-6.6c-4.2,0-5.5,3.5-6,4.7c-1-3.3-4.3-4.8-7-4.8c-5.1,0-6.4,4.9-6.4,4.9
		s-0.1-4.7-4.2-4.7l-4,0c0,0,2.3,0.9,2.3,5l0,15c0,5,2,5.1,2,5.1h6.7c-0.2,0-2.6-1.9-2.6-5.1v-13.3c0.1-0.6,1.1-2.6,3.9-2.6
		c1.6,0,3.3,1.7,3.3,3.6l0,12.4c0,5,2,5.1,2,5.1h6.7c0,0-2.6-1.8-2.6-5.1l0-13.3c0.2-0.7,1.1-2.5,3.7-2.5c2,0,3.6,1.7,3.6,3.6
		c0,0,0,11.3,0,12.3c0,5.1,2,5,2,5c3.5,0,6.7,0,6.7,0S84,134.3,84,131"/>
	<path class="st1" d="M95.7,130.9c0,3.3,2.6,5.1,2.6,5.1s-3.2,0-6.7,0c0,0-2,0-2-5v0l0-15.1c0-4-2.3-5-2.3-5h4c1.4,0,4.4,0,4.4,5.6
		L95.7,130.9L95.7,130.9z"/>
	<path class="st1" d="M116.1,112.8c0,0-0.6-1.8-3.4-1.8c-4.2,0-5.2,4.9-5.2,4.9c-0.4-3.9-1.4-5.1-4.3-5.1l-4,0c0,0,2.3,1,2.3,5l0,15
		c0,5,2,5.1,2,5.1h6.6c-0.2,0-2.6-1.9-2.6-5.1l0-12.3c0.2-1.1,0.7-2,1.6-2.6c2.2-1.4,5.2-1,6.9,1V112.8z"/>
	<path class="st1" d="M147,113.7c2.3,0,3.9,1,3.9,1l0-3.8h-5.6v-5.7c0,0-1.4,2.5-4.5,5c-1.9,1.6-5.9,3.5-5.9,3.5l4.2,0.1l0,17.4
		c0,4.8,2,4.8,2,4.8c3.6,0,6.6,0,6.6,0s-2.5-1.7-2.5-4.9l0-17.4C147.1,113.7,145.9,113.7,147,113.7"/>
	<path class="st1" d="M167.1,121.3c-3.7,3.9-6.7,3.3-8.9,6.1c0,0,0.4,3.9,3.3,5.2c1,0.5,5.1,1.8,7.8-2.9l0,4.4c0,0-1.7,1.8-7.1,1.8
		c-6.5,0-11-5.1-11-12c0-6.8,3.7-13.2,10.5-13.2C168.4,110.7,172,116.2,167.1,121.3 M163.1,119.7c1.1-2,2-7.2-1.8-6.9
		c-4.3,0.3-3.5,11.9-3.5,11.9C159.2,123.1,161.4,122.8,163.1,119.7"/>
	<path class="st1" d="M92.6,108.9c1.7,0,3.1-1.3,3.1-3c0-1.7-1.4-3.1-3.1-3.1c-1.7,0-3,1.4-3,3.1C89.5,107.5,90.8,108.9,92.6,108.9"
		/>
	<path class="st1" d="M181.8,129.2c0,1.8-1.5,4.1-4.9,4.1c-3.3,0-4.8-3.6-4.8-3.6l0,4.5c0,0,2.4,1.8,6.3,1.8c4.6,0,9.1-3.4,8.9-8.2
		c0-1.7-0.6-3.1-1.5-4.4c-1.5-2-4.3-3.5-6.6-4.8c-3-1.7-2.6-5.5,1.8-5.1c3.3,0.3,4.7,3.4,4.7,3.4v-4.2c0,0-2.5-2-6.4-2
		c-4,0-7.5,2.6-7.4,6c0.1,3,1.3,4.9,3.7,6.7c1,0.7,2.1,1.4,3.4,2.2C181,126.6,181.7,128,181.8,129.2"/>
	<path class="st1" d="M123.9,133.2c-2.1,0-3.5-1.1-3.5-3.5c0-5.7,5.1-6.8,6.5-8.5l0,10.5C126.8,131.8,125.9,133.2,123.9,133.2
		 M127.5,116.4c0,2.5-2.1,3.5-3.4,4.1c-3.9,1.7-9,3.6-9,9.4c0,3.9,2.8,6.1,6.7,6.1c3,0,4.5-1.5,5.3-3c0.5,2.8,1.9,3,1.9,3
		c3.5,0,6.6,0,6.6,0s-2.6-1.8-2.6-5.1v0v-14.1c0-3.4-3.7-6-7.7-6c-3.8,0-6.2,1.8-6.2,1.8v4.4c0,0,1.4-3.5,4.8-3.5
		C126.6,113.6,127.5,115,127.5,116.4"/>
	<path class="st1" d="M25,151.6l0,27.4h-2.2l0-29.4h8.9l0,2l-2.7,8.1c2.2,2.1,3.8,5,3,8.2c-0.3,1-1,2-1.9,2.5
		c-1.1,0.6-2.6,0.4-3.9,0.3l-0.9-2.3c1.3,0.1,3,0.8,4.1-0.2c1.1-1.6,0.5-3.6-0.3-5.1c-0.6-1.1-1.5-2.1-2.4-2.9l2.8-8.6H25z
		 M41.6,176.5c1.4,0.1,2.8,0.2,4.3,0.1c0.4-0.1,0.5-0.5,0.7-0.8l0-24.2H32.8v-2l18.8,0v2h-2.9v24.3c0,1.8-1,2.9-2.1,2.9h-4.3
		L41.6,176.5z M41.5,171.7v-2h-5.1l0,2h-2.1v-15.3h9.3v15.3H41.5z M36.4,167.7l5.1,0v-9.3l-5.1,0V167.7z"/>
	<path class="st1" d="M57.1,172.7l-1.3-2.1c0.8-0.1,1.7-0.3,2.6-0.4v-19.2h-1.9v-2H69v1.9h-2v16.8c0.8-0.2,1.1-0.4,2.1-0.6v2
		l-2.1,0.6v8.5h-2.1v-7.9L57.1,172.7z M64.9,151.1h-4.6v3.8l4.6,0V151.1z M64.9,156.9h-4.6v4.5l4.6,0V156.9z M60.3,163.3v6.4
		c1.8-0.4,2.7-0.7,4.6-1.2v-5.1L60.3,163.3z M67.4,176.6c4.4-2.8,7-7.4,7.6-12.2l-7.3,0v-1.9l7.5,0c0.1-1.5,0.1-2.9,0.1-4.5V157
		h-6.7v-2h8.4c1.5-2.3,2.7-4.7,3.6-7.2l1.9,1.1c-1,2-1.9,4.3-3.3,6.1l5.8,0v1.9l-7.6,0c0,2.6,0,3.6-0.1,5.4H86v2h-6.8
		c0.1,1.4,0.6,2.6,1.1,3.9c1.2,3.3,3.2,6.4,6.3,8.6l-1.5,1.4c-1.3-0.9-2.7-2.3-3.6-3.7c-2.2-3.1-3.6-6.5-4.1-10.3h-0.2
		c-0.8,5-2.4,10-6.9,13l-1.3,0.9L67.4,176.6z M72.6,148.1c1.2,1.7,2.3,3.5,2.8,5.6l-1.9,0.8c-0.4-2-1.3-3.8-2.6-5.4L72.6,148.1z"/>
	<path class="st1" d="M95.4,178.7l-2.3,0v-20.5h7.8l0-4h-11v-2h11.4c-0.8-1.6-2.3-2.9-3.8-3.9l1.8-1.1c1.7,1,3.1,2.5,4.1,4.2
		l-1.1,0.8l5.1,0.1c1.8-1.2,3.2-3.1,4.1-5.1l2,1.2c-0.8,1.5-1.8,2.7-2.9,3.9h10.1v2h-10.8l0,4h7.4v20.5h-2.2v-2H95.4L95.4,178.7z
		 M109.9,166.8c-1.3,0-2.3-1-2.3-2.3v-4.3H103c-0.1,2.8-1.3,5.3-3.5,7.1c-0.7,0.5-1.3,1.1-2,1.4L96,167c1-0.4,1.9-1.1,2.7-1.9
		c1.1-1.1,1.8-2.5,2-3.9l0.2-1.1h-5.5l0,14.3h19.5v-14.3h-5.2v3.6c0,0.6,0.2,1.1,1.1,1.1l3.3,0v2H109.9z M112.5,171.5l-14.6,0l0-1.9
		l14.7,0V171.5z M107.6,154.2c-1.5,0-3,0-4.5,0v3.9h4.5L107.6,154.2z"/>
	<path class="st1" d="M128.7,164.3c0,1.7-0.1,3.1-0.2,4.7c-0.4,3.6-1,6.7-3,9.4l-1.7-1.7c2.5-3.6,2.7-8,2.7-12.4H124v-2h2.5v-10.9
		h3.4c0.9-1.2,1.5-2.4,1.9-3.8l1.9,0.9c-0.4,1-1,2-1.6,2.9h5.1v22.9c0,1.2-1.1,2.9-2.6,2.9h-3.1l-0.7-2.1c1.1,0.1,2.4,0.2,3.5,0.1
		c0.5,0,0.8-0.3,0.8-0.9v-9.9H128.7z M128.6,162.3h6.3v-8.9h-6.3V162.3z M134.1,160l-1.9,1c-0.5-1.9-1.3-3.8-2.7-5.3l1.6-1.2
		C132.6,156.2,133.6,158,134.1,160 M134,170.7l-1.9,1.1c-0.5-2-1.1-3.9-2.4-5.5l1.7-1C132.7,166.8,133.5,168.7,134,170.7
		 M150.3,174.5c0.1,0.3,0.4,0.5,0.6,0.7c0.4,0.1,0.9,0,1.2-0.2c0.8-0.9,0.9-2.2,1-3.3l0.2-1.1l1.9,0.7c-0.4,1.6-0.8,3.3-1.5,4.8
		c-0.8,1.2-2.3,0.9-3.5,0.9c-0.8-0.1-1.9-0.7-2-1.9V161h-5v5.9c0,3.2-0.3,7.3-3.2,10.1c-0.5,0.5-1.1,1.1-1.7,1.5l-0.1,0l-1.6-1.6
		c1.8-1.1,3.3-2.7,3.9-4.7c0.7-2.2,0.6-4.9,0.6-7.3V159h9.3V174.5z M138.3,153.2h16v2h-16V153.2z M147.9,151.6l-1.8,1.3
		c-1-1.8-2.6-3.4-4.3-4.4l1.6-1.1c1.4,0.7,2.5,1.9,3.7,3.1L147.9,151.6z"/>
	<path class="st1" d="M187.1,176.5H159v-2h13v-5.6h-9.5v-2h21.3v2h-9.5v5.6h12.9V176.5z M162.3,159.5h-2.2v-7.3h13
		c-1.1-1.5-2.7-2.9-4.4-3.5l2.1-1.4c1.5,0.6,3.9,2.8,4.6,4.1l-1.3,0.8l12,0.1v7.3h-2.2v-5.3h-21.7V159.5z M160.9,163.8
		c3.8-2,6.5-4.7,9.1-8.5l1.6,1.4c-2.5,3.6-5.3,6.6-9.4,9L160.9,163.8z M184,165.3c-2.5-3.6-5.5-6.4-9.2-8.6l1.3-1.5
		c4,2,7.6,5.5,9.4,8.5L184,165.3z"/>
</g>
</svg>
