<?xml version="1.0" encoding="utf-8"?>
<!-- Generator: Adobe Illustrator 21.1.0, SVG Export Plug-In . SVG Version: 6.00 Build 0)  -->
<svg version="1.1" id="Layer_1" xmlns="http://www.w3.org/2000/svg" xmlns:xlink="http://www.w3.org/1999/xlink" x="0px" y="0px"
	 viewBox="0 0 326.5 60.1" style="enable-background:new 0 0 326.5 60.1;" xml:space="preserve">
<style type="text/css">
	.st0{clip-path:url(#SVGID_2_);}
</style>
<g>
	<defs>
		<rect id="SVGID_1_" y="0" width="326.5" height="60.1"/>
	</defs>
	<clipPath id="SVGID_2_">
		<use xlink:href="#SVGID_1_"  style="overflow:visible;"/>
	</clipPath>
	<path class="st0" d="M232.1,18.6c1.4-0.8,1.8-3.1,0.8-5.1c-0.9-1.9-2.8-3-4.2-2.3c-1.4,0.8-1.7,3.1-0.8,5.2
		C228.8,18.3,230.7,19.3,232.1,18.6"/>
	<path class="st0" d="M122.2,49.5c-0.1,0.1-3.1,2.3-7,2.3c-3.7,0-6.8-2.7-9.4-6.4c0.8-2.3,1.4-4.9,1.9-7.7
		c1.6-7.4,2.3-13.7,0.9-19.3c-3.8-16.7-24-6-13.1,17.3c1.9,4.1,3.8,7.7,5.8,10.7c-1.3,4.1-3,6-6.4,6c-8.8,0-12.8-16.6-15.8-16.5
		c-3,0-5.7,14.1-10.5,14c-4.6,0-5.5-15.7-8.4-15.8c-3.3,0-4.7,17.7-9,17.6c-8.7,0-3.9-23.2-16.8-23.2c-1.2,0-4.2,0.7-6.9,3.9
		c-2,2.4-4.7,6.7-5.1,13.9c-0.5,8,3,12,9.7,12c6.2,0,8.5-6.3,11.2-6.2c2.6-0.1,4.2,5.5,7.5,5.5c5.4,0.1,7.6-9.9,10-9.8
		c1.8-0.1,4.1,6.8,8.3,6.9c5.5,0,8.3-8.7,11.1-8.7c3.6,0.1,5.6,10.5,13.6,10.5c5.1,0,8.2-2.5,10.4-6.5c3.1,3.4,6.7,5.3,11.3,5.3
		c4.6,0,7.6-1.9,8.7-3C125.2,51,123.7,48.9,122.2,49.5 M32.5,53.7c-5.3,0-5.2-6.5-4.8-9c0.6-5.8,2.5-12.2,7.5-12.2
		c3,0,5.5,4.1,5.5,12C40.7,49.5,36.6,53.7,32.5,53.7 M98.2,31.1c-1.7-3.5-2.9-9.6-1.7-13.3c1.9-6.1,7.5-7,8.1,2.5
		c0.3,3.7-0.1,12.6-1.1,17c-0.2,1.2-0.4,2.2-0.7,3.2C101.2,37.4,99.7,34.1,98.2,31.1"/>
	<path class="st0" d="M21.3,0.7C13.3-3.5-2.8,11,0.4,40.5c0.7,6.3,1.8,14.1,4.5,18.3c1.3,2.1,5.4,1.2,4.8-0.6
		c-1.3-4.1-2-12.7-3-19.5c3-1.8,7-4.8,9.6-6.7C29.2,21.6,28.6,4.5,21.3,0.7 M6.2,34.9C3.5,14.4,12.1,0.5,19.9,3.8
		C26.5,6.7,21.9,25.7,6.2,34.9"/>
	<path class="st0" d="M170.6,21.5c2.6,0.1,4.4-2.4,4.4-3.9c0-3.3-7.4-9.8-15.4-9.8c-6,0.1-10.2,4.3-9.4,8.9c0.4,2.6,1.9,4.7,3.3,6.4
		c2,2.4,6.1,7.5,7.9,9.7c2,2.1,9,10.5,9.1,15.1c-0.1,4.7-4.5,5-5.1,5c-4.4,0-7.5-2.4-12.6-6.6c-3-2.4-3.9-0.6-3.1,0.8
		c2.5,4.2,10.8,10.3,17.3,10.3c6.8,0,8-5.2,8-7.5c0.1-9.2-10.7-20.4-15-25.6c-5-5.9-5.4-6.9-5.5-8.7c0-1.4,1.3-3.8,4.4-3.9
		c4.2,0.1,11.6,4.1,11.5,6.5c0,1.6-1.6,1.5-1.6,2.5C168.7,21.3,170,21.5,170.6,21.5"/>
	<path class="st0" d="M289.3,43.9c2.4-2.1,5-4.3,7.3-4.4c2.4,0,3.1,2.3,10.3,9.7c5.5,5.4,7.1,7.5,10,7.5c3.1,0,6.3-1.1,7.5-1.4
		c2.5-0.5,2.4,1.1,1.7,2c-0.4,0.7-0.6,0.8-1.7,1.1c-1.2,0.4-5.6,1.8-7.5,1.7c-6,0-6.8-2.2-13.4-9c-2.9-3.1-5.5-5.8-7.3-5.8
		c-2.2,0-4.1,1.5-6.2,3.6c-2.4,2-4.4,5.2-5.1,6.4c-0.6,1.4-1.6,1.9-2.3,1.9c-1.8,0.1-3.1-2.8-5.1-2.8c-2.9,0-4,5.5-8.9,5.5
		c-4.4,0-7.4-5-9.8-9.7c-0.3-0.4-0.6-0.5-1.2,0c-1.9,1.9-6.8,7.5-10.9,7.5c-4.7,0-9.5-11.4-12.5-11.4c-3.2,0-5.5,11.4-9.4,11.4
		c-3.4,0.1-8.8-14.6-12.3-14.5c-3.3-0.1-6.6,13.5-10.5,13.6c-2.9,0-6.5-11.5-9.5-11.5c-3.2,0-5.3,11.1-7.8,11.1
		c-2.1,0-2.9-9.3-3.6-11.9c-0.4-2-1-3.6-1.1-5.1c0.1-1,0.1-2.1,1.2-2c2.1,0,2.6,4.5,4.8,4.5c2.4,0,3.7-7,5.6-7
		c2.8,0,6,12.8,9.7,12.8c4.4,0,6.8-13,9.8-12.9c4.7-0.1,8.7,15,12.8,15c4.1,0,6.9-14.3,9-14.3c3.2,0,7.9,17.5,14,17.5
		c1.1,0,9-3.8,8.9-16.2c0.1-4.4-1.6-15.6-1.6-17c0-1.6,0.2-2.9,1.6-2.8c1.7-0.1,3.4,1.9,4.4,5.1c0.3,1.4,0.3,2.2,3.4,1.9
		c1.2-0.2,3.3-0.8,4.1-0.8c2.2,0,2.7,1.8,2.7,2.3c0.1,1.6-1.7,2.1-3.3,2.3c-5,1-6.4,2-6.4,5.1c0,4.3,2.4,20.7,7.9,20.6
		c6.1,0.1,5.4-16.6,5.3-20.3c0.1-4.2-0.4-6.8-0.5-7.8c0.1-1.2,0.3-4.5,2-4.5c3.7,0.1,3.6,9,3.6,15.4c0,8.8-0.2,12.9,3.3,12.9
		C284.4,49.1,286.5,46.3,289.3,43.9"/>
</g>
</svg>
