<?xml version="1.0" encoding="utf-8"?>
<!-- Generator: Adobe Illustrator 21.1.0, SVG Export Plug-In . SVG Version: 6.00 Build 0)  -->
<svg version="1.1" id="Layer_1" xmlns="http://www.w3.org/2000/svg" xmlns:xlink="http://www.w3.org/1999/xlink" x="0px" y="0px"
	 viewBox="0 0 118.7 94.2" style="enable-background:new 0 0 118.7 94.2;" xml:space="preserve">
<style type="text/css">
	.st0{clip-path:url(#SVGID_2_);}
</style>
<g>
	<defs>
		<rect id="SVGID_1_" y="0" width="118.7" height="94.2"/>
	</defs>
	<clipPath id="SVGID_2_">
		<use xlink:href="#SVGID_1_"  style="overflow:visible;"/>
	</clipPath>
	<path class="st0" d="M64.6,1c0.2,0,0.5-0.1,0.6-0.2l0.1-0.4c0.2,0,0.6,0,0.7,0.2c-0.1,1.5-0.3,3-0.4,4.5l-0.7,0
		c0.2-1.1,0-2.3-0.7-3.2c-0.7-0.7-1.6-1.3-2.6-1.1c-0.5,0.1-0.8,0.5-1,1c-0.2,0.7,0.1,1.3,0.4,1.8c1.4,1.3,3.5,1,4.7,2.5
		c0.8,1,1.1,2.6,0.4,3.8c-0.4,0.9-1.2,1.4-2.1,1.8c-1.7,0.8-3.9,0.7-5.5-0.3c-0.4-0.1-0.9-0.1-1.2,0.2c0,0.1-0.2,0.2-0.1,0.3
		c-0.2,0-0.4,0-0.7,0c0.1-1.7,0.3-3.3,0.4-5c0.2-0.1,0.4,0,0.6,0c0.2,1.9,1,4.1,3,4.6c0.8,0.2,1.7,0,2.2-0.6
		c0.4-0.4,0.5-1.1,0.3-1.7c-0.7-1.3-2.3-1.5-3.6-2.1c-1.3-0.5-2.2-2-2.2-3.5c0.1-1.7,1.5-3.1,3-3.6C61.9-0.3,63.5,0.1,64.6,1"/>
	<path class="st0" d="M64.6,1c0.2,0,0.5-0.1,0.6-0.2l0.1-0.4c0.2,0,0.6,0,0.7,0.2c-0.1,1.5-0.3,3-0.4,4.5l-0.7,0
		c0.2-1.1,0-2.3-0.7-3.2c-0.7-0.7-1.6-1.3-2.6-1.1c-0.5,0.1-0.8,0.5-1,1c-0.2,0.7,0.1,1.3,0.4,1.8c1.4,1.3,3.5,1,4.7,2.5
		c0.8,1,1.1,2.6,0.4,3.8c-0.4,0.9-1.2,1.4-2.1,1.8c-1.7,0.8-3.9,0.7-5.5-0.3c-0.4-0.1-0.9-0.1-1.2,0.2c0,0.1-0.2,0.2-0.1,0.3
		c-0.2,0-0.4,0-0.7,0c0.1-1.7,0.3-3.3,0.4-5c0.2-0.1,0.4,0,0.6,0c0.2,1.9,1,4.1,3,4.6c0.8,0.2,1.7,0,2.2-0.6
		c0.4-0.4,0.5-1.1,0.3-1.7c-0.7-1.3-2.3-1.5-3.6-2.1c-1.3-0.5-2.2-2-2.2-3.5c0.1-1.7,1.5-3.1,3-3.6C61.9-0.3,63.5,0.1,64.6,1"/>
	<path class="st0" d="M75.3,1.7c0,0.3-0.1,0.6-0.2,0.8c-0.4-0.1-1,0-1.3,0.3c-0.4,0.4-0.3,1.1-0.6,1.6l-0.8,3.1
		c1,0.5,2.2,0.4,3.3,0.8L76.1,8c0.3-1.4,0.7-2.7,0.9-4.1c0-0.5-0.5-0.9-0.9-1.1c-0.1,0-0.2,0-0.2-0.1l0.2-0.8c2,0.5,4,1,5.9,1.7
		c0.1,0.2,0,0.5-0.2,0.6c-0.5-0.1-0.9,0.1-1.2,0.3l-0.3,0.5c-0.7,2.8-1.4,5.6-2,8.5c-0.1,0.6,0.4,0.9,0.8,1.1c0.1,0,0.2,0,0.2,0.1
		c0,0.3-0.1,0.6-0.2,0.8c-1.9-0.6-3.8-1.3-5.8-1.8l0.2-0.6c0.6,0.1,1.1,0,1.4-0.5c0.3-1.2,0.6-2.4,0.9-3.6c-1.1-0.4-2.2-0.5-3.3-0.8
		l-0.1,0l-0.8,3.3c0.1,0.3,0.1,0.6,0.3,0.9c0.2,0.2,0.5,0.3,0.7,0.4l-0.1,0.7c-1.9-0.4-3.9-0.8-5.9-1.1c0-0.3,0.1-0.5,0.1-0.8
		c0.5,0,1.1,0,1.3-0.5c0.8-2.9,1.5-5.9,2.1-8.9c0-0.3-0.2-0.6-0.3-0.8c-0.2-0.3-1-0.2-0.7-0.7c0-0.1,0-0.2,0.1-0.3
		C71.4,0.9,73.4,1.3,75.3,1.7"/>
	<path class="st0" d="M75.3,1.7c0,0.3-0.1,0.6-0.2,0.8c-0.4-0.1-1,0-1.3,0.3c-0.4,0.4-0.3,1.1-0.6,1.6l-0.8,3.1
		c1,0.5,2.2,0.4,3.3,0.8L76.1,8c0.3-1.4,0.7-2.7,0.9-4.1c0-0.5-0.5-0.9-0.9-1.1c-0.1,0-0.2,0-0.2-0.1l0.2-0.8c2,0.5,4,1,5.9,1.7
		c0.1,0.2,0,0.5-0.2,0.6c-0.5-0.1-0.9,0.1-1.2,0.3l-0.3,0.5c-0.7,2.8-1.4,5.6-2,8.5c-0.1,0.6,0.4,0.9,0.8,1.1c0.1,0,0.2,0,0.2,0.1
		c0,0.3-0.1,0.6-0.2,0.8c-1.9-0.6-3.8-1.3-5.8-1.8l0.2-0.6c0.6,0.1,1.1,0,1.4-0.5c0.3-1.2,0.6-2.4,0.9-3.6c-1.1-0.4-2.2-0.5-3.3-0.8
		l-0.1,0l-0.8,3.3c0.1,0.3,0.1,0.6,0.3,0.9c0.2,0.2,0.5,0.3,0.7,0.4l-0.1,0.7c-1.9-0.4-3.9-0.8-5.9-1.1c0-0.3,0.1-0.5,0.1-0.8
		c0.5,0,1.1,0,1.3-0.5c0.8-2.9,1.5-5.9,2.1-8.9c0-0.3-0.2-0.6-0.3-0.8c-0.2-0.3-1-0.2-0.7-0.7c0-0.1,0-0.2,0.1-0.3
		C71.4,0.9,73.4,1.3,75.3,1.7"/>
	<path class="st0" d="M30.2,7.2c-0.3,0.2-0.6,0.5-0.6,0.9l0,0.3c1.3,2.7,2.6,5.5,4,8.2c0.2,0.2,0.5,0.4,0.8,0.4c0.5,0,0.8-0.6,1.2-1
		c0.7-1.1,0.9-2.8,0.4-4l0.6-0.3c0.7,1.4,1.4,2.9,2.1,4.3c-2.9,1.3-5.9,2.7-8.6,4.4c-0.2-0.3-0.5-0.6-0.4-0.9
		c0.4-0.2,0.6-0.5,0.7-0.8c0-0.8-0.6-1.4-0.8-2.1c-1-2.2-2.1-4.3-3.2-6.4c-0.4-0.3-1-0.4-1.5-0.2l-0.3-0.6c1.7-1,3.5-2,5.3-2.9
		C30.1,6.6,30.6,7,30.2,7.2"/>
	<path class="st0" d="M30.2,7.2c-0.3,0.2-0.6,0.5-0.6,0.9l0,0.3c1.3,2.7,2.6,5.5,4,8.2c0.2,0.2,0.5,0.4,0.8,0.4c0.5,0,0.8-0.6,1.2-1
		c0.7-1.1,0.9-2.8,0.4-4l0.6-0.3c0.7,1.4,1.4,2.9,2.1,4.3c-2.9,1.3-5.9,2.7-8.6,4.4c-0.2-0.3-0.5-0.6-0.4-0.9
		c0.4-0.2,0.6-0.5,0.7-0.8c0-0.8-0.6-1.4-0.8-2.1c-1-2.2-2.1-4.3-3.2-6.4c-0.4-0.3-1-0.4-1.5-0.2l-0.3-0.6c1.7-1,3.5-2,5.3-2.9
		C30.1,6.6,30.6,7,30.2,7.2"/>
	<path class="st0" d="M47.8,2.1c0.3,0.5,0.5,1.3,0.1,1.8c-0.4,0.8-1.1,1.4-1.7,2c0.6,0.7,1.1,1.3,1.9,1.8c0.3-1.4,0.7-3,2-3.7
		c0.6-0.3,1.4-0.2,1.9,0.2c0.6,0.5,0.9,1.3,0.7,2.1c-0.2,0.5-0.6,1-1.1,1.2c-0.7,0.3-1.5,0.1-2-0.4c-0.3-0.2-0.3-0.5-0.5-0.7
		c-0.2,0.6-0.4,1.1-0.4,1.8c0.9,0.7,1.9,1.4,3.2,1.3c0.6-0.1,1.1-0.6,1.3-1.2c0.4,1,0.2,2.1-0.4,3c-0.7,0.8-1.6,1.5-2.8,1.3
		c-0.9-0.1-1.7-0.6-2.5-1C47,13,45.7,14,44.1,14c-1.4,0-2.6-0.9-3.1-2.1c-0.4-0.9-0.2-2.3,0.4-3.1c0.4-0.7,1.1-1,1.7-1.5
		c-0.4-0.7-1.1-1.4-1.1-2.3c-0.1-1.3,0.5-2.6,1.6-3.3C44.8,0.9,46.9,0.9,47.8,2.1 M44.1,2.4c0,0.2,0,0.4,0,0.5
		c0.4,0.8,1,1.7,1.6,2.3C46,5.2,46,5.1,46.2,5c0.4-1-0.7-1.6-1-2.4C44.9,2.3,44.4,2,44.1,2.4 M43,8.3c-0.2,1.1,0.7,1.8,1.3,2.4
		c0.6,0.5,1.3,1.3,2.2,1.3c0.3-0.2,0.4-0.5,0.5-0.8c-1.3-0.9-2.5-1.9-3.5-3.3C43.3,7.9,43.1,8.2,43,8.3"/>
	<path class="st0" d="M47.8,2.1c0.3,0.5,0.5,1.3,0.1,1.8c-0.4,0.8-1.1,1.4-1.7,2c0.6,0.7,1.1,1.3,1.9,1.8c0.3-1.4,0.7-3,2-3.7
		c0.6-0.3,1.4-0.2,1.9,0.2c0.6,0.5,0.9,1.3,0.7,2.1c-0.2,0.5-0.6,1-1.1,1.2c-0.7,0.3-1.5,0.1-2-0.4c-0.3-0.2-0.3-0.5-0.5-0.7
		c-0.2,0.6-0.4,1.1-0.4,1.8c0.9,0.7,1.9,1.4,3.2,1.3c0.6-0.1,1.1-0.6,1.3-1.2c0.4,1,0.2,2.1-0.4,3c-0.7,0.8-1.6,1.5-2.8,1.3
		c-0.9-0.1-1.7-0.6-2.5-1C47,13,45.7,14,44.1,14c-1.4,0-2.6-0.9-3.1-2.1c-0.4-0.9-0.2-2.3,0.4-3.1c0.4-0.7,1.1-1,1.7-1.5
		c-0.4-0.7-1.1-1.4-1.1-2.3c-0.1-1.3,0.5-2.6,1.6-3.3C44.8,0.9,46.9,0.9,47.8,2.1 M44.1,2.4c0,0.2,0,0.4,0,0.5
		c0.4,0.8,1,1.7,1.6,2.3C46,5.2,46,5.1,46.2,5c0.4-1-0.7-1.6-1-2.4C44.9,2.3,44.4,2,44.1,2.4 M43,8.3c-0.2,1.1,0.7,1.8,1.3,2.4
		c0.6,0.5,1.3,1.3,2.2,1.3c0.3-0.2,0.4-0.5,0.5-0.8c-1.3-0.9-2.5-1.9-3.5-3.3C43.3,7.9,43.1,8.2,43,8.3"/>
	<path class="st0" d="M92.9,8.3c-0.6,3.9-1.4,7.7-2,11.5c0.1,0.5,0.5,0.9,0.8,1.1c-0.1,0.3-0.2,0.5-0.4,0.7
		c-1.7-1.1-3.5-2.1-5.3-3.1c0-0.2,0.2-0.4,0.3-0.6c0.4,0.2,0.8,0.4,1.2,0.2l0.1-0.2l0.5-3.1c-0.8-0.5-1.7-0.9-2.6-1.4h-0.1
		c-0.6,0.9-2.5,1.7-1.5,3.1c0.2,0.2,0.5,0.3,0.7,0.5c-0.2,0.2-0.1,0.8-0.5,0.5l-3.4-1.5c0-0.2,0.2-0.5,0.3-0.8
		c1.8,0.9,2.4-1.3,3.5-2.1c2-2,4-4.2,6-6.2C91.4,7.3,92.2,7.8,92.9,8.3 M88.9,9.9l-2.9,2.9v0.1c0.7,0.4,1.5,0.8,2.2,1.1
		C88.5,12.6,88.8,11.3,88.9,9.9"/>
	<path class="st0" d="M92.9,8.3c-0.6,3.9-1.4,7.7-2,11.5c0.1,0.5,0.5,0.9,0.8,1.1c-0.1,0.3-0.2,0.5-0.4,0.7
		c-1.7-1.1-3.5-2.1-5.3-3.1c0-0.2,0.2-0.4,0.3-0.6c0.4,0.2,0.8,0.4,1.2,0.2l0.1-0.2l0.5-3.1c-0.8-0.5-1.7-0.9-2.6-1.4h-0.1
		c-0.6,0.9-2.5,1.7-1.5,3.1c0.2,0.2,0.5,0.3,0.7,0.5c-0.2,0.2-0.1,0.8-0.5,0.5l-3.4-1.5c0-0.2,0.2-0.5,0.3-0.8
		c1.8,0.9,2.4-1.3,3.5-2.1c2-2,4-4.2,6-6.2C91.4,7.3,92.2,7.8,92.9,8.3 M88.9,9.9l-2.9,2.9v0.1c0.7,0.4,1.5,0.8,2.2,1.1
		C88.5,12.6,88.8,11.3,88.9,9.9"/>
	<path class="st0" d="M23.3,10.8c-0.4,0.3-0.6,0.8-0.4,1.3c0.5,0.8,1.2,1.4,1.7,2.3l3.4,4.3c0.5,0.9,0.5,2.2-0.1,3.1
		c-1.4,1.4-2.9,2.7-5.1,2.5c-0.7-0.1-1.3-0.4-1.7-1c-1.5-1.9-3.1-3.9-4.6-5.8c-0.3-0.2-0.7-0.3-1-0.2l-0.5,0.2
		c-0.1-0.2-0.6-0.4-0.3-0.6c1.5-1.3,3-2.6,4.4-3.8c0.3,0.1,0.4,0.4,0.6,0.6c0,0.2-0.2,0.2-0.3,0.4c-0.6,1,0.4,1.7,0.9,2.4
		c1.2,1.6,2.8,3.6,4.1,5.2c0.6,0.4,1.3,0.6,2,0.3c0.6-0.2,1.1-0.8,1.3-1.4c0.2-0.4,0-1-0.1-1.4c-1.7-2.3-3.3-4.2-5.1-6.5
		c-0.3-0.2-0.6-0.3-1-0.2c-0.3,0-0.4,0.2-0.7,0.2c-0.2-0.2-0.3-0.4-0.5-0.6c0.8-0.7,1.7-1.3,2.6-1.9C23,10.4,23.2,10.6,23.3,10.8"/>
	<path class="st0" d="M23.3,10.8c-0.4,0.3-0.6,0.8-0.4,1.3c0.5,0.8,1.2,1.4,1.7,2.3l3.4,4.3c0.5,0.9,0.5,2.2-0.1,3.1
		c-1.4,1.4-2.9,2.7-5.1,2.5c-0.7-0.1-1.3-0.4-1.7-1c-1.5-1.9-3.1-3.9-4.6-5.8c-0.3-0.2-0.7-0.3-1-0.2l-0.5,0.2
		c-0.1-0.2-0.6-0.4-0.3-0.6c1.5-1.3,3-2.6,4.4-3.8c0.3,0.1,0.4,0.4,0.6,0.6c0,0.2-0.2,0.2-0.3,0.4c-0.6,1,0.4,1.7,0.9,2.4
		c1.2,1.6,2.8,3.6,4.1,5.2c0.6,0.4,1.3,0.6,2,0.3c0.6-0.2,1.1-0.8,1.3-1.4c0.2-0.4,0-1-0.1-1.4c-1.7-2.3-3.3-4.2-5.1-6.5
		c-0.3-0.2-0.6-0.3-1-0.2c-0.3,0-0.4,0.2-0.7,0.2c-0.2-0.2-0.3-0.4-0.5-0.6c0.8-0.7,1.7-1.3,2.6-1.9C23,10.4,23.2,10.6,23.3,10.8"/>
	<path class="st0" d="M105,16.5c1.5,1.2,2.8,3.3,2.1,5.3c-0.6,1.1-1.8,1.4-3,1.3c-0.4,0-0.8-0.2-1.2-0.3c0.3,1,0.9,2.1,0.4,3.2
		c-0.4,1-1.3,1.5-1.9,2.3c-0.1,0.1,0,0.2,0.1,0.2c0.8,0,1.4-0.5,1.9-1c0.2,0.1,0.4,0.3,0.4,0.5c-0.7,0.8-1.7,1.4-2.9,1.1
		c-0.8-0.2-1.4-0.7-1.9-1.3c-0.4-0.6-0.4-1.5,0-2.1c0.8-1,1.9-1.7,2.5-2.8c0.1-0.3,0.1-0.7,0-1c-0.2-0.4-0.7-0.7-1-1
		c-1.1,1-2.1,2.2-3,3.3c-0.2,0.6,0.1,1.1,0.4,1.4c-0.2,0.2-0.2,0.4-0.5,0.6c-1.5-1.3-3.1-2.5-4.7-3.8c0.1-0.3,0.4-0.5,0.6-0.7
		c0.2,0.2,0.5,0.3,0.8,0.4l0.6-0.2l6.1-6.7c0.1-0.3,0.2-0.8,0-1.1l-0.4-0.5c0.1-0.2,0.5-0.7,0.8-0.3L105,16.5z M104.1,16.8
		c-1.1,1.1-2.1,2.3-3.1,3.5c0.2,0.2,0.6,0.4,0.8,0.7c0.5,0.3,1.2,0.1,1.6-0.2c0.7-0.7,1.6-1.5,1.7-2.6
		C105.1,17.5,104.5,17.2,104.1,16.8"/>
	<path class="st0" d="M105,16.5c1.5,1.2,2.8,3.3,2.1,5.3c-0.6,1.1-1.8,1.4-3,1.3c-0.4,0-0.8-0.2-1.2-0.3c0.3,1,0.9,2.1,0.4,3.2
		c-0.4,1-1.3,1.5-1.9,2.3c-0.1,0.1,0,0.2,0.1,0.2c0.8,0,1.4-0.5,1.9-1c0.2,0.1,0.4,0.3,0.4,0.5c-0.7,0.8-1.7,1.4-2.9,1.1
		c-0.8-0.2-1.4-0.7-1.9-1.3c-0.4-0.6-0.4-1.5,0-2.1c0.8-1,1.9-1.7,2.5-2.8c0.1-0.3,0.1-0.7,0-1c-0.2-0.4-0.7-0.7-1-1
		c-1.1,1-2.1,2.2-3,3.3c-0.2,0.6,0.1,1.1,0.4,1.4c-0.2,0.2-0.2,0.4-0.5,0.6c-1.5-1.3-3.1-2.5-4.7-3.8c0.1-0.3,0.4-0.5,0.6-0.7
		c0.2,0.2,0.5,0.3,0.8,0.4l0.6-0.2l6.1-6.7c0.1-0.3,0.2-0.8,0-1.1l-0.4-0.5c0.1-0.2,0.5-0.7,0.8-0.3L105,16.5z M104.1,16.8
		c-1.1,1.1-2.1,2.3-3.1,3.5c0.2,0.2,0.6,0.4,0.8,0.7c0.5,0.3,1.2,0.1,1.6-0.2c0.7-0.7,1.6-1.5,1.7-2.6
		C105.1,17.5,104.5,17.2,104.1,16.8"/>
	<path class="st0" d="M112.5,24c1.1,1.2,2,2.6,3,4l-0.7,0.5c-0.4-0.3-0.7-0.7-1.1-0.6l-0.4,0.1c-1,0.8-2.2,1.5-3.2,2.3l0.2,0.1
		l4.6,0.8c0.3-0.1,0.5-0.3,0.7-0.6c0.2-0.4,0.1-0.9-0.1-1.3c0.2-0.2,0.4-0.4,0.7-0.4c0.9,1.3,1.7,2.7,2.5,4.1
		c-0.1,0.2-0.3,0.3-0.6,0.4c-1.2-1.7-3.5-1.4-5.4-1.9c-1,2.3-2.2,4.4-3.2,6.7c-0.2,0.6,0,1.3,0.2,1.9c-0.2,0.2-0.4,0.4-0.7,0.5
		c-1-1.8-2.1-3.4-3.2-5.1c0.3-0.2,0.6-0.6,1-0.3c0.7-0.3,0.8-1.2,1.2-1.8c0.3-0.8,0.7-1.5,1-2.2c-1,0.6-2.1,1.3-2.9,2.2
		c-0.2,0.3-0.2,0.8,0,1.1c-0.2,0.2-0.5,0.3-0.7,0.5c-1.2-1.5-2.4-3-3.5-4.5l0.6-0.5c0.3,0.4,0.8,0.6,1.3,0.5l0.6-0.4l7-5
		c0.2-0.3,0.4-0.9,0.2-1.3c0-0.1-0.3-0.3-0.1-0.4C112,22.6,112.1,23.8,112.5,24"/>
	<path class="st0" d="M112.5,24c1.1,1.2,2,2.6,3,4l-0.7,0.5c-0.4-0.3-0.7-0.7-1.1-0.6l-0.4,0.1c-1,0.8-2.2,1.5-3.2,2.3l0.2,0.1
		l4.6,0.8c0.3-0.1,0.5-0.3,0.7-0.6c0.2-0.4,0.1-0.9-0.1-1.3c0.2-0.2,0.4-0.4,0.7-0.4c0.9,1.3,1.7,2.7,2.5,4.1
		c-0.1,0.2-0.3,0.3-0.6,0.4c-1.2-1.7-3.5-1.4-5.4-1.9c-1,2.3-2.2,4.4-3.2,6.7c-0.2,0.6,0,1.3,0.2,1.9c-0.2,0.2-0.4,0.4-0.7,0.5
		c-1-1.8-2.1-3.4-3.2-5.1c0.3-0.2,0.6-0.6,1-0.3c0.7-0.3,0.8-1.2,1.2-1.8c0.3-0.8,0.7-1.5,1-2.2c-1,0.6-2.1,1.3-2.9,2.2
		c-0.2,0.3-0.2,0.8,0,1.1c-0.2,0.2-0.5,0.3-0.7,0.5c-1.2-1.5-2.4-3-3.5-4.5l0.6-0.5c0.3,0.4,0.8,0.6,1.3,0.5l0.6-0.4l7-5
		c0.2-0.3,0.4-0.9,0.2-1.3c0-0.1-0.3-0.3-0.1-0.4C112,22.6,112.1,23.8,112.5,24"/>
	<path class="st0" d="M20.8,25.8c0.6,0.2,1.1-0.9,1.5-0.2l0.2,0.3c-1.5,1.4-3,2.9-4.3,4.3c-0.2-0.1-0.4-0.3-0.6-0.5
		c0.2-0.3,0.7-0.8,0.4-1.2c-0.8-0.6-1.8-1-2.7-1.4c-0.8,0.6-1.5,1.5-2.2,2.2c0.4,0.8,0.8,1.6,1.4,2.3c0.4,0.3,0.9,0.3,1.3,0.1
		c0.3-0.1,0.6-0.7,0.8-0.3l0.3,0.3c-0.8,1-1.7,2.1-2.4,3.1c-0.3-0.1-0.5-0.3-0.7-0.6c1.1-1.2-0.1-2.6-0.7-3.6
		c-1.5-2.7-3-5.2-4.6-7.8c0.6-0.7,1.2-1.3,1.7-1.9C13.7,22.5,17.2,24.2,20.8,25.8 M10.7,25.1c0.7,1.2,1.3,2.5,2.1,3.6
		c0.6-0.6,1.2-1.3,1.7-1.9L10.7,25.1z"/>
	<path class="st0" d="M20.8,25.8c0.6,0.2,1.1-0.9,1.5-0.2l0.2,0.3c-1.5,1.4-3,2.9-4.3,4.3c-0.2-0.1-0.4-0.3-0.6-0.5
		c0.2-0.3,0.7-0.8,0.4-1.2c-0.8-0.6-1.8-1-2.7-1.4c-0.8,0.6-1.5,1.5-2.2,2.2c0.4,0.8,0.8,1.6,1.4,2.3c0.4,0.3,0.9,0.3,1.3,0.1
		c0.3-0.1,0.6-0.7,0.8-0.3l0.3,0.3c-0.8,1-1.7,2.1-2.4,3.1c-0.3-0.1-0.5-0.3-0.7-0.6c1.1-1.2-0.1-2.6-0.7-3.6
		c-1.5-2.7-3-5.2-4.6-7.8c0.6-0.7,1.2-1.3,1.7-1.9C13.7,22.5,17.2,24.2,20.8,25.8 M10.7,25.1c0.7,1.2,1.3,2.5,2.1,3.6
		c0.6-0.6,1.2-1.3,1.7-1.9L10.7,25.1z"/>
	<path class="st0" d="M9.6,29.1c0.6,0.9,0.7,2.2,0.4,3.3c-0.3,0.7-0.8,1.4-1.2,2.1c0.8,0.7,1.7,1.2,2.7,1.8c0.5,0.1,1.1-0.2,1.4-0.6
		c0.3,0.1,0.4,0.2,0.7,0.4c-1,1.7-2.3,3.4-3.2,5.1c-0.3-0.1-0.5-0.2-0.7-0.4c0.2-0.4,0.3-1,0-1.4c-2.6-1.7-5.1-3.3-7.7-5
		c-0.5-0.2-1,0-1.4,0.4c0,0,0,0.2-0.1,0.2c-0.2,0-0.3-0.2-0.5-0.3c1.1-2.1,2.4-4.1,3.9-6c0.9-0.9,2.1-1.4,3.4-1.2
		C8.2,27.8,9,28.2,9.6,29.1 M4.1,30.1c-0.4,0.1-0.7,0.5-0.8,0.8c1.6,1,3.2,2.1,4.9,3.1l0.4-0.5C8.7,33,8.3,32.4,7.8,32
		C6.6,31.3,5.7,30.1,4.1,30.1"/>
	<path class="st0" d="M9.6,29.1c0.6,0.9,0.7,2.2,0.4,3.3c-0.3,0.7-0.8,1.4-1.2,2.1c0.8,0.7,1.7,1.2,2.7,1.8c0.5,0.1,1.1-0.2,1.4-0.6
		c0.3,0.1,0.4,0.2,0.7,0.4c-1,1.7-2.3,3.4-3.2,5.1c-0.3-0.1-0.5-0.2-0.7-0.4c0.2-0.4,0.3-1,0-1.4c-2.6-1.7-5.1-3.3-7.7-5
		c-0.5-0.2-1,0-1.4,0.4c0,0,0,0.2-0.1,0.2c-0.2,0-0.3-0.2-0.5-0.3c1.1-2.1,2.4-4.1,3.9-6c0.9-0.9,2.1-1.4,3.4-1.2
		C8.2,27.8,9,28.2,9.6,29.1 M4.1,30.1c-0.4,0.1-0.7,0.5-0.8,0.8c1.6,1,3.2,2.1,4.9,3.1l0.4-0.5C8.7,33,8.3,32.4,7.8,32
		C6.6,31.3,5.7,30.1,4.1,30.1"/>
	<path class="st0" d="M68.6,61.5c0.5,1.9-0.7,3.4-1.7,4.8c-2.4,3.1-5.6,5.4-8.9,7.3c-0.1,0.3-0.4,0.6-0.5,1c1.2-0.5,2.9-1.6,4.3-0.6
		c0.8,0.5,1.1,1.5,0.9,2.5c-1.1,2.1-2.2,4.2-3.5,6.2c-0.1,0.1-0.1,0.3,0,0.4c0.1,0.2,0.2,0.3,0.5,0.3c0.5-0.2,0.8-0.4,1.3-0.8h1.2
		c-0.4,0.7-1,1.2-1.7,1.6c-0.8,0.5-2.1,0.5-2.9-0.1c-0.9-0.6-1.4-1.7-1.1-2.9l0.2-0.6l3-5.2c0-0.2-0.2-0.3-0.3-0.3l-3,1.5
		c-0.4,0.5-0.7,1.1-1,1.7c-1.3,2.1-2.6,4.2-3.9,6.3c-1.2,0.1-2.7,0-3.8,0c1.7-2.9,3.7-5.8,5.4-8.8c-0.5,0.1-1.1,0.3-1.6,0.4V75
		c0.9-0.4,1.9-0.6,2.8-1c2.7-4.5,5.4-9.4,10-12.2c1.1-0.6,2.2-1.2,3.6-1C68.2,60.9,68.5,61.2,68.6,61.5 M67.4,61.9
		c-1.9,0.8-3.4,2.5-4.6,4.1c-1.1,1.8-2.3,3.7-3.3,5.4c0.8-0.5,1.7-1.1,2.5-1.7c2.3-2.1,5.3-4.2,5.7-7.6C67.7,62,67.6,61.8,67.4,61.9
		"/>
	<path class="st0" d="M68.6,61.5c0.5,1.9-0.7,3.4-1.7,4.8c-2.4,3.1-5.6,5.4-8.9,7.3c-0.1,0.3-0.4,0.6-0.5,1c1.2-0.5,2.9-1.6,4.3-0.6
		c0.8,0.5,1.1,1.5,0.9,2.5c-1.1,2.1-2.2,4.2-3.5,6.2c-0.1,0.1-0.1,0.3,0,0.4c0.1,0.2,0.2,0.3,0.5,0.3c0.5-0.2,0.8-0.4,1.3-0.8h1.2
		c-0.4,0.7-1,1.2-1.7,1.6c-0.8,0.5-2.1,0.5-2.9-0.1c-0.9-0.6-1.4-1.7-1.1-2.9l0.2-0.6l3-5.2c0-0.2-0.2-0.3-0.3-0.3l-3,1.5
		c-0.4,0.5-0.7,1.1-1,1.7c-1.3,2.1-2.6,4.2-3.9,6.3c-1.2,0.1-2.7,0-3.8,0c1.7-2.9,3.7-5.8,5.4-8.8c-0.5,0.1-1.1,0.3-1.6,0.4V75
		c0.9-0.4,1.9-0.6,2.8-1c2.7-4.5,5.4-9.4,10-12.2c1.1-0.6,2.2-1.2,3.6-1C68.2,60.9,68.5,61.2,68.6,61.5 M67.4,61.9
		c-1.9,0.8-3.4,2.5-4.6,4.1c-1.1,1.8-2.3,3.7-3.3,5.4c0.8-0.5,1.7-1.1,2.5-1.7c2.3-2.1,5.3-4.2,5.7-7.6C67.7,62,67.6,61.8,67.4,61.9
		"/>
	<path class="st0" d="M77.9,62.5c-0.7,1.3-1.5,2.6-2.3,3.9c2,0.1,3.8-0.1,6,0.1l-0.8,1.3L74.6,68c-3.1,4.9-5.9,9.9-9,14.8
		c-0.1,0.3,0.1,0.5,0.3,0.6c0.6,0,1-0.5,1.4-0.8h1.3c-0.2,0.5-0.7,0.8-1.1,1.2c-0.6,0.6-1.6,0.9-2.6,0.7c-1-0.3-1.9-1.2-2-2.3
		c-0.1-0.6,0.1-1.2,0.3-1.7c2.7-4.1,5.2-8.4,7.7-12.5c-0.3-0.1-0.5,0-0.8,0L70,67.9c-0.8,0-1.6,0.1-2.5,0c0.2-0.5,0.5-0.9,0.8-1.4
		c1-0.1,2.5,0,3.5-0.1c0.8-1.3,1.6-2.7,2.5-4C75.5,62.5,76.7,62.5,77.9,62.5"/>
	<path class="st0" d="M77.9,62.5c-0.7,1.3-1.5,2.6-2.3,3.9c2,0.1,3.8-0.1,6,0.1l-0.8,1.3L74.6,68c-3.1,4.9-5.9,9.9-9,14.8
		c-0.1,0.3,0.1,0.5,0.3,0.6c0.6,0,1-0.5,1.4-0.8h1.3c-0.2,0.5-0.7,0.8-1.1,1.2c-0.6,0.6-1.6,0.9-2.6,0.7c-1-0.3-1.9-1.2-2-2.3
		c-0.1-0.6,0.1-1.2,0.3-1.7c2.7-4.1,5.2-8.4,7.7-12.5c-0.3-0.1-0.5,0-0.8,0L70,67.9c-0.8,0-1.6,0.1-2.5,0c0.2-0.5,0.5-0.9,0.8-1.4
		c1-0.1,2.5,0,3.5-0.1c0.8-1.3,1.6-2.7,2.5-4C75.5,62.5,76.7,62.5,77.9,62.5"/>
	<path class="st0" d="M78.9,69.9c0.2,0.5,0.1,1.2-0.3,1.6C78,72,77,72.2,76.3,71.9c-0.5-0.3-0.8-0.8-0.8-1.4
		c0.1-0.6,0.5-1.1,1.1-1.3C77.4,68.8,78.5,69,78.9,69.9"/>
	<path class="st0" d="M78.9,69.9c0.2,0.5,0.1,1.2-0.3,1.6C78,72,77,72.2,76.3,71.9c-0.5-0.3-0.8-0.8-0.8-1.4
		c0.1-0.6,0.5-1.1,1.1-1.3C77.4,68.8,78.5,69,78.9,69.9"/>
	<path class="st0" d="M50.7,74.6c0.3,0.9,0.1,1.9-0.4,2.7c-0.4,0.5-1.2,0.7-1.9,0.5c-0.6-0.3-1-0.8-1-1.5c0-0.5,0.5-1,0.9-1.1
		c0.4,0,0.8-0.1,1-0.5c0.1-0.3-0.2-0.5-0.4-0.6c-1.5-0.3-1.9,1.2-2.8,2.1c-1.4,1.8-2.6,3.6-3.5,5.7c-0.2,0.4-0.2,0.9,0.1,1.3
		c0.3,0.4,0.7,0.6,1.2,0.5c1.9-0.6,3.3-1.9,4.4-3.6l1.1,0c-1.1,2-2.7,3.5-4.8,4.4c-1.3,0.4-3.1,0.5-4-0.6c-1.5-1.7-0.4-4.1,0.4-5.8
		c1.4-2.5,3.8-4.4,6.7-5C49,72.9,50.2,73.4,50.7,74.6"/>
	<path class="st0" d="M50.7,74.6c0.3,0.9,0.1,1.9-0.4,2.7c-0.4,0.5-1.2,0.7-1.9,0.5c-0.6-0.3-1-0.8-1-1.5c0-0.5,0.5-1,0.9-1.1
		c0.4,0,0.8-0.1,1-0.5c0.1-0.3-0.2-0.5-0.4-0.6c-1.5-0.3-1.9,1.2-2.8,2.1c-1.4,1.8-2.6,3.6-3.5,5.7c-0.2,0.4-0.2,0.9,0.1,1.3
		c0.3,0.4,0.7,0.6,1.2,0.5c1.9-0.6,3.3-1.9,4.4-3.6l1.1,0c-1.1,2-2.7,3.5-4.8,4.4c-1.3,0.4-3.1,0.5-4-0.6c-1.5-1.7-0.4-4.1,0.4-5.8
		c1.4-2.5,3.8-4.4,6.7-5C49,72.9,50.2,73.4,50.7,74.6"/>
	<path class="st0" d="M77.5,73.2c-1.9,3.2-3.9,6.4-5.8,9.6c-0.1,0.3,0.2,0.4,0.3,0.6c0.6,0,1-0.4,1.4-0.8c0.6-0.4,0.9-1.1,1.4-1.7
		l1.2,0c-1.3,1.6-2.6,3.9-5,3.5c-1-0.2-1.7-0.9-2-1.8c-0.7-2,1.2-3.3,1.9-4.9c1-1.5,1.8-3.1,2.8-4.5C75.1,73.2,76.2,73.1,77.5,73.2"
		/>
	<path class="st0" d="M77.5,73.2c-1.9,3.2-3.9,6.4-5.8,9.6c-0.1,0.3,0.2,0.4,0.3,0.6c0.6,0,1-0.4,1.4-0.8c0.6-0.4,0.9-1.1,1.4-1.7
		l1.2,0c-1.3,1.6-2.6,3.9-5,3.5c-1-0.2-1.7-0.9-2-1.8c-0.7-2,1.2-3.3,1.9-4.9c1-1.5,1.8-3.1,2.8-4.5C75.1,73.2,76.2,73.1,77.5,73.2"
		/>
	<path class="st0" d="M88.6,74.6c0.9,1.5-0.6,2.6-1.1,3.8c-0.8,1.4-1.7,2.8-2.5,4.3c0,0.2,0.1,0.4,0.2,0.4c0.5,0.3,1-0.3,1.4-0.5
		c0.6-0.5,1-1.2,1.5-1.8c0.4-0.1,0.9,0,1.3,0c-0.8,1.2-1.8,2.5-3.1,3.3c-0.7,0.4-1.6,0.4-2.3,0.1c-0.8-0.3-1.4-1.1-1.6-2.1
		c-0.1-0.6,0-1.2,0.3-1.7c1.1-1.8,2.2-3.6,3.2-5.4c-0.1-0.1,0-0.3-0.2-0.3c-0.9,0.2-1.6,0.9-2.3,1.5c-0.9,1.1-1.4,2.3-2.2,3.5
		c-1,1.5-1.8,3.1-2.8,4.7l-3.7,0.1c0.6-1.2,1.3-2.2,2-3.4c1.1-1.9,2.2-3.6,3.3-5.5c-0.1-0.2-0.4-0.1-0.5,0L79,75.7l-1.9,3.1H76
		l0-0.2c0.9-1.3,1.5-2.9,2.6-4.1c0.7-0.5,1.7-0.8,2.6-0.5c0.6,0.2,1.2,0.6,1.5,1.1c1.1-0.7,2.1-1.8,3.6-1.9
		C87.4,73.2,88.3,73.7,88.6,74.6"/>
	<path class="st0" d="M37.3,73.8c0.1,0,0.3-0.3,0.4-0.4c1.2,0,2.6,0,3.7,0c-1.8,3.1-3.7,6.1-5.4,9.3c0,0.2,0.1,0.4,0.3,0.5
		c0.7,0,1.3-0.8,1.7-1.2H39c-0.6,1.3-1.9,2.2-3.2,2.6c-0.7,0.2-1.4,0-1.9-0.5c-0.3-0.3-0.5-0.7-0.7-1c-0.7,0.9-1.8,1.8-3.1,1.7
		c-0.9,0-1.7-0.6-2.1-1.3c-1.1-2.4,0.5-4.7,1.6-6.7c1.5-1.6,3-3.3,5.3-3.8C35.8,73,36.7,73.3,37.3,73.8 M36.2,74.3
		c-0.5-0.2-0.9,0.4-1.2,0.7c-1.9,2.1-3.5,4.7-4.7,7.2c-0.1,0.4-0.6,1.1-0.2,1.5c0.2,0.2,0.5,0,0.7,0c2.2-2.1,3.5-4.6,5-7.1
		c0.3-0.6,0.8-1.2,0.6-2C36.4,74.4,36.3,74.3,36.2,74.3"/>
	<path class="st0" d="M37.3,73.8c0.1,0,0.3-0.3,0.4-0.4c1.2,0,2.6,0,3.7,0c-1.8,3.1-3.7,6.1-5.4,9.3c0,0.2,0.1,0.4,0.3,0.5
		c0.7,0,1.3-0.8,1.7-1.2H39c-0.6,1.3-1.9,2.2-3.2,2.6c-0.7,0.2-1.4,0-1.9-0.5c-0.3-0.3-0.5-0.7-0.7-1c-0.7,0.9-1.8,1.8-3.1,1.7
		c-0.9,0-1.7-0.6-2.1-1.3c-1.1-2.4,0.5-4.7,1.6-6.7c1.5-1.6,3-3.3,5.3-3.8C35.8,73,36.7,73.3,37.3,73.8 M36.2,74.3
		c-0.5-0.2-0.9,0.4-1.2,0.7c-1.9,2.1-3.5,4.7-4.7,7.2c-0.1,0.4-0.6,1.1-0.2,1.5c0.2,0.2,0.5,0,0.7,0c2.2-2.1,3.5-4.6,5-7.1
		c0.3-0.6,0.8-1.2,0.6-2C36.4,74.4,36.3,74.3,36.2,74.3"/>
	<path class="st0" d="M99.8,74.1c0.2-0.3,0.4-0.7,0.7-1c1.2-0.1,2.5,0,3.7,0c-2.6,4.5-5.6,8.9-8.3,13.3c1.8,0.2,3.3-0.4,4.8-1.1
		l0.6,0.8c-1.8,1.2-4.3,1.5-6.4,1.4c-3.8,3.4-8.6,6.4-14.2,6c-1.8-0.3-3.8-1-4.3-2.9c-0.4-1.2,0.1-2.3,0.8-3.1
		c2.2-2.1,5.9-2.7,8.9-1.9c2,0.3,4,0.7,6.1,0.7c0.5-0.5,0.8-1.2,1.2-1.8c-0.1-0.2,0.2-0.3,0.2-0.5c-0.8,0.3-2.1,0.5-2.9-0.1
		c-1.1-0.6-1.2-2.1-1-3.2c0.7-3.1,2.7-5.8,5.3-7.3c1-0.7,2.5-0.9,3.6-0.3C99.1,73.4,99.4,73.8,99.8,74.1 M97.8,74.7
		c-1.5,0.8-2.5,2.4-3.4,3.7c-0.9,1.3-1.8,2.5-1.9,4.1c0,0.2,0.2,0.3,0.4,0.4c0.8,0.2,1.4-0.4,1.9-0.9c1.1-1.7,2.3-3.4,3.3-5.2
		c0.2-0.5,0.7-1,0.6-1.6C98.5,74.9,98.2,74.7,97.8,74.7 M84.8,86.3c-2.5-0.4-5.2,0.2-7.1,1.8c-0.6,0.7-0.9,1.7-0.5,2.6
		c0.5,1.3,1.9,1.7,3.3,1.7c4.3,0,8.4-1.7,11.1-4.9v-0.1l-3-0.3L84.8,86.3z"/>
	<path class="st0" d="M99.8,74.1c0.2-0.3,0.4-0.7,0.7-1c1.2-0.1,2.5,0,3.7,0c-2.6,4.5-5.6,8.9-8.3,13.3c1.8,0.2,3.3-0.4,4.8-1.1
		l0.6,0.8c-1.8,1.2-4.3,1.5-6.4,1.4c-3.8,3.4-8.6,6.4-14.2,6c-1.8-0.3-3.8-1-4.3-2.9c-0.4-1.2,0.1-2.3,0.8-3.1
		c2.2-2.1,5.9-2.7,8.9-1.9c2,0.3,4,0.7,6.1,0.7c0.5-0.5,0.8-1.2,1.2-1.8c-0.1-0.2,0.2-0.3,0.2-0.5c-0.8,0.3-2.1,0.5-2.9-0.1
		c-1.1-0.6-1.2-2.1-1-3.2c0.7-3.1,2.7-5.8,5.3-7.3c1-0.7,2.5-0.9,3.6-0.3C99.1,73.4,99.4,73.8,99.8,74.1 M97.8,74.7
		c-1.5,0.8-2.5,2.4-3.4,3.7c-0.9,1.3-1.8,2.5-1.9,4.1c0,0.2,0.2,0.3,0.4,0.4c0.8,0.2,1.4-0.4,1.9-0.9c1.1-1.7,2.3-3.4,3.3-5.2
		c0.2-0.5,0.7-1,0.6-1.6C98.5,74.9,98.2,74.7,97.8,74.7 M84.8,86.3c-2.5-0.4-5.2,0.2-7.1,1.8c-0.6,0.7-0.9,1.7-0.5,2.6
		c0.5,1.3,1.9,1.7,3.3,1.7c4.3,0,8.4-1.7,11.1-4.9v-0.1l-3-0.3L84.8,86.3z"/>
	<path class="st0" d="M30.5,73.5l-5.1,8.1c-1,1.7-2.3,3.5-3.2,5.3c1.7,0,3.3-0.3,4.7-1.1c0.3,0.1,0.4,0.5,0.6,0.8
		c-1.8,1.2-4.1,1.5-6.4,1.4c-3.3,3-7.3,5.5-11.9,6.1c-2.5,0.2-5.3-0.3-6.5-2.6c-0.5-1.3-0.2-2.8,0.8-3.6c2-1.6,4.7-2.4,7.4-2
		c2.5,0.4,4.9,0.9,7.4,0.9c0.6-0.7,1-1.5,1.5-2.3c-1.3,0.2-3.4,0.9-4.2-0.6c-1.2-1.7,0.6-3.1,1.3-4.6l3.5-5.7c1.1-0.1,2.5,0,3.8,0
		c-1.9,3.1-3.7,6.3-5.7,9.5c-0.1,0.3,0.1,0.5,0.4,0.7c2.6-0.1,3-2.7,4.4-4.3c1.2-2,2.5-3.9,3.7-5.9C27.9,73.5,29.2,73.5,30.5,73.5
		L30.5,73.5z M14.3,87.5c-2.4-0.5-5-1.2-7.5-0.4c-1.2,0.5-2.5,0.9-3.3,2c-0.4,0.7-0.4,1.6,0,2.3c0.5,1.2,2,1.5,3.3,1.5
		c4.3-0.2,8.4-1.7,11-5L14.3,87.5z"/>
	<path class="st0" d="M30.5,73.5l-5.1,8.1c-1,1.7-2.3,3.5-3.2,5.3c1.7,0,3.3-0.3,4.7-1.1c0.3,0.1,0.4,0.5,0.6,0.8
		c-1.8,1.2-4.1,1.5-6.4,1.4c-3.3,3-7.3,5.5-11.9,6.1c-2.5,0.2-5.3-0.3-6.5-2.6c-0.5-1.3-0.2-2.8,0.8-3.6c2-1.6,4.7-2.4,7.4-2
		c2.5,0.4,4.9,0.9,7.4,0.9c0.6-0.7,1-1.5,1.5-2.3c-1.3,0.2-3.4,0.9-4.2-0.6c-1.2-1.7,0.6-3.1,1.3-4.6l3.5-5.7c1.1-0.1,2.5,0,3.8,0
		c-1.9,3.1-3.7,6.3-5.7,9.5c-0.1,0.3,0.1,0.5,0.4,0.7c2.6-0.1,3-2.7,4.4-4.3c1.2-2,2.5-3.9,3.7-5.9C27.9,73.5,29.2,73.5,30.5,73.5
		L30.5,73.5z M14.3,87.5c-2.4-0.5-5-1.2-7.5-0.4c-1.2,0.5-2.5,0.9-3.3,2c-0.4,0.7-0.4,1.6,0,2.3c0.5,1.2,2,1.5,3.3,1.5
		c4.3-0.2,8.4-1.7,11-5L14.3,87.5z"/>
	<path class="st0" d="M61,27.7c-1.9,2.2-3.5,4.9-4.3,7.7c-0.2,0.7,0.1,1.5,0.5,2.1c0.5,0.6,1.2,0.8,2,0.9l21.2,3.9h0.1
		c4.2-5.2,10.4-8.8,17.5-9.1l-0.2,0.3c-3.8,3.3-7,7.6-9.3,12c0.5,3.7,2.8,7.2,5.7,9.4c-5.6,0.2-10.9-2.3-14.1-6.5l-8.7,1.4l-0.1,0.1
		l0.8,0.9c-2,1.2-4.1,2.2-6.1,3.4l-3.5-1.9c-4.3,0.7-8.8,0.8-13.3,0.7c-0.5,0-1,0.4-1.2,0.8c-1.2,3.4-0.2,7.3,1.8,10
		c-4.9-0.7-8.4-4.8-9.8-9.3c0-0.1,0-0.2-0.1-0.2c-4,1.4-8.1,3.6-10.6,6.8c0-2.8,1-5.4,2.4-7.6c0.3-0.6,0.9-1.1,1.3-1.7
		c-2.6-0.6-5.1-1.3-7.5-2.2c0.4-0.5,0.9-1,1.4-1.5c-0.7,0.1-1.4,0.4-2.1,0.5c-2.3-1.2-4.4-2.7-6.2-4.7c5.9-3.3,12.8-4.7,19.6-6
		c3-0.5,6.2-0.8,9.3-1.2c3.6-4.2,7.7-8.3,13.4-9L61,27.7L61,27.7z M56.8,30.6c-3.6,1.8-6,4.6-8.5,7.7c-1.8,0.1-3.7,0.3-5.5,0.5
		C35.3,40,28,41.3,21.3,44.2c1,1,2.3,1.8,3.6,2.5c3.2-0.9,6.9-1.5,10.3-0.8c-2.4,0.5-4.8,1.3-6.7,2.9c3.3,1.1,6.9,1.7,10.5,2
		c0-0.5-0.2-1-0.2-1.5c0.6,0,1.2-0.2,1.8-0.2c0.3,4.5,1.9,8.9,5.6,11.3c-0.5-2.4-0.7-5.3,0.3-7.6c0.5-0.8,1.3-1.4,2.3-1.6
		c4.7,0.1,9.4,0,13.9-0.9l3.3,1.8l3.2-1.8l-1.6-1.5c0,0-0.1-0.2,0-0.2l12.1-1.9l1.1-0.1c2.1,3,5.2,5.4,8.8,6.1
		c-1.7-2.1-2.6-4.5-2.9-7.2c1.4-3.6,3.7-7,6.3-9.8c-3.3,1-6.3,2.8-8.9,5c-1.1,1-2.1,2.2-3.1,3.4L58.2,40l-1-0.4
		c-1.5-0.8-2.5-2.4-2.3-4.2C55.3,33.8,56,32.2,56.8,30.6 M35,52.1c-1.3,1.1-2.2,2.4-2.9,3.9c1.1-0.8,2.2-1.4,3.4-1.9
		c1.2-0.6,2.7-1,3.8-1.5C37.9,52.5,36.5,52.3,35,52.1"/>
	<path class="st0" d="M27.2,43.8c0.1,0.2,0.1,0.5,0,0.7c-0.2,0.3-0.6,0.4-0.9,0.2c-0.3-0.2-0.3-0.6-0.3-0.9c0.1-0.2,0.3-0.3,0.5-0.4
		C26.9,43.5,27.1,43.6,27.2,43.8"/>
</g>
</svg>
