<?xml version="1.0" encoding="utf-8"?>
<!-- Generator: Adobe Illustrator 21.1.0, SVG Export Plug-In . SVG Version: 6.00 Build 0)  -->
<svg version="1.1" id="Layer_1" xmlns="http://www.w3.org/2000/svg" xmlns:xlink="http://www.w3.org/1999/xlink" x="0px" y="0px"
	 viewBox="0 0 221.1 52.2" style="enable-background:new 0 0 221.1 52.2;" xml:space="preserve">
<style type="text/css">
	.st0{clip-path:url(#SVGID_2_);fill:#666565;}
</style>
<g>
	<defs>
		<rect id="SVGID_1_" y="0" width="221.1" height="52.2"/>
	</defs>
	<clipPath id="SVGID_2_">
		<use xlink:href="#SVGID_1_"  style="overflow:visible;"/>
	</clipPath>
	<path class="st0" d="M3.8,24c0-2.7-0.4-3.2-1.9-4l-1-0.5c-0.3-0.1-0.4-0.2-0.4-0.4v-0.3c0-0.2,0.1-0.3,0.4-0.5l5.2-2.7
		c0.3-0.2,0.5-0.2,0.7-0.2c0.3,0,0.4,0.3,0.4,0.6l0.3,3.7h0.2c1.6-2.4,4-4.6,6.3-4.6c1.8,0,2.7,1.1,2.7,2.3c0,1.5-1.3,2.6-2.2,2.6
		c-0.6,0-1.1-0.2-1.5-0.4c-0.4-0.3-1-0.4-1.7-0.4c-0.8,0-2.2,0.5-3.1,2.2C7.8,22,7.6,23,7.6,23.1V34c0,1.6,0.4,2.2,1.5,2.2h2.5
		c0.3,0,0.4,0.2,0.4,0.5v0.9c0,0.3-0.1,0.5-0.3,0.5c-0.3,0-2.7-0.2-5.6-0.2c-3.2,0-5.4,0.2-5.8,0.2c-0.2,0-0.3-0.1-0.3-0.5v-0.9
		c0-0.4,0.1-0.5,0.6-0.5h2c0.8,0,1.2-0.3,1.2-1c0.1-1.7,0.1-3.6,0.1-6.3V24z"/>
	<path class="st0" d="M26.1,34.9c-2.4-2.9-2.9-4.8-2.9-8.5c0-2.7,1.4-6,4.5-8.4c2.7-2.1,5.3-2.5,7-2.5c2.9,0,5.8,1.5,7.3,3
		c2.4,2.4,3.6,5.1,3.6,8.5c0,5.7-5.1,11.5-11.6,11.5C31.5,38.5,28.3,37.5,26.1,34.9 M41.2,26.5c0-5.8-4.2-9.5-6.9-9.5
		c-1.4,0-2.8,0.3-4,1.7c-2,2.1-2.8,4.2-2.8,8.2c0,2.9,0.3,4.9,2,7.3c1.2,1.7,2.7,2.7,5.2,2.7C38.6,37,41.2,32.1,41.2,26.5"/>
	<path class="st0" d="M56.1,37c-0.3-0.2-0.3-0.5-0.3-0.7l-0.9-5c-0.1-0.3,0.1-0.4,0.3-0.4l0.7-0.2c0.2,0,0.4,0.1,0.5,0.3l1.3,2.6
		c1.1,1.9,1.8,3.2,4.6,3.2c1.8,0,4.1-1.1,4.1-3.6c0-2.4-1.1-3.7-5.1-4.8c-3.1-0.9-6.2-2.5-6.2-6.7c0-3.6,3.4-6.4,7.3-6.4
		c2.5,0,3.9,0.6,4.8,1.1c0.8,0.4,0.9,0.6,0.9,0.9l0.8,3.7c0,0.2-0.1,0.4-0.4,0.5L68,21.8c-0.2,0.1-0.3,0-0.5-0.3l-1.8-2.4
		c-0.6-1-1.6-2-3.7-2c-2,0-4,1.2-4,3.5c0,3,2.5,3.6,5,4.4c3.8,1.1,6.2,2.7,6.3,6.7c-0.1,4.2-3.5,6.9-8,6.9
		C58.8,38.5,56.7,37.5,56.1,37"/>
	<path class="st0" d="M82.6,24c-0.1,0.5-0.2,1.3-0.2,2.5c0,5.1,3.2,9,7.4,9c3.2,0,5.4-1.8,6.3-3.6c0.1-0.2,0.3-0.3,0.5-0.3l0.7,0.4
		c0.2,0.1,0.3,0.2,0,0.8c-0.9,2.1-3.7,5.7-8.3,5.7c-3,0-6.3-0.9-8.2-3.7c-1.8-2.7-2.3-4.6-2.3-8.3c0-2,0.5-5.6,3.3-8.3
		c2.3-2.3,4.9-2.8,7.5-2.8c6,0,7.7,5.7,7.7,7.7c0,0.7-0.6,0.8-1.5,0.8H82.6z M91,22.4c1,0,1.4-0.3,1.4-0.7c0-1.2-0.6-4.7-4-4.7
		c-2.3,0-4.5,1.5-5.5,5.4H91z"/>
	<path class="st0" d="M108.9,34.9c-2.4-2.9-2.9-4.8-2.9-8.5c0-2.7,1.4-6,4.5-8.4c2.7-2.1,5.3-2.5,7-2.5c2.9,0,5.8,1.5,7.3,3
		c2.4,2.4,3.6,5.1,3.6,8.5c0,5.7-5.1,11.5-11.6,11.5C114.3,38.5,111.1,37.5,108.9,34.9 M124,26.5c0-5.8-4.2-9.5-6.9-9.5
		c-1.4,0-2.8,0.3-4,1.7c-2,2.1-2.8,4.2-2.8,8.2c0,2.9,0.3,4.9,2,7.3c1.2,1.7,2.7,2.7,5.2,2.7C121.5,37,124,32.1,124,26.5"/>
	<path class="st0" d="M158.7,35.1c0,0.8,0.5,1.1,1.2,1.1h1.7c0.5,0,0.6,0.2,0.6,0.5v0.8c0,0.4-0.1,0.6-0.4,0.6c-0.4,0-2-0.2-5-0.2
		c-2.7,0-4.4,0.2-4.7,0.2c-0.3,0-0.4-0.2-0.4-0.6v-0.8c0-0.4,0.2-0.5,0.7-0.5h1.5c0.6,0,1-0.3,1.1-1.2c0.1-1.4,0.1-3,0.1-4.4v-6.9
		c0-2.1,0-3.6-1.5-4.7c-1.3-0.9-2.5-0.9-3.8-0.9c-0.8,0-2.7,0.4-4.2,2c-1,1.2-1.2,2.6-1.2,3.6v10.9c0,1.4,0.2,1.7,1.3,1.7h1.3
		c0.4,0,0.5,0.2,0.5,0.5v0.9c0,0.3-0.1,0.5-0.4,0.5c-0.4,0-1.8-0.2-4.6-0.2c-2.7,0-4.4,0.2-4.7,0.2c-0.3,0-0.4-0.2-0.4-0.5v-0.9
		c0-0.3,0.1-0.5,0.5-0.5h1.5c0.7,0,1-0.2,1-1V22.9c0-1.6-0.8-2.5-2.1-3.1l-0.4-0.2c-0.4-0.2-0.4-0.3-0.4-0.5v-0.3
		c0-0.3,0.2-0.4,0.5-0.5l4.5-2.5c0.4-0.2,0.7-0.4,0.9-0.4c0.3,0,0.4,0.2,0.4,0.6l0.4,3.2h0.1c1.5-1.9,4.6-3.8,7.2-3.8
		c1.6,0,3.2,0.3,4.4,1.2c1.6,1,2.9,3.7,2.9,5V35.1z"/>
	<path class="st0" d="M177.2,22.3c0,2.7,0,10.6,0.1,12.3c0.1,0.9,0.3,1.6,1.4,1.6h2.4c0.5,0,0.6,0.2,0.6,0.5v0.9
		c0,0.3-0.1,0.5-0.3,0.5c-0.4,0-2.7-0.2-5.9-0.2c-3.4,0-5.5,0.2-5.9,0.2c-0.3,0-0.4-0.2-0.4-0.5v-0.9c0-0.4,0.1-0.5,0.7-0.5h2.5
		c0.6,0,1.1-0.4,1.2-1.3c0.1-1.6,0.1-10.6,0.1-13.7v-3.3c0-3.7-0.1-8.5-0.2-9.9c-0.1-1.8-0.9-2.6-2.6-3.1l-1.1-0.4
		c-0.3-0.1-0.3-0.2-0.3-0.3V3.8c0-0.2,0.2-0.3,0.5-0.4c1.8-0.8,4.2-1.8,6.1-3c0.5-0.3,0.8-0.4,1.1-0.4c0.4,0,0.5,0.3,0.4,0.9
		c-0.1,2.9-0.2,13.8-0.2,16.7V22.3z"/>
	<path class="st0" d="M187.6,49.5c0-1.1,1.2-2,2.4-2c1,0,1.9,0.5,2.4,0.6c0.4,0.1,0.8,0,1.1-0.3c0.8-0.9,3.5-6.9,4.2-9
		c-0.3-1.3-5.8-17.7-6.2-18.8c-0.6-1.3-1.1-2.2-2.5-2.2h-1.4c-0.4,0-0.4-0.2-0.4-0.5v-1c0-0.2,0.1-0.4,0.4-0.4
		c0.5,0,1.7,0.2,4.8,0.2c2.7,0,4.3-0.2,4.9-0.2c0.4,0,0.5,0.2,0.5,0.4v1.1c0,0.3-0.1,0.4-0.3,0.4h-1c-0.6,0-0.8,0.4-0.7,1.2
		c0.2,1.2,3.7,12.7,4.3,13.9h0.2c0.5-0.8,5.1-11.7,5.4-13.1c0.3-1.3-0.1-2-0.9-2H204c-0.3,0-0.4-0.2-0.4-0.4v-1.1
		c0-0.3,0.1-0.4,0.3-0.4c0.7,0,1.8,0.2,4.3,0.2c1.4,0,2.6-0.2,3.2-0.2c0.3,0,0.3,0.2,0.3,0.4v1c0,0.3,0,0.5-0.3,0.5h-0.8
		c-0.6,0-1.3,0.3-1.8,0.9c-1.1,1.4-4.6,9.4-8.2,17.7c-2.6,5.8-4.6,10.7-5.6,12.4c-0.7,1.4-1.7,3.4-4.5,3.4
		C188.6,52.2,187.6,51.1,187.6,49.5"/>
	<path class="st0" d="M214.9,35.4c0-0.9,0.6-2.9,3.2-2.9c1.5,0,2.9,1.2,2.9,3.1c0,1.7-1.3,2.9-2.9,2.9
		C217,38.5,214.9,37.9,214.9,35.4"/>
</g>
</svg>
