<?xml version="1.0" encoding="utf-8"?>
<!-- Generator: Adobe Illustrator 21.1.0, SVG Export Plug-In . SVG Version: 6.00 Build 0)  -->
<svg version="1.1" id="Layer_1" xmlns="http://www.w3.org/2000/svg" xmlns:xlink="http://www.w3.org/1999/xlink" x="0px" y="0px"
	 viewBox="0 0 427.1 168.3" style="enable-background:new 0 0 427.1 168.3;" xml:space="preserve">
<style type="text/css">
	.st0{clip-path:url(#SVGID_2_);fill:none;stroke:#D4A351;stroke-miterlimit:10;}
	.st1{clip-path:url(#SVGID_2_);fill:#D4A351;}
</style>
<g>
	<defs>
		<rect id="SVGID_1_" width="427.1" height="168.3"/>
	</defs>
	<clipPath id="SVGID_2_">
		<use xlink:href="#SVGID_1_"  style="overflow:visible;"/>
	</clipPath>
	<path class="st0" d="M214.3,6.3c-25.4,0-46,20.6-46,46c0,25.4,20.6,46,46,46c25.4,0,46-20.6,46-46C260.3,26.9,239.7,6.3,214.3,6.3z
		 M214.3,4C187.7,4,166,25.6,166,52.3c0,26.7,21.6,48.4,48.3,48.4c26.7,0,48.3-21.7,48.3-48.4C262.6,25.6,241,4,214.3,4z M214.3,2
		c-27.7,0-50.2,22.5-50.2,50.3c0,27.8,22.5,50.3,50.2,50.3c27.7,0,50.2-22.5,50.2-50.3C264.6,24.5,242.1,2,214.3,2z M214.3,0.5
		c-28.6,0-51.7,23.2-51.7,51.8c0,28.6,23.2,51.8,51.7,51.8c28.6,0,51.7-23.2,51.7-51.8C266.1,23.7,242.9,0.5,214.3,0.5z M214.3,91.9
		c-21.8,0-39.5-17.7-39.5-39.6c0-21.9,17.7-39.6,39.5-39.6c21.8,0,39.6,17.7,39.6,39.6C253.9,74.2,236.2,91.9,214.3,91.9z"/>
	<path class="st1" d="M172.8,52.3c0,0.7-0.5,1.2-1.2,1.2c-0.7,0-1.2-0.5-1.2-1.2c0-0.7,0.5-1.2,1.2-1.2
		C172.3,51.1,172.8,51.7,172.8,52.3"/>
	<path class="st1" d="M258.3,52.3c0,0.7-0.5,1.2-1.2,1.2c-0.7,0-1.2-0.5-1.2-1.2c0-0.7,0.5-1.2,1.2-1.2
		C257.8,51.1,258.3,51.7,258.3,52.3"/>
	<path class="st1" d="M178.4,73.1c0.3,0.6,0.1,1.3-0.4,1.7c-0.6,0.3-1.3,0.1-1.6-0.4c-0.3-0.6-0.1-1.3,0.4-1.7
		C177.3,72.3,178,72.5,178.4,73.1"/>
	<path class="st1" d="M252.4,30.3c0.3,0.6,0.1,1.3-0.4,1.7c-0.6,0.3-1.3,0.1-1.7-0.4c-0.3-0.6-0.1-1.3,0.4-1.7
		C251.4,29.6,252.1,29.8,252.4,30.3"/>
	<path class="st1" d="M193.6,88.3c0.6,0.3,0.8,1.1,0.4,1.7c-0.3,0.6-1.1,0.8-1.7,0.4c-0.6-0.3-0.8-1.1-0.4-1.7
		C192.3,88.2,193,88,193.6,88.3"/>
	<path class="st1" d="M236.3,14.3c0.6,0.3,0.8,1.1,0.4,1.7c-0.3,0.6-1.1,0.8-1.7,0.4c-0.6-0.3-0.8-1.1-0.4-1.7
		C235,14.1,235.8,13.9,236.3,14.3"/>
	<path class="st1" d="M214.4,93.9c0.7,0,1.2,0.5,1.2,1.2c0,0.7-0.5,1.2-1.2,1.2c-0.7,0-1.2-0.5-1.2-1.2
		C213.2,94.4,213.7,93.9,214.4,93.9"/>
	<path class="st1" d="M214.4,8.4c0.7,0,1.2,0.5,1.2,1.2c0,0.7-0.5,1.2-1.2,1.2c-0.7,0-1.2-0.5-1.2-1.2
		C213.2,8.9,213.7,8.4,214.4,8.4"/>
	<path class="st1" d="M235.1,88.3c0.6-0.3,1.3-0.1,1.6,0.4c0.3,0.6,0.1,1.3-0.4,1.7c-0.6,0.3-1.3,0.1-1.7-0.4
		C234.4,89.4,234.6,88.6,235.1,88.3"/>
	<path class="st1" d="M192.4,14.3c0.6-0.3,1.3-0.1,1.7,0.4c0.3,0.6,0.1,1.3-0.4,1.7c-0.6,0.3-1.3,0.1-1.6-0.4
		C191.6,15.3,191.8,14.6,192.4,14.3"/>
	<path class="st1" d="M250.3,73.1c0.3-0.6,1.1-0.8,1.6-0.4c0.6,0.3,0.8,1.1,0.4,1.7c-0.3,0.6-1.1,0.8-1.7,0.4
		C250.2,74.4,250,73.7,250.3,73.1"/>
	<path class="st1" d="M176.3,30.3c0.3-0.6,1.1-0.8,1.6-0.4c0.6,0.3,0.8,1.1,0.4,1.7c-0.3,0.6-1.1,0.8-1.7,0.4
		C176.1,31.7,175.9,30.9,176.3,30.3"/>
	<path class="st1" d="M232.9,50.2c0,0,1.3-1.2,3.7-2.7c0.5-0.3,5-3.2,6.7-4.1c-1.5,0.3-8.1,4.3-12,7.8c-0.3,0.3-0.9,0.8-1.1,1.1
		c0,0-0.1,0.1-0.1,0.1c0,0,0.1,0,0.1-0.1C231,51.6,231.9,50.9,232.9,50.2"/>
	<path class="st1" d="M236,34.8c0.6,0.2,1.1,0.2,2,0.4c0.2,0.1,0.9,0,0.8,0.8c0,0.1,0.2,0.2,0.3,0.3c0.3,0.2,0.9,0.5,1.2,0.7
		c-0.3-0.5-1.1-0.8-1.1-1.5c0-0.1,0.1-0.5-0.1-0.5c-1.1-0.3-2.1-0.3-3.4-0.5C235.9,34.7,235.9,34.8,236,34.8"/>
	<path class="st1" d="M228.5,29.3c-1.3,0.4-3.2,0.4-3.2,0.5c1.8,0.5,2.5,0.1,5.2-0.7C230,28.8,228.9,29.2,228.5,29.3"/>
	<path class="st1" d="M230.9,34.1c0.2,0.1,0.4,0.2,0.6,0.2c1.2,0.1,2.3,0.4,3.7,0.4c-0.5-0.2-0.9-0.5-1.3-0.5c-0.5-0.1-1,0-1.5,0
		c-0.5,0-0.8-0.4-1.3-0.5c-0.1,0-0.3,0.1-0.3,0.2C230.8,33.9,230.9,34.1,230.9,34.1"/>
	<path class="st1" d="M233.4,29.4c0.7,0.1,1.4,0.1,2,0.2c0-0.1,0-0.1,0-0.2c-1.5-0.2-3-0.5-4.5-0.7c0,0,0,0.1-0.1,0.1
		c0.2,0.1,0.4,0.3,0.6,0.4C232.2,29.2,232.8,29.3,233.4,29.4"/>
	<path class="st1" d="M234.5,41.4c0,0.3,0.4,0.4-0.5,0.6c0.8,0,2.2,0.1,3,0.6C236.9,42.3,235.4,41.8,234.5,41.4"/>
	<path class="st1" d="M233.2,46.1C233.2,46.1,233.2,46.1,233.2,46.1c-1,0-2.5-0.4-3.4-1.2C230.1,45.4,231.9,46.6,233.2,46.1"/>
	<path class="st1" d="M225.2,37.6c1.4,0,3.7,1.5,4.6,2.1C227.3,37.7,226.1,37.6,225.2,37.6"/>
	<path class="st1" d="M217.6,30c0.4-0.2,0.6-0.4,2.3-0.7c-1.4,0.1-1.9,0.2-2.4,0.3C217.2,29.7,217.5,29.9,217.6,30"/>
	<path class="st1" d="M228.5,26.4c-0.4,0.6-1.6,0.2-1.7,0.2c0.5,0.4,3.6,0.7,4.1,1.2C230.9,27.8,228.8,26.5,228.5,26.4"/>
	<path class="st1" d="M228.6,33.4c0,0,2.2,1.8,1.5,3.6c0.1,0,0.8-1.6-0.4-2.8C229.1,33.6,228.6,33.4,228.6,33.4"/>
	<path class="st1" d="M239.5,44c0.8-0.2,2.9-0.9,2.8-1.1c-1.1-0.6-2.7-1.5-3.7-2.1c0.3,0.5,1.4,1,2.4,2.1c-0.1,0.1-1.2,0.5-1.3,0.5
		c-0.9,0.4-2.4-0.5-2.4-0.5c0.3,0.3,0.5,0.6,1,0.9C238.5,44,239,44.1,239.5,44"/>
	<path class="st1" d="M193.4,44.8c0,0-0.1,0.1-0.2,0.2c0.2,0,0.4,0.1,0.5,0.1c-0.1,0.1-0.2,0.2-0.2,0.3c0.5,0,0.9-0.1,1.4-0.1
		C195,45,195,45,193.4,44.8"/>
	<path class="st1" d="M237.3,37.7c0.8,0.3,2.2,0.9,2.8,1.1C239.9,38.7,238.7,37.1,237.3,37.7"/>
	<path class="st1" d="M230.9,31.4c0.9,0.2,1.7,0.3,2.5,0.4c0,0,0-0.1,0.1-0.1c-0.7-0.5-1.5-1-2.3-1.5c0,0-0.1,0-0.1,0.1
		c0.2,0.3,0.3,0.5,0.5,0.8c-0.1,0-0.2,0-0.3,0C231.1,31.2,231.1,31.3,230.9,31.4"/>
	<path class="st1" d="M235.1,33.5c-0.4-0.6-0.4-1.5-1.5-1.5C234.3,32.7,234.7,33,235.1,33.5"/>
	<path class="st1" d="M227.7,28.1c-1.2,0-3.8-0.1-5.3-1.3C223.5,28.8,226.2,28.2,227.7,28.1"/>
	<path class="st1" d="M234.1,39.6c0.7,0,1.3,0,1.9,0c0,0,1,0,1.5,0.1c0.4,0.1,0.1,0.4,0.4,0.5c0.6,0.1,1.5-0.1,2.3,0.1
		c0.4,0.1,1.1,0.7,1.4,1c0.4,0.4,1,0.6,1.3,0.7c-0.2-0.3-0.8-1-1-1.3c0-0.1,0.1-0.1,0.1-0.2c-0.2,0-0.3,0-0.6,0
		c-0.6-0.1-1.4-0.4-2-0.5c-0.2,0-0.6-0.1-0.9-0.2c-0.7-0.1-4.7-1-5.1-1c-0.2,0-0.4-0.2-0.5-0.3c-0.1-0.3-0.2-0.4-0.2-0.7
		c0,0,0,0,0,0c-0.2,1.3,1.1,1.4,1.6,3.5C234.5,41.4,234.8,40.5,234.1,39.6"/>
	<path class="st1" d="M224.4,30.9c1.2,0.2,2.8,0.6,4.2,1.2c1.4,0.6,2.5,0.5,2.5,0.5c-0.7-0.1-1.2-0.4-1.2-0.4
		C227.2,30.8,224.4,30.9,224.4,30.9"/>
	<path class="st1" d="M216.5,26.4C216.5,26.4,216.5,26.5,216.5,26.4c1.1,0,3.5,0.1,4.5,0.7C219.3,26.1,218.2,26.3,216.5,26.4"/>
	<path class="st1" d="M226.7,35.6C226.7,35.6,226.6,35.6,226.7,35.6c0.5-0.2,0.8-0.4,0.8-0.4c0.3-0.2,1-0.2,1-0.2s-0.7-0.6-0.7-0.8
		c-0.8-1.7-2.6-2.2-2.8-2.2c0.1,0,0.1,0,0.2,0.1c0.1,0.1,0.1,0.1,0,0c1.3,0.7,1.7,1.2,2.1,1.8c0.1,0.1,0.5,0.8,0.5,0.8
		s-0.3,0.2-0.5,0.4c-1.1,0.7-3.7,0.3-3.7,0.3l1.3,0.2c0.4,0.1,1.1,0.1,1.3,0c0,0,0.1,0,0.3,0.1c0.9,0.3,1.6,1,1.7,1.2
		c-0.1,0-0.5,0.2-0.6,0.4c1,0.2,1.5,0.3,2.5,0C228.6,37.6,227.8,35.9,226.7,35.6"/>
	<path class="st1" d="M232.9,37.8c0.7,0,1.4-0.1,1.7-0.5c0.8,0.1,1.6,0.1,2.3,0.2c0,0-2.3-2-2.4-1.9c0.2,0.3,1,0.8,1.1,1.4
		c-0.1,0-0.9-0.2-1-0.2c-0.1,0-0.2,0.3-0.4,0.4c-0.5,0.4-1.3,0.5-1.6,0.5c-0.6-0.2-1.3-0.8-2.1-0.1C230.9,37.7,232,37.8,232.9,37.8
		C232.9,37.8,232.9,37.8,232.9,37.8C232.9,37.8,232.9,37.8,232.9,37.8"/>
	<path class="st1" d="M205.3,34.1c0,0.1-0.1,0.2-0.1,0.2c0.3-0.4,1.7-2.1,2.5-3.3C207.7,31.1,206.1,32.6,205.3,34.1"/>
	<path class="st1" d="M196.4,35.5c0,0,1.6-1.3,2.3-2.6C198.7,32.9,197.5,33.8,196.4,35.5"/>
	<path class="st1" d="M223.3,25.6c0,0-0.9-0.4-1.4-0.8c-1.1-0.8-1.5-0.4-1.5-0.5c-0.4,0.1,2,0.8,1.7,1.1c-1.1,1-3.7-0.3-3.8-0.3
		c0,0.1,0,0.2,0,0.2c0.8,0.2,1.3,0.9,2.6,1c1-0.1,1.3-0.3,1.5-0.4C222.6,25.7,223.3,25.6,223.3,25.6"/>
	<path class="st1" d="M220.8,28.8c-0.4,0-0.8,0.2-1,0.4c1.3-0.2,2.5,0,3.5,0.1C222.4,28.9,221.6,28.7,220.8,28.8"/>
	<path class="st1" d="M214.3,28.2l-1.1,1c-0.5,0.4-2.6,0.8-2.6,0.8c1.6-0.2,2.2-0.3,2.8-0.7c0,0,0.3-0.2,0.3-0.2
		c3.3-0.1,4.8-0.5,5.7-0.8c0.3-0.1,1.1-0.6,1.1-0.6s-1.2-0.2-1.3-0.2c-0.5,0-2.4-0.1-2.4-0.1s1.4,0.2,1.8,0.4
		c1.2,0.6-4.9,1.3-4.9,1.3c0,0,2.3-1.5,2.3-1.5s-3,0.2-3.6,0.4c-0.2,0.1-1.4,0.5-2.5,1.7c0,0,0,0,0,0.1c0.3-0.2,1.5-1.1,2.5-1.5
		C213.3,28,214.3,28.2,214.3,28.2"/>
	<path class="st1" d="M208,27.6c-1.4,1.2-3.5,0.7-4.8,2.6c0.2-0.2,1.4-0.9,1.6-1.2c0,0.8-0.5,1.1-1.4,1.5c0,0.2-0.1,0.3-0.2,0.4
		c-0.1,0.1-0.3,0.2-0.3,0.3c-0.1,0.2,0,0.4,0,0.6c-0.3,0.1-0.7,0.2-0.3,0.6c-0.4,0.6-0.8,1.2-1,1.8c0.4-0.6,1.1-1.6,1.5-2.2
		c0,0.1,0.3,0.3,0.1,0.8c0.8-0.5,2-2.1,2.1-2.3c-1.3,1.4-1.9,1.2-2.2,1.2c0.2-0.6,0.1-1,1.5-1.6c0.1,0,0.1-0.1,0.1-0.2
		c0.1-0.1,0.1-0.2,0.1-0.3c0.1,0.1,0.2,0.1,0.5,0.3c0-0.3-0.2-0.4-0.2-0.7c3-0.8,3-1.3,3.5-1.8c0.3-0.4,0.7-0.7,0.7-0.7
		s-1.6,0.1-2.3,0.4C207.7,27,209,26.8,208,27.6"/>
	<path class="st1" d="M205.9,30.2c0.5-0.3,1.4-0.6,1.4-0.6c-0.2,0.6-1.6,2.8-1.6,2.8c1.3-1,2.5-3.5,2.4-3.3
		C207.1,29.3,205.9,30.2,205.9,30.2"/>
	<path class="st1" d="M204,39.1c-0.4-0.4-1-0.4-1.4-0.4c0.7,0.1,1.2,1.1,1.3,1.7c0.2,0,0.4,0.1,0.6,0.2c0,0,0,0,0,0.1
		c0.1,0,0.2-0.1,0.2-0.1C204.8,39.9,204.6,39.6,204,39.1"/>
	<path class="st1" d="M247.8,48.2c0,0,0.1-0.6-0.2-1.3c-0.4-0.8-0.6-1.3-1.3-1.7c0.4-0.3,0.4-0.7,0-1.3c-0.2-0.4-0.4-0.7-0.5-1.1
		c-0.3-0.8-0.6-1.8-0.8-1.9c-0.5-0.4-0.8-0.8-0.9-1.5c0-0.3-0.4-0.7-0.7-0.8c-0.7-0.2-0.7-0.7-0.9-1.2c-0.3-0.6-0.6-1.3-1-1.9
		c-0.1,0.1-0.1,0.7-0.2,0.7c-0.5-0.4-0.8-1.1-1.4-1.7c0.8,0.2,0.9,0.4,1.4,0.7c-0.5-0.9-0.9-1.8-1.5-2.6c-0.8-1.1-1.8-2.1-2.7-3.1
		c-0.4-0.4-0.8-1.1-1.3-1.3c-1.2-0.4-2-1.2-2.7-2c-1-1.1-2.5-1.5-3.6-2.5c-0.8-0.7-2-0.9-3-1.3c-2-0.7-4-1.3-6.1-1.4c-1,0-2,0-3,0
		c-2.1-0.1-4.1-0.3-6.2,0.4c-1.5,0.5-3.3,0.6-4.6,1.7c-0.1,0-0.2,0-0.3,0.1c-0.4,0.2-0.8,0.2-1.2,0.5c-0.5,0.3-1,0.7-1.6,1.1
		c-0.9,0.6-1.9,1-2.7,1.7c-1.5,1.1-2.9,2.4-4.3,3.6c-0.2,0.2-0.3,0.7-0.3,0.7c0,0-1.4,1.1-1.9,1.7c-0.7,0.8-1.2,1.6-1.8,2.5
		c-0.1,0.2-0.3,0.4-0.5,0.6c-1,1.1-1.9,2.1-2.9,3.2c-0.4,0.5-0.9,1-1.2,1.5c-0.6,0.9-0.9,1.9-1.5,2.7c-0.7,1-1.6,1.8-2.3,2.7
		c-1.4,1.7-2.7,3.5-3.5,5.5c-2.1,4.9-0.8,10,3.5,13.4c0.5,0.4,1.2,1.1,1.8,1.4c0.6,0.2,0.8-0.1,0.8-0.7c0-0.5-0.4-1.3-0.6-1.8
		c-0.4-1-0.2-1.8-0.6-2.8c0,0.1,0.1,0.2,0.3,0.1c0.3-0.3,0.7-0.5,0.8-0.9c0.6-2.1,2.1-3.4,4-4.2c3-1.3,6.1-2.3,9.4-2.9
		c1.4-0.3,2.8-0.5,4.2-0.6c0.4,0,0.8,0.2,1.2,0.3c0.2,0.1,0.3,0.2,0.5,0.3c0.7,0.1,1.4,0.3,1.9,0.9c0.4,0.5,0.8,0.9,1.3,1.3
		c0.8,0.7,1.3,1.7,2.3,2.1c0.1,0,0.1,0.1,0.2,0.2c0.6,1.4,1.2,2.7,1.8,4.1c0.1,0.2,0,0.5,0.1,0.8c0.4,1.6,0.8,3.2,1.1,4.8
		c0.3,1.2,0.5,2.4,0.6,3.6c0.1,0.9,0.2,1.8,0.2,2.7c0,0.4,0.1,0.7,0.2,1.1c0,0.3,0.1,0.6,0.2,0.9c0.1,0.3,0.1,0.6,0.1,0.9
		c0,0.7-0.4,1.5,0.2,2.2c0.6,0.7,0.4,1.4,0.2,2.1c-0.1,0.6-0.4,1.4-0.1,1.9c0.2,0.5,1.7,1.4,2,1.2c0.8-0.7,4.5-5.2,5.2-6.4
		c0.7-1.4,11.8-16.7,24.4-23.3c0.5-0.3,0.9-0.5,1.4-0.8C249.3,52.9,248.7,48.4,247.8,48.2 M220.9,22.1c0.1,0,0.7,0.1,0.9,0.2
		c-0.8,0-1.9,0.1-2.6,0.2c-1,0.1-2.3,0.1-2.8,0.2c0.4-0.1,0.7-0.2,1.1-0.4C219.3,21.3,219.6,22.1,220.9,22.1 M212.2,22.6
		c0.1-0.1,0.3-0.7,0.4-0.7c1.3-0.3,2.3,0,3.5-0.3c0.4-0.1,0.9-0.1,1.4,0c-0.7,0.3-2.2,1-3.2,1.2c0.2,0,1,0,2-0.2
		c0.9,0,1.3,0.7,0.5,1.2c-0.3-0.1-1.5-0.5-2.5-0.4c-0.2,0-0.9,0.1-2.1,0.5c-0.2-0.2-0.8-0.7-2.4-0.4c-0.9,0.2-2.1,0.8-2.1,0.8
		c0.1-0.1,0.2-0.2,0.4-0.3C209.6,23.1,210.2,22.7,212.2,22.6 M199.4,29.2c0.3-0.8,2.9-3.2,2.9-2.5c0.7-0.8,2.9-1.9,2.9-1.8
		c-0.1,0.1-1.6,1.2-2.2,1.8c-0.2,0.3-1.9,2.3-0.7,0.4c0.1-0.1-1.1,1.1-2.7,2.9c0.1,0.1,2-1.5,2-1.5s-0.8,1.2-1.4,2
		c-0.7,0.8-1.7,1.6-1.8,1.7c0,0.2,2-0.8,1.9-0.6c-0.7,0.8-1.7,3.3-3,4.2c-1.5,1-2.8,2-3.3,2.4c0.9-1.1,3.2-4.1,3.4-4.5
		c0.2-0.4,0.5-0.7,0.9-1.1c-0.6-0.2-1.1,0.1-1.5,0.1C197.5,31,198.4,30.2,199.4,29.2 M196.5,39.9c0,0-0.4-0.3-0.4-1
		c-0.1-1,0.4-1.4,0.4-1.4C196.1,38.6,196.5,39.9,196.5,39.9 M194.9,39.2c0.1-1.4,1.6-2.3,1.6-2.3L194.9,39.2z M184.6,45.8
		c0.4-0.5,1.5-1.6,1.5-1.6s0.2,0.6-0.2,1.2c-0.5,0.7-0.7,0.8-1.7,1.5c-0.4,0.3-1.2,1-1.2,1S184.2,46.2,184.6,45.8 M203.5,49.1
		c0.3,0.3,0.6,0.5,1.7,0.7c-1.2,0-1.5-0.1-2-0.3c-0.8,0.7-7.5,2.5-8.1,2.7c-1.9,0.7-3.6,1.5-5.4,2.7c-1.5,1.2-3.4,3.6-4.1,5.2
		c0.1-0.2-0.2-1.1,1.2-3.3c0.8-1.3,1.8-2.5,3.3-3.4c0.4-0.3,3.5-2.4,6.2-2.8c0.5-0.1,1.3-0.3,1.8-0.4c0.5-0.1,2.4-0.5,2.4-0.5
		s-1.3,0.2-1.3-0.2c0-0.3,2.7-0.8,3.3-0.9c-2.5-0.1-5.2,0.8-6.3,0.9c-1.7,0.1-2.4-0.1-3.3-0.1c-1.6,0.1-3-1.2-2.9-1
		c0.6,0.7,1.9,1.2,2.3,1.3c0.4,0.1,0.3,0.3,0.2,0.9c-1.8,0.6-3.5,1.4-5.1,2.5c-0.7,0.5-2.3,2.2-2.6,2.9c-0.7,1.3-0.8,2.5-0.6,4
		c0.2,1,1.3,4.2,1.9,5.2c-1.1-0.8-2.3-3.5-2.4-4c-0.1-0.4-0.9-3.3,0.9-5.7c0.4-0.5,1.2-1.5,1.6-2c-0.1,0-0.9,0.8-1,0.9
		c-0.7,0.7-1.2,1.1-1.9,1.8c-0.1,0.1-0.4,0.1-0.7,0.1c-0.8,1.7,0.3,5.9,0.2,5.9c-5.3-8.7,0.8-12.2,1.5-13.3c0.8-1.2,1.5-2.3,2.5-3.4
		c0.5-0.5,0.6-0.9,0.2-1.6c-0.3-0.6,0.1-1.3,0.9-1.6c0.1,0,0.1-0.3,0.2-0.4c0.8-1.9,3.1-4.1,3.6-4.6c0.2-0.3,2-2.1,2.1-2.5
		c0.3-0.7,0.6-1,1-1.5c0.3-0.4,2.9-3.2,3.4-3.7c-0.9,1.2-3.8,5.4-3.8,5.4c0.1-0.1,1.3-1.5,1.6-1.7c0.8-0.6,0.9-0.2,1.2-0.3
		c0,0.2-2.4,4.3-5.3,4.4c0,0,0.3,0,0.3,0s-0.3,0.3-0.6,0.5c-0.6,0.5-1.6,1.6-2.4,2.8c0,0,0-0.1,0.1-0.1c0.2-0.4,0.6-0.7,0.8-0.8
		c0,0,0.1-0.1,0.1-0.1l0.4-0.3l-0.4,0.4l0.8-0.7l-1.2,1.1c-0.5,0.4-0.6,0.8-0.6,0.8c0.1-0.2,0-0.1,0.1-0.3c-0.2,0.3-0.6,0.9-0.6,0.9
		s0,0,0-0.1c-0.1,0.2-0.2,0.3-0.2,0.5c-0.9,1.2-1.2,1.8-0.4,3c-0.1-0.7-0.4-1,0.3-1.9c0.1-0.1,0.2-0.3,0.3-0.4c0,0,0.1,0.1,0.1,0.1
		c0,0.1-0.1,0.2-0.1,0.3c-0.3,0.6-0.3,1.1,0,1.8c-0.1,0.1-0.4,0.2-0.5,0.3c0.3,0.3,0.5,0.6,0.9,0.9c-0.3,0-1.6,0.2-1.6,0.5
		c1.3-0.1,2.5,0.7,3.2,0.5c0.1-0.7-0.1-1.2-0.3-1.7c0.3,0,0.7-0.1,1.1-0.1c-0.2-0.3-0.7-0.6-0.1-1c0.1-0.1,0-0.4,0-0.8
		c0.4,0.2,0.6,0.3,1,0.5c0.1-0.1,0.2-0.4,0.3-0.7c1.2,0.6,2.3,1.1,3.4,1.6c0-0.1,0.1-0.1,0.1-0.2c-0.4-0.1-0.7-0.2-1-0.5
		c-0.3-0.2-0.5-0.6-0.8-0.8c-0.4-0.2-0.9-0.3-1.3-0.5c0.3-0.2,0.7-0.5,1.1-0.8c-0.1-0.1-0.2-0.2-0.4-0.3c0,0,0-0.1,0-0.1
		c0.2,0.1,0.4,0.1,0.5,0.2c0.2,0.2,0.3,0.6,0.4,0.8c0.2,0.4,0.4,0.7,0.7,1.2c0.2-0.4,0.3-0.6,0.4-0.8c0.1,0.3,0.1,0.6,0.2,0.9
		c0,0,0.2,0,0.3,0c0-0.1,0-0.1,0-0.1c-0.1-0.5-0.2-1.1-0.2-1.6c0-0.1,0.3-0.2,0.5-0.4c0,0.4,0,0.7,0.1,1c0.1,0,0.3,0.1,0.6,0.3
		c-0.2,0.2-0.3,0.4-0.4,0.6c0.7,0.9-0.7,0.9-0.7,1.5c0.5,0.6-0.6,1.2-0.5,1.2c1.2,0.2,3,0,6.5-0.8c0.3-0.1,0.5-0.3,0.8-0.5
		c-0.1-0.1-0.1-0.2-0.1-0.3c-0.4,0.1-0.5,0.5-1,0.6c0.1-0.4,0.4-0.8,0.5-1.1c-0.2-0.1-0.5-0.2-0.8-0.4h1.2c0,0.5,0.2,0.6,1,0.8
		c0.6-0.3,1.1-0.4,0.9,0c-0.1,0.2-0.5,0.5-0.7,0.7c-1.4,1.1-3.9,1.8-5.2,2.1c-0.6,0.1-1.1,0.2-1.7,0.3c0,0,0,0.3-0.1,0.5
		c-0.8-0.2-1.6,0.1-1.8,0.7c0.8-0.3,1.9,0,2.5-0.9c1.2,0.1,3.7-0.7,5.1,0.3c0.1-0.2,0.1-0.6,0.1-0.6l1.7-0.5c0,0,0.8,1.3,3.2,1.8
		c0.6,0.1,2.3,0.1,2.3,0.1s-0.9,0.3-2.2,0.2c-1.3-0.1-2.9-0.8-3.5-1c0.3,0.2,2.6,1.3,2.5,1.4C205.7,49.7,203.8,49.2,203.5,49.1
		 M189.5,44.7c0.2,0.1,0.3,0.1,0.5,0.2c0.3,0,0.6,0,0.8,0c0,0.1,0,0.1,0,0.2c-0.2,0-0.5,0.1-0.6,0.1c0,0.1-0.1,0.2-0.1,0.2
		c-0.2-0.1-0.5-0.1-0.7,0C189.4,45.2,189.5,44.9,189.5,44.7 M189.1,44.5c-0.4-0.4,0.1-0.7,0.3-0.8c0,0.2,0.1,0.5,0.1,0.8
		C189.4,44.5,189.1,44.5,189.1,44.5 M190.1,41.1c0.1-0.2,0.1-0.1,0.2-0.5c-0.3,0.4-0.9,1.3-0.9,1.3s0.2-0.4,0.5-1
		c0.1-0.1,0.2-0.2,0.3-0.4c0.3-0.6,0.9-1,1.1-1.2c0.1-0.1,0.1-0.1,0.1-0.1l0.6-0.5l-0.6,0.6l1.3-1l-1.8,1.7
		C190.3,40.5,190.1,41.1,190.1,41.1 M217.6,38.2c0.6,0,1.1,0,1.5-0.1c0.3,0.3,1,0.6,1.6,0.8c0,0.5,0.1,2.6,0.1,2.6s-1.5-0.4-1.7-0.4
		c-2.4-0.6-3.2-2.9-3.2-2.9l0,0c0.2,0,0.4,0,0.5,0c0.4,0,0.8,0.1,1.1,0.1c0.6,0.6,1.6,1.6,2.2,2.2C219.1,39.5,218.1,38.4,217.6,38.2
		 M213.1,39.3c-0.9-0.6-1.2-0.8-2-1c0-0.1,0-0.1,0-0.2c0.6-0.1,1.1-0.3,1.8-0.4c0.6,0.2,1.5,0.4,2.4,0.4c0.2,0.4,1.5,2.8,4.6,3.4
		c0.2,0,1.4,0.6,1.4,0.6c-0.2-0.8-0.2-1.3-0.2-1.5c0.2,0.2,0.8,0.5,1.6,0.7c0.7,0.7,2.2,1.4,2.4,1.3c-0.6-0.3-1.5-0.9-2.1-1.3
		c0.7,0.1,1.5,0.1,2.5-0.2c0.5,0.9,2,1.8,2,1.8c-0.4,0.4-1.5,1.1-3.9,0.6c-3.6-0.7-4.5-2.1-4.5-2.1l-0.1-0.2
		C216.8,43.2,213.5,39.6,213.1,39.3 M217.2,43.5c0.1,0.1-0.8,0.4-1.9,0.4c-0.5,0-1.3-0.2-1.7-0.3c-0.8-0.2-1.8-0.9-1.8-0.9
		c-1.4-0.9-0.8-2-0.7-2.1c0.7,0.1,2.8,1.7,3.6,1.9c-0.4-0.2-3.2-1.9-3.3-2.7c0.3,0.2,0.4,0.2,0.6,0.3c0.1-0.3,0.3-0.5,0.4-0.8
		C214.3,39.9,217.2,43.5,217.2,43.5 M234.5,44.7c0.6,0.2,1.1,0.3,1.6,0.4c0.1,0.2,0.2,0.5-0.2,1c0,0,0.3,0.6,0.3,0.6s-0.8-0.1-0.8,0
		c-0.4,0.2-0.6,0.6-1.8,0.6c-0.1-0.2-0.2-0.5-0.4-0.8c0.1,0.4,0.4,0.8,0.2,1.2c0,0.1,0.1,0.3,0.1,0.3s-0.7,0.2-1,0.2
		c-1,0.1-1.4,0.1-1.7,0.1c-0.1,0-0.3-0.1-0.4-0.2c-0.1-0.2-0.2-0.4-0.3-0.6c0,0.8,0.5,1.7,1.3,1.9c-0.7,1.9-1.1,2.1-1.2,2.2
		c-1.1-0.1-2.4-0.6-2.9-1c-0.2-0.2-0.6-0.5-0.7-0.6c-0.4-0.4-0.7-0.6-0.8-0.8c0.5,0.9,0.9,1.5,1.3,2.6c0.2,0.7,0,1.2-0.2,1.6
		c-0.1,0.2-0.2,0.9-0.2,0.9s-0.6-0.4-0.8-0.5c-0.8-0.3-1.5-0.7-1.8-1.1c-0.1-0.2-0.8-0.9-1-1.4c0,0,0.6,0.3,1,0.2
		c0.2,0,0.6,0.7,0.6,0.7s-0.1-0.6,0.1-0.9c0.4-0.4,0.4-0.7,0.4-0.7c0,0,1.1,2.4,1.1,2.4s-0.2-1.5-0.9-2.7c-0.1-0.2,0.5-1.5-0.6-2.8
		c0.7,1.7,0,3.3-0.1,3.5c-0.1,0.1-0.2,0.6-0.2,0.6S224,51,223.8,51c0,0-0.1,0-0.1,0c-1.9-1.3-1.9-2.4-1.7-2.6
		c0.1-0.1,1.7-0.3,2.1,1.6c0,0,0.2-1-0.8-1.6c0.5,0.1,1.4,0.3,1.4,0.3s-0.1-0.5-0.1-0.6c-0.1-0.7,0.4-1,0.4-1
		c0.7,0.2,2.3,0.4,2.7,0.5c0.4,0.5,1,1.2,2.1,2.4c0,0-2-2.3-2-2.3c0,0,0.5,0,1-0.1c0.4-0.1,1-0.2,1-0.2s0-1.3,0-1.6
		c0-0.6-0.1-0.9-0.4-1.4c-0.1,0-0.2-0.1-0.6-0.2c0.7,1,0.6,2.2,0.4,2.8c-0.3,0.1-2.2-0.1-3.5-0.3c-1.7-0.2-3.9-1.7-4.7-3.3
		c0-0.2-0.1,1.3-0.1,1.3s-1-0.1-1.2-0.1c-1-0.1-1.9-0.4-2.2-0.5c0,0-0.3,0.2-0.3,0.2c0.4,0.2,0.8,0.2,1.6,0.4
		c0.2,0.3,1.1,1.5,2.6,1.9c0,0-1.4-0.7-2-1.5l-0.2-0.3c0.4,0.1,2,0.3,2,0.3s-0.1-0.9-0.1-1c0.3,1.2,1.5,2.1,1.5,2.1
		c0.6,0.4,1.2,0.7,1.7,0.9c-0.1,0.2-0.1,0.4-0.2,0.7c0,0.2,0.1,0.7,0.1,0.7s-2.3-0.4-2.6-0.5c-3.3-0.4-5.2-2.4-5.5-3.7
		c0,1.2-3.9-0.6-4-0.7c0.1,0,2.1,1.6,3.4,1.7c0.2,0-0.8,1-1.5,0.9c-1.1-0.1-2.4-1.2-2.3-1.7c0,0-0.3,0.3-0.4,0.5
		c0.3,0.1,0.5,0.2,0.7,0.4c0.1,0.1,0.8,0.9,0.9,1.8c-0.8-1.1-1.7-0.9-2-1c0.1,0.1,0.2,0.2,0.4,0.3c-0.5,0-0.7,0-0.7,0
		c0.9,0.5,1,1.2,1.8,1.7c2,1.2,2.5,0.3,2.4,0.4c0.1,0.1-0.5,2.3-5.2-1.6c-0.7-0.6-1.5-0.6-2.4-0.4c0.2-0.5,0.3-1,0.3-1
		s2,0.3,2.8,0.2c-0.9-0.1-2.1-0.4-2.6-0.9c-0.3-0.6-0.2-1-0.2-1.3l0.4-0.2c0.7,0.4,2.2,1.3,2.5,1.4c-0.7-0.5-1.7-1.3-1.6-1.5
		c0.2,0.1,0.4,0.2,0.6,0.3c0-0.2,0.1-0.4,0.1-0.6h0.7c-0.3-0.2-0.5-0.3-0.7-0.4c0,0,0-0.1,0-0.1c0.2,0,1.4,0.7,2.3,1.1
		c-1.2-0.5-1.3-0.9-1.2-1l3.5,1.6c0,0,1,0.3,1.5,0.2c0.4-0.1,2.3-0.5,2.3-0.5c0-0.1-0.7-0.8-1-1.1l-0.1-0.2c0.9,0,1.8-0.4,1.8-0.4
		c0.1-0.1,0.2-0.1,0.3-0.2l0,0c0.6,0.5,1.1,0.8,2.7,1.5c0.1,0.1,1.3,0.6,3.2,0.6c0.2,0,3.1,1.7,3.1,1.7l-1.4-1.1
		c0,0-0.6-0.5-0.8-0.7c1-0.1,2-0.6,2.4-0.8c0,0,1.3,0.3,2,0.1c0,0,0.1,0,0.2,0c0.4,0.3,1.9,1.4,3.5,0.8c0,0,0,0,0,0
		c0.5,0.3,0.7,0.9,0.7,0.9c-0.1,0.7-0.8,1.1-1.1,1.2C234.5,45.7,234.6,45.1,234.5,44.7 M222.9,59.8c-0.4-0.1-0.6,0-1.1-0.3
		c-0.5-0.4-0.4-0.8-0.4-0.9c-0.2-0.1-0.3-0.2-0.4-0.3c-1.5-1.4-0.7-4.2-0.6-4.7c0-0.1,1,3.6,2.3,4.8c0.5,0.4-0.6,0.4-1.2,0.2
		c0.9,1,2.4,0.2,1.5-1.3c1.5,1.2,0.6,2.5-0.2,2.9C223,60.1,223,59.9,222.9,59.8 M223.4,57.4c-0.6-0.2-0.9-0.5-1.1-0.7
		c-1.1-1.4-0.5-1.7-1.6-3.2c0.1,0.1,0.2,0.2,0.6,0.3c0.1,0,0.6,0.5,0.6,0.4c0,0,0-0.7,0.1-1.2c1.1,1.2,1.3,2.8,1.3,2.8
		c0.3-2.2-0.8-2.7-1.2-3.9c0,0.1,0,0.2,0,0.4l0,0c0,0.2-0.1,0.3-0.3,0.5c-0.2,0.2-0.1,0.9-0.1,0.9s-0.9-0.9-1.2-1.1
		c-1.2-0.9-1.1-2.6-1.2-3.5c-0.3-2.1-1.6-2.2-1.6-2.3c0-0.1,2.2,0.7,3.3,3.7c0.2,0.6,0,1.2,0,1.2s0.5-0.9-0.5-3
		c-0.6-1.1,0.1-0.8,0.4-0.7c0.5,0.9,1.2,1.9,1.3,2.9c0.1,0.9,0.5,1.5,1.1,2.3c0.9,1.2,1.3,1.7,1.4,2.2c0.1,0.5-0.1,1-0.3,1.4
		c-0.1,0.2-0.1,1.1-0.1,1.1S223.6,57.4,223.4,57.4 M220.7,64.3c-2.6-0.4-0.6-3.4-0.7-4.1C220.3,60.9,219.7,62.7,220.7,64.3
		 M213.7,53.9c0.3,0.8,1.2,1.3,0.7,2.9c-0.3-0.4-0.3-1.4-1-1.6C213.4,54.8,213.7,54.3,213.7,53.9 M212.4,52c-0.1-0.4,0-0.9-0.2-1.4
		c0.6,0.7,1.6,0.9,1.7,2.6C213.5,52.9,213.1,51.9,212.4,52 M215.3,46.4c0-0.8,0.3-0.9,0.4-0.9c0.2-0.2,0.4-0.2,0.4-0.2
		c0.3,0.6,0.4,0.7,0.8,1c-0.1,0.3-0.3,0.6-0.4,1.1c0,0.6,0.5,1.3,0.5,1.3s-1-0.4-1.5-0.5c-1.3-0.4-2.4-1.4-2.6-2.2
		c0,0,0.7,0.5,1.4,0.3c0.1,0,0.6-0.2,0.6-0.2s0,0.5,0.2,0.8c0.2,0.3,0.9,1.1,0.9,1.1C216.1,47.8,215.3,46.8,215.3,46.4 M218.9,55.4
		c0,0-0.6-0.9-0.6-1c-0.2-0.2-0.4-0.6-0.4-0.5c0.1,1.1-0.3,2-0.4,2.7c-0.3-0.1-1.3-1.6-1.5-2.3c-0.4-1.4-0.3-2.7-1.2-3.6
		c1.3,0.5,1.3,3.1,2.3,4.4c0.5-1,0.9-4.1,1-4.3c0,0-0.1,0.6-0.1,1.4c0,2.1,1.1,0.6,1.2-0.1c0-0.2,0.1,0.5-0.1,1.3
		C218.7,54.6,218.9,55.4,218.9,55.4 M219,61.7c-1.6,1.7-1.6-2.6-1.8-3.8C218.2,61.8,219,61.6,219,61.7 M218.8,51
		c-1.3-0.3-1.3-2.8-1.7-3.9c0.6-0.2,0.9,0.8,1.3,1.5C218.8,49.6,219.2,50.1,218.8,51 M215.7,50.4c0.4,0.1,0.9,0.1,0.9,0.1
		s0.2-0.6,0.2-0.8c0-0.3,0.1-0.4-0.1-1.1c0.1,0.1,0.4,0.4,0.3,1.7c0,0.1,0.1,1.4,0.1,1.4s-0.4-0.9-1.1-1c-1.5-0.1-1.9-1.3-1.9-1.3
		c0.2,0.1,0.3-0.1,0.5,0.2C214.7,50,215,50.2,215.7,50.4 M214.4,57.7c0.7,0.9,1.4,2.9,0.7,3.9C214.9,60.7,214.2,59.1,214.4,57.7
		 M215.1,56c0-0.1,0.1-0.2,0.1-0.3c0.3,0.1,0.6,0.1,0.8,0.3c0.2,0.2,0.5,0.9,0.5,1.2c0,0.1-0.4,0-0.5,0.2c-0.1,0.1-0.2,0.7-0.4,0.9
		C215.6,57.6,215.3,56.5,215.1,56 M216.3,64.2c0-0.5-0.1-2.1-0.2-2.6c-0.1-0.7-0.1-1.8-0.2-2.8C216.4,58.9,217.8,61.7,216.3,64.2
		 M217.9,66.9c-1.5,0.6-1.6-1.4-1.7-2.3C216.4,66.9,218,66.9,217.9,66.9 M217.8,63.7c0,0,0.2,1.5,1.2,3
		C219,66.7,217.5,66.6,217.8,63.7 M218.5,59.2c0.2-0.9,0.4-1.4-0.3-2c0,0,0.2-0.8,0.2-1.1c0.3,0.1,0.3,0.3,0.5,0.5
		c0.7,0.8,1.5,2.8,0.4,4.1C219.1,60.1,218.4,59.6,218.5,59.2 M223.9,52.7c0.7,0.7,1.9,1.7,3.4,1.5l-2.7,2.9
		C225.7,55.2,224.3,53.3,223.9,52.7 M207.2,48c0.6,0.2-1.9,0.1-2.4-0.9c0.3-0.2,0.9-0.6,0.9-0.6s1.8,0.3,2.5,0.1
		c-1.2,0.4-1.4,0.3-1.5,0.5C206.7,47.6,206.8,47.8,207.2,48 M204.5,40.8c0,0,0-0.1,0-0.1c-0.3,0-0.6-0.1-0.6-0.1c0,0,0,0,0-0.1
		c-0.1,0-0.2,0-0.2,0c-0.3,0-0.6,0.3-0.8,0c-0.1,0.1-0.2,0.2-0.3,0.4c-0.2,0.4-0.3,0.8-0.8,0.4c0.2-0.3,0.3-0.5,0.4-0.8
		c-0.8-0.1-1.3,1.1-1.3,1.1l-0.2-0.1c0,0,0-0.4,0.3-1.1c0.2-0.3,0.6-0.7,0.6-0.7l-0.1-0.3c0,0-1.5,0.5-1.5,2.1
		c0,0.3,0.3,0.8,0.4,0.9c0.4,0.5,1.2,0.7,1.6,0.5c1.3-0.6,1.3,0.3,1.3,0.3s-2.6,1.6-4.1-0.6c-0.5-0.7,0.2-1,0.4-1.7
		c0.3-1.5,2.1-2.4,3.2-2.6c0,0,0.4-0.1,0.7-0.2c1.3-0.2,2.5-0.4,2.7-0.4c0.5-0.2,1.1-0.4,1.6-0.6c0.1,0,1-0.2,1.2,0.1
		c-1.2-0.2-2.2,0.8-2.8,0.9c0,0-1.4-0.2-2,0.3c0.2,0.5,1,0.5,1.6,0.3c0.6-0.2,2.1-0.5,2.5-0.6c0.1,0,1.2-0.3,1.2-0.2
		c0,0.1-0.9,0.5-1,0.6c-0.2,0.1-0.4,0.3-0.5,0.2c-0.2-0.1-0.4-0.2-0.6-0.2c-0.2,0.2-0.9,0.3-0.9,0.3c-0.6,0.1-0.6,0.6-1,0.6
		c-0.9-0.1,1.4,0.4,2.1,0.6c0.7,0.2,1.8,0.8,2.5,1c-0.7,0.8-1.9,0.6-3,0.3c0.1-0.2,0.2-0.4,0.3-0.7c-0.9,0-1.5-0.5-2.3-0.5
		c0,0-0.4,2,1.9,1.9c0.2,0,1,0.2,1.3,0.4c-0.8-0.1-1.1,0-1.4,0.2l-0.5,0.7c-0.2-0.4-0.3-1.1-1-0.9c0.1,0.1,0.1,0.2,0.2,0.4
		c-0.1,0-0.3,0.2-0.3,0.1c-0.6-0.2-0.3-0.9-0.4-1.1c-0.1,0-0.2,0.7-0.4,0.8c0-0.4-0.1-0.9-0.1-1.3c-0.3,0-0.4,0-0.7,0.1
		c0-0.2,0.6-0.4,0.9-0.6C204.7,40.9,204.6,40.8,204.5,40.8 M201.1,44.2c-0.2,0.3-0.3,0.7-0.6,1c-0.2-0.4-0.5-0.5-0.6-0.8
		c0-0.1,0.1-0.7,0.2-0.7C200.4,44,200.6,44.1,201.1,44.2 M208.8,40.1c0.7,0,1.6-0.4,2.3-0.1c0,0.1-0.3,0.3-0.3,0.4
		c-0.3,0.1-0.6,0.2-0.8,0.3c-0.5-0.2-0.9-0.3-1.3-0.4V40.1z M207.8,39.6c0.3-0.1,0.8-0.5,1-0.7c0,0,0.2,0.5,0.5,0.3
		c0.1-0.1,0.7,0.2,0.7,0.1c-0.1,0.2-0.6,0.2-0.6,0.3C209.2,40,208.7,39.8,207.8,39.6 M209.7,39.1c0.6-0.6,1.8-0.6,2.4,0.5
		C211.4,39.5,210.6,39.2,209.7,39.1 M204.9,43.3c0.5,0,2.2,0.3,2.3,1c-1.3,0.6-2.2,0.2-2.5,0C204.5,44.3,205.5,44,204.9,43.3
		 M211.9,49.1c-1.4,0.2-3-0.8-4.2-1.4C207.2,47.5,208,46.8,211.9,49.1 M208.6,38c0.8-0.4,3-1,3.7-0.9C211.9,37.8,209.2,38,208.6,38
		 M204.3,37.6c-1.6,0.4-5.8,2.2-6.9,2.7c-0.1,0,2.8-2.2,4.9-2.8c1.6-0.5,6.2-1.1,8.5-1.6C210.8,36,206.5,37.1,204.3,37.6 M198.1,45
		c0.3,0,0.5,0.3,0.8,0.4c-0.4,0.4-1.4,0.1-2,0.8c-0.1-0.2,0-0.9-0.1-1.1C197.1,45.1,197.8,45,198.1,45 M207.4,51.3
		c1,0,1.6,0.5,1.6,1.2C208.4,52.1,207.9,51.7,207.4,51.3 M210.7,55.4c-0.4-0.6-1.5-1.8-1.9-2.3C210.7,53.3,211.1,54.4,210.7,55.4
		 M211.4,52.7c-0.6,0-0.6-1.3-1.5-0.8c0-0.4,0.2-0.6,0.2-0.9C210.9,51.5,211.6,52,211.4,52.7 M211.4,54.8c0.1-0.3,0.3-0.7,0.5-1
		c0.8,0.5,1.2,1.7,0.8,2.2C212,55.8,212.5,54.6,211.4,54.8 M212.4,57.4c0.1,0,0.9,0.3,1,0.3c0,0.6,0.2,1.4,0.6,2.7
		c-0.1,0-0.5-0.1-0.5-0.1C213.4,60.1,213,58.7,212.4,57.4 M214.3,63.8c-0.6-0.7-0.1-1.9-0.6-2.7C214.7,61.6,214.6,61.9,214.3,63.8
		 M214.7,64.8c0.5,0.8,0.7,1.6,0.8,2.3c0.2,0.4,0.5,0.8,1,0.9c-0.1-0.3-0.1-0.6-0.1-0.9c0.5,1.8,1.7,2.1,1.7,2.1s-1,1.1-1.5-1.1
		c-0.2,0.1-0.7,0.3-1-0.6c0,0.6-0.1,1-0.1,1C215,66.6,214.7,64.8,214.7,64.8 M215.5,68.9c0,0,0.3,2,1.5,3.1
		C217,71.9,215.4,71.9,215.5,68.9 M216.5,74c0.5-2.5,4.4-10.2,5.9-12.3c-0.3,0-0.4,0-0.7,0c-0.6,0-1.1-0.5-1.1-1.2
		c0-0.3-0.7-2-0.6-2.4c0.3,0.3,1.4,1.8,1.8,2.2c0.3,0.4,0.3,1.1,0.8,1.1c1.8-2.7,4.1-5.5,6.7-8.2c-1.2,1.1-2,1-2.4,0.3
		c0-0.1,0.5-0.6,0.5-1.4c0-0.6-0.3-1.2-0.4-1.6c0.3,0.2,0.6,0.4,0.9,0.5c0.6,0.6,0.8,1.5,0.8,1.9c-0.1-1-0.4-1.5-0.7-1.8
		c0.7,0.2,2.7,0.6,2.7,0.6s-0.2-0.4,0.1-0.8c0.5-0.8,0.7-1.5,0.7-1.8c0.2,0,0.3,0,0.5-0.1c-0.3-0.1-0.5-0.1-0.7-0.4
		c0.4-0.1,1.1-0.3,1.8-0.4c0.6-0.1,1-0.2,1-0.2s-0.5-0.2-0.4-0.3c0-0.1,0.1-0.3,0-0.5c0.2,0.1,0.8,0.2,1.9-0.4l1.2,0
		c0,0-0.7-0.6-0.5-0.7c0.2-0.2,0.2-0.3,0.2-0.7c0-0.1,0-0.1,0-0.2c0.3,0.3,0.9,0.6,2.6-0.2c-0.4-0.2-0.9-0.4-1.2-0.5
		c0.1,1.2-0.9,0.3-1.5,0.6c-0.5-0.3-1-0.9-1.8-0.5c0-0.1-0.1-0.2-0.1-0.3c-0.2-0.2-0.3-0.4-0.4-0.5c0.2,0,0.6,0,0.6,0
		s-0.2-0.5-0.3-0.6c-0.5-1-0.6-1.6-2.7-2.3c-0.1-0.1-0.2-0.4-0.2-0.5c0.1-1.2-1.5-1.9-1.7-2.1c0,0,1.6,1,1.5,1.8
		c0,0.2,0.1,0.6,0.1,0.6s-1.2,0.1-1.5,0.1c-2-0.1-5.3-2.7-6-3c0,0,0,0,0,0c1.2,1.1,1.8,1.6,2.8,2.4c1.4,0.8,1.9,0.9,4.2,0.9
		c1.1-0.4,3,1.1,3.2,2.1c0,0.1,0.2,0.4,0.2,0.4s-0.6,0-0.7,0.1c-0.8,0.1-1,0.2-2,0c-0.7-0.2-1-0.4-1.1-0.5c0.4,0,0.9,0,0.9,0
		s-0.5-2.1-0.8-2c-0.1,0,0.3,0.3,0.4,1.1c0,0.2,0.1,0.7,0.1,0.7s-1.1,0-1.4,0.1c-0.4,0.1-0.8,0-1.3-0.1c-0.5-0.2-1.9-0.9-2.3-1.9
		c0,0,0,0,0,0c0.6-0.2,0.3-0.2,0.3-0.3c-2.6,1.1-5.2-0.6-5.2-0.6c0,0,0-0.6,0-0.9c1.7,0.6,3.6,1.1,3.6,1.1s-3.5-1-4.9-2.1
		c0.8-0.2,1.3-0.4,1.4-0.3c0.5,0.2,1.5,0.5,2.5,0.2c0,0,0,0,0,0c0,0,0,0,0,0c0.4-0.1,0.8-0.4,1.2-0.7c-2.4,1.6-5.3-1.1-5.7-1.2
		c-0.1,0-0.8-0.2-0.9-0.2c0.3,0.3,1.2,1.1,2.2,1.6c0.2,0.1-7.3,1.6-6.5-1.1c0.2-0.4,2.1,0.1,4.7,0.8c-1.1-0.3-5.4-1.7-6.6-1.6
		c1.4-0.8,3.6-0.7,4.2-0.7c0.6,0,1.2-0.1,1.8-0.1c0.2,0.2,0.9,0.6,2.2,0.9c0.5,0.1,1,0.2,1.6,0.1c2.4,0.7,2.1,1.8,2.1,1.8l0.2-0.2
		c0.6-0.8-0.9-1.4-1.8-1.7c0.3-0.1,0.6-0.2,1-0.4c0.1-0.1,0.7-0.3,0.7-0.3s-1.4-1.1-2.1-1.3c0,0,1.5,1.2,1.5,1.2s-0.6,0.3-0.8,0.4
		c-0.9,0.3-1.2,0.5-1.9,0.4c-1.5-0.3-2-0.7-2.2-0.8c1-0.1,1.9-0.3,2.6-0.4c-2.2,0-4.2,0.6-5.8,0c0.7-0.1,1.3-0.3,1.9-0.4
		c4.4-1.2,6.4-1.1,6.4-1.1s-1.2-0.3-1.2-0.4c0-0.1,0.7-0.4,1.6-0.3c-0.5-0.1-1.2-0.3-1.9-0.3c-0.2,0-0.4-0.4-0.4-0.4
		c-0.2-0.1,1.5-0.2,1.5-0.2c-2.2-0.2-3.5,0-3.8,0c0.3,0,1.4,0.1,1.9,0.4c0.3,0.2,1.2,1.1,1.2,1.1s-0.7,0-1.6,0.2
		c-3.2,0.7-5,0.6-5.6,0.8c1.5-1.2,2.5-2.2,3.6-2.4c-0.4,0.1-1.3,0.2-2.1,0.4c-0.6,0.2-0.8,0.3-1.1,0.4c-0.1,0.1-0.2,0.2-0.4,0.3
		c0.1,0,1,0,1.2,0c-1.9,1-5.1,2.4-5.4,2.5c0-0.1,3.7-2.3,3.8-2.4c0-0.1-0.3-0.1-1.3,0.2c-1.2,0.4-1.9,1.2-5.7,2c0-0.1,3-2.3,3.2-2.4
		c-0.1,0.2-0.8,1-0.9,1.3c2-1.6,6.6-3,6.6-3s-1.4,0.4-2.6,0.7c-0.7,0.1-1.9,0.3-1.5,0.1c1.2-0.6,2-1.7,1.9-1.6
		c-0.8,0.7-2.4,1.5-2.6,1.6c-1.4,0.7-2.6,2.1-3.1,2.3c-0.4-0.2-0.2-0.8,0.4-1.5c-0.3,0-0.6,0.7-1.4,0.7c0.2-0.2,1.7-2.4,1.9-2.8
		c0,0,0,0,0,0c-0.7,0.9-1.2,1-2,2c-0.4,0.5-0.3,1-1.1,1.8c-0.5,0.4-1.2,1-1.7,1.1c0,0,0-0.2,0.1-0.3c-0.1,0.1-0.1,0.1-0.1,0.1
		c0.1-0.1,0.1-0.2,0.2-0.3c0.2-0.5,0.5-1.2,0.5-1.3c-1.1,0.2-1.8,1.6-3,2.5c0.1-0.9,0.2-1.5,0.4-2c-0.5,0.6-0.9,1.5-2,2.1
		c0.2-0.4,0.3-0.9,0.3-1c-0.4,0.9-1.2,1.6-2.1,2.5c0.3-1,0.5-2,0.4-1.8c-1.3,1.8-2.6,2.4-3,2.7c-0.1,0,0.6-1.5,1.6-3.1
		c0.8-1.3,2.1-3.1,3.1-4c0.1,0.1-1.8,3.1-2.7,4.7c-0.1,0.1,1.8-1.4,2.2-2.2c0.5-0.8,0.6-1.1,1.4-2c-0.3-0.1-1.4,1.4-1.7,1.5
		c0.3-0.7,2.3-3.7,2.5-4c0.4-0.6,1.2-1.5,1.9-1.8c1-0.5,1.2-0.4,1.2-0.4c-0.1,0.4-2.3,2.1-2.3,2.1c1.6-0.9,2-1.2,2.4-1.5
		c0.1-0.2,0.7-0.8,0.7-0.8s-2.2-0.5-3.9,2.1c0,0-0.4,0.4-0.4,0.4c-0.1,0.1-2.1,2.1-2.8,2.3c0.2-0.2,2-2.5,3.1-3.8
		c1.3-1.6,2.4-2.1,3.4-2.9c1.3-1.1,2-1.6,3.4-1.9c-1,0.6-2.1,1.9-2.1,1.9c-0.6,0.4-0.9,0.7-0.9,0.7c2.6-1.3,4.4-1.1,4.4-1.1
		s-0.4,0.3-0.7,0.5c-0.3,0.2-0.5,0.4-1.6,0.7c-0.2,0-0.4,0.1-0.6,0.2c-0.6,0.2-1.8,0.9-0.8,0.5c0,0,0.4-0.2,0.9-0.3
		c0.7-0.1,0.6,0.3,0.6,0.3c-0.2,0.5-1.7,1.3-1.7,1.3c0.7-0.3,1.1-0.5,1.3-0.7c0,0,0,0,0,0c0,0,0,0,0,0c0.4-0.1,1-0.3,1.7-0.4
		c1-0.1,1.8,0,1.8,0c-0.3,0.5-2.1,1.6-2.1,1.6c1.7-0.3,2.6-1.5,2.6-1.5s-0.8-0.3-1.1-0.4c-0.2,0-1.2-0.3-2.6,0.5
		c0.1-0.1,1-0.8,1-0.8s-0.3-0.1-0.3-0.1c0.5-0.1,1.5-0.8,1.7-0.9c0.5-0.3,1.7-0.7,3-0.7c0.5,0,1.9,0.1,1.9,0.1
		c-0.2,0.3-3.7,1.1-3.7,1.1c0.9-0.1,1.5-0.1,1.9-0.1c-0.2,0.1-0.4,0.2-0.6,0.3c0,0,0.5-0.3,1.4-0.3c1.5-0.1,1.8,1,1.8,1
		c-0.3,0.4-2.8,1-2.8,1c1.2,0,1.9-0.2,2.3-0.3c-0.4,0-0.7,0-0.7,0c0.3,0,0.5,0,0.7,0c0.3-0.1,0.4-0.2,0.6-0.3c0.2-0.1,1-0.6,1-0.6
		c-1.2-0.6-2.1-0.9-2.8-0.9c0.6-0.2,1.6-0.8,1.6-0.8s0.7-0.1,0.9-0.1c0.7,0,0.9,0.2,1.3,0.2c0.2,0-0.9-0.5-1-0.5
		c-0.3-0.4,0.6-0.7,1.3-0.8c0.3,0,0.6-0.1,0.7-0.1c1.1,0,1.6,0.5,3.4,0.2c-0.2-0.4-1.6-0.8-1.6-0.9c0.9,0.1,3.4,0.7,4.8,1.2
		c-1.9-0.2-4.4,0-4.5,0.1c1.2-0.1,3.3,0,4.7,0.3c1.4,0.2,2.4,0.9,2.4,1c-0.1,0-1.1,0-1.6-0.1c-0.6-0.1-1.1-0.3-1.8-0.5
		c-0.5-0.1-1.9-0.1-1.9,0c1.1,0.2,2.5,0.5,3.7,0.6c0.4,0.1,0.6,0.2,0.8,0.3c-2.4,0.2-5.9-0.9-5.2-0.6c2,0.6,1.3,1.2,0.2,1.4
		c0,0,0.7,0.1,0.9,0.2c0.7,0.2,1.1,0.6,1.1,0.6s-0.8-0.8-0.8-0.8c0-0.4,2.4-0.8,4.9-0.1c0-0.2,0.1-0.4-0.1-0.6
		c2.2,0.5,3.2,2.1,3.2,2.2c-0.6-0.4-1.7-0.7-2.4-0.8c0.7,0.6,2.1,1.5,2.1,1.5s1.1-0.1,2.3,0.4c0.7,0.3,1.2,0.7,1.5,1.3
		c-0.8-0.6-1-0.6-1.3-0.6c0.6,0.7,2.5,1.6,3.1,2.5c-1.1-0.9-4.1-1-4.4-0.9c3.4,0.8,3.9,1.1,4.7,4c0.1-1-0.4-2.5-1.1-2.9
		c2,0.8,1.5,1.5,1.5,1.5c0.6,0.1,1.6,1.2,1.6,1.2s-1.3-0.6-1.6-0.2c0.5,0.3,0.7,0.8,0.9,1.2c0,0.1,0.8,0.9,2.2,1.9
		c-0.8-0.1-0.9-0.2-1.1-0.2c-0.2,0.1-0.2,0.2-0.3,0.3c1.1,1.1,2.3,1.2,2.8,2.8c-0.5-0.4-2.3-0.9-2.8-1.1c2.9,1.4,2.1,2.1,4.7,3.8
		c-0.1,0-1.3,0.2-1.6,0.5c0.4,0,2.5,1.5,1,1.6c-7.6,4.4-17.1,12.4-26.6,28.5c-0.3,0.6-0.7,1.2-1,1.8C217,75.1,216.4,74.5,216.5,74
		 M216.9,76.6c0-0.1,0-0.1,0.1-0.2c1.2-2.3,3.7-6.5,8.3-12.5c0,0,14.2-16.9,20.3-18c0.2,0.1,0.4,0.3,0.8,1.3l0,0.1
		c0.1,0.3,0.2,0.7,0.3,0.8c0,0,0,0,0,0c-3.4,1.2-9.5,6.3-15.3,12.9c-7.4,8.3-14.1,18.2-14.1,18.2s-0.5-0.6-0.6-1.9
		C216.7,77.3,216.8,76.9,216.9,76.6 M247.7,51.8c-0.2,0.1-0.4,0.2-0.6,0.4c-0.2,0.1-0.3,0.2-0.5,0.3c-10.9,6.6-19.1,18-24,23.8
		c-1.4,1.8-3.1,3.7-4.7,6c-0.5-0.2-0.8-0.4-0.7-0.7c0-0.1,0.2-0.6,0.3-0.9l0.5-0.7c16.5-24.2,26.5-29.4,28.9-30.4
		c0.1,0.1,0.3,0.3,0.5,0.5C247.8,51.1,247.8,51.5,247.7,51.8"/>
	<path class="st1" d="M228.7,52.8c0,0,0,0.1,0,0.1C228.7,53,228.7,52.9,228.7,52.8"/>
	<path class="st1" d="M73.5,132.3c0.2-0.8,1-1.3,1.9-1.3h4.3h1.7h1h10.3c1.8,0,2.7,0.9,2.7,2.8v0.9v3.8c0,0,0,1.6-1.7,1.6
		c-1.7,0-1.3-3.6-4.4-3.6l-4.2,0c-0.5,0-0.9,0.4-0.9,0.9v8.6c0,0.5,0.4,0.8,0.9,0.9h2.7c3.1,0,2.7-3.6,4.4-3.6
		c1.7,0,1.7,1.6,1.7,1.6v3.8v2.1v3.5c0,0,0,1.6-1.7,1.6c-1.7,0-1.3-3.6-4.4-3.6h-2.7c-0.5,0-0.8,0.4-0.9,0.9v7.7
		c0,0.5,0.4,0.9,0.9,0.9h4.8c2.8,0.2,3.8-3.1,5.7-2.3c2.2,0.9,1.5,2.2,1.5,2.2l-1.8,3.2l-0.4,0.7c-0.6,1-1.4,1.5-2.5,1.4h-10l-2.6,0
		h-4.3c-0.8,0-1.6-0.5-1.9-1.3c-0.3-1,0.1-1.7,1.7-2.6c1.1-0.6,2.1-1.4,2.1-3.2l0-14.6v-7.2c0-1.9-1.1-2.6-2.1-3.2
		C73.6,134,73.2,133.3,73.5,132.3"/>
	<path class="st1" d="M105.7,132.3c0.2-0.8,1-1.3,1.8-1.3h4.3h1.7h1h12c1.8,0,2.7,0.9,2.7,2.8v0.9v3.8c0,0,0,1.6-1.7,1.6
		c-1.7,0-1.3-3.6-4.4-3.6l-5.9,0c-0.5,0-0.9,0.4-0.9,0.9v8.6c0,0.5,0.4,0.8,0.9,0.9h2.7c3.1,0,2.7-3.6,4.4-3.6
		c1.7,0,1.7,1.6,1.7,1.6v3.5v2.4v3.5c0,0,0,1.6-1.7,1.6c-1.7,0-1.3-3.6-4.4-3.6H117c-0.5,0-0.8,0.4-0.9,0.9v7
		c0.1,1.5,0.9,2.3,1.8,2.8l0.3,0.2c1.6,0.9,2,1.6,1.7,2.6c-0.2,0.8-1,1.3-1.9,1.3h-4.3l-1.8,0l-0.3,0h-4.3c-0.8,0-1.6-0.5-1.9-1.3
		c-0.3-1,0.1-1.7,1.7-2.6c1.1-0.6,2.1-1.4,2.1-3.2l0-14.6v-7.2c0-1.5-0.7-2.3-1.5-2.8c-0.2-0.1-0.4-0.2-0.6-0.4
		C105.8,134,105.4,133.3,105.7,132.3"/>
	<path class="st1" d="M284.7,140.5l0,1.2c0,0.5,0.4,0.9,0.9,0.9h1.6c0.7,0,1.3,0,1.8,0c3.9,0,8.5-1.6,8.5-7.9
		c-0.1-5.8-3-9.2-8.1-9.2c-0.4,0-2.3,0-3.9,0.1c-0.5,0-0.8,0.4-0.8,0.9L284.7,140.5z M291.8,120.4l1.4,0c2.5,0,4.6,0.6,6.2,1.6
		c3.4,2.1,4.9,6.3,4.9,11.4c0,1.7-0.4,3.3-0.9,4.6c-1.8,4.6-5.9,7.3-6.8,7.8c-0.1,0.1-0.1,0.1-0.1,0.2c0,0.8,0.1,1.7,0.2,2.5
		c1,5.7,5.6,13.4,11,15.7c1.5,0.7,2.4,0.9,2.5,2c0,0.1,0,0.3-0.1,0.5c-0.2,0.6-0.9,1.6-2.4,1.6c-6.2,0-11.4-5.3-14.6-10.4
		c-2.1-3.1-3.7-6.6-4.8-9.9c-0.1-0.2-0.2-0.4-0.5-0.4c-0.9,0.1-1.3,0.1-2.1,0.1c-0.6,0-1,0.4-1,0.9v11.6c0.1,1.5,0.9,2.2,1.7,2.8
		c0.1,0.1,0.2,0.2,0.4,0.2c1.6,0.9,2,1.6,1.7,2.6c-0.2,0.8-1,1.3-1.9,1.3h-4.3l-2.8,0l-0.3,0H275c-0.8,0-1.6-0.5-1.9-1.3
		c-0.3-1,0.1-1.7,1.7-2.6c1.1-0.6,2.1-1.4,2.1-3.2l0-25.1v-7.2c0-3.6-4.2-3.1-4.2-5.1c0-2,1.8-2,1.8-2h7.3h1h4L291.8,120.4z"/>
	<path class="st1" d="M53.6,160.2c0.1,1.7,1.3,2.4,2.3,3c1.4,0.8,1.8,1.6,1.5,2.5c-0.2,0.8-1,1.3-1.9,1.3h-4.3h-2.4h-4.3
		c-0.8,0-1.6-0.5-1.9-1.3c-0.3-0.9,0.1-1.6,1.5-2.5c1.1-0.6,2.4-1.3,2.4-3.3v-7.2l0-5.5l0-9.8c0-0.5-0.4-0.9-0.9-0.9h-2.6l-2,0
		c-3.2,0-3.4,2-5.1,2c-1.8,0-1.3-1.5-1.3-1.5l1.3-4.6c0.4-1.3,2.1-1.4,2.7-1.4l22.1,0l3.3,0c0,0,2.1-0.1,1.9,1.4l-1.2,4.6
		c0,0-0.2,1.5-1.6,1.5c-2.1,0-0.1-2-3.3-2l-2.7,0h-2.6c-0.5,0-0.9,0.4-0.9,0.9v9.8V160.2z"/>
	<path class="st1" d="M323.8,131h4c0.8,0,1.6,0.5,1.9,1.3c0.3,1-0.1,1.7-1.7,2.6c-0.2,0.1-0.4,0.3-0.6,0.4c-0.8,0.6-1.5,1.3-1.5,2.8
		v0.2l0,21.9c0.1,1.4,0.9,2.1,1.7,2.7c0.1,0.1,0.3,0.2,0.4,0.2c1.6,0.9,2,1.6,1.7,2.6c-0.2,0.8-1,1.3-1.9,1.3h-4.3l-0.8,0l-1.1,0
		h-4.3c-0.8,0-1.6-0.5-1.9-1.3c-0.3-1,0.1-1.7,1.7-2.6c1.1-0.6,2.1-1.4,2.1-3.2v-0.2c0-21.9,0-21.9,0-21.9c-0.1-1.4-0.9-2.2-1.8-2.7
		l-0.4-0.2c-1.6-0.9-2-1.6-1.7-2.6c0.2-0.8,1-1.3,1.9-1.3h4.3h0.8H323.8z"/>
	<path class="st1" d="M363.6,133.5c0.5,0.3,0.9,0.7,1.1,1.4l1.8,5.4c0,0,0.6,2-1.9,2c-2.4,0-3.3-2.4-6.6-4.3l-1.4-0.7
		c-2.1-1-4.2-1.5-6-1.5c-4.8,0-8.4,4.8-8.4,10.1c0,9.7,8.8,15.3,15.1,15.3c3.1,0,5.8-1.7,7.1-4.7c0.4-1.1,1.9-0.3,2.1,1.4v4.1
		c0,0.2-0.1,0.3-0.2,0.4c-3.2,2.9-7.5,4.6-12.1,4.6c-11.4,0-17.9-8.7-17.9-18.3c0-10.2,8.3-17.7,18-17.7
		C357.8,131,360.9,131.9,363.6,133.5L363.6,133.5z"/>
	<path class="st1" d="M401.7,133.5c0.5,0.3,0.9,0.7,1.1,1.4l1.8,5.4c0,0,0.6,2-1.9,2c-2.4,0-3.3-2.4-6.6-4.3l-1.4-0.7
		c-2.1-1-4.2-1.5-6-1.5c-4.8,0-8.4,4.8-8.4,10.1c0,9.7,8.8,15.3,15.1,15.3c3.1,0,5.8-1.7,7.1-4.7c0.4-1.1,1.9-0.3,2.1,1.4v4.1
		c0,0.2-0.1,0.3-0.2,0.4c-3.2,2.9-7.5,4.6-12.1,4.6c-11.4,0-17.9-8.7-17.9-18.3c0-10.2,8.2-17.7,18-17.7
		C395.9,131,399.1,131.9,401.7,133.5L401.7,133.5z"/>
	<path class="st1" d="M26.6,125.3c0.3,0.4,0.6,0.8,0.6,1.4v5.6c0,0,0,1.8-2,1.2c-2-0.6-2.2-2.7-4.4-5.1l-0.9-0.9
		c-1.5-1.3-3.1-2.2-4.6-2.7c-1-0.3-2.1-0.3-3-0.2c-3.1,0.6-5.3,3.2-4.7,6.2c1.9,10.3,22.1,8.9,22.1,23.5c0,8.2-7.9,12.7-14.7,12.7
		c-4,0-14.8-2.3-14.8-7.3c0-0.1,1.6-6.2,3.3-7.5c2.3-1.7,4.5,0.6,4.5,1.4c0,0.7-0.9,3.1-0.9,3.9c0,5.2,7.1,5.1,8.1,5.1
		c3.4,0,7.9-2.2,7.9-5.6c0-10-20.9-8.9-21.2-25.1c-0.1-6.5,3.8-9.6,9-10.7c1.5-0.3,3.1-0.5,4.7-0.5l0.5,0c1.2,0.1,2.5,0.2,3.6,0.5
		C22.4,122,24.8,123.4,26.6,125.3L26.6,125.3z"/>
	<path class="st1" d="M205.2,131h4c0.8,0,1.6,0.5,1.9,1.3c0.3,1-0.1,1.7-1.7,2.6c-0.2,0.1-0.3,0.2-0.5,0.3c-0.9,0.6-1.7,1.4-1.7,2.9
		v7.2l0,19.5c0,2.5-4,2.7-5.2,1.5l-0.3-0.3l-18.8-22c-0.6-0.7-1.1,0.2-1.1,0.7v15.5c0.1,1.8,1.3,2.5,2.3,3c1.4,0.8,1.7,1.5,1.5,2.5
		c-0.2,0.8-1,1.3-1.9,1.3h-4.3h-0.8h-4.3c-0.8,0-1.6-0.5-1.9-1.3c-0.3-1,0.1-1.7,1.7-2.6c1-0.5,1.9-1.2,2.1-2.7v-22.5
		c-0.1-1.4-0.9-2.1-1.7-2.7c-0.1-0.1-0.3-0.2-0.4-0.2c-1.6-0.9-2-1.6-1.7-2.6c0.2-0.8,1-1.3,1.9-1.3h2h1.8h0.2h0.3h1.1l0.8,0h4.1
		c0,0,1.4,0,1.4,1.6c0,1.5-1.7,1.3-0.3,3.1l1.3,1.6l13.7,16.1c0.6,0.6,1.1-0.3,1.1-0.8v-14.7c-0.1-1.4-0.8-2.1-1.7-2.6
		c-0.1-0.1-0.3-0.2-0.4-0.3c-1.6-0.9-2-1.6-1.7-2.6c0.2-0.8,1-1.3,1.9-1.3h4h0.3H205.2z"/>
	<path class="st1" d="M421.2,131h4c0.8,0,1.6,0.5,1.9,1.3c0.3,1-0.1,1.7-1.7,2.6c-0.2,0.1-0.4,0.3-0.6,0.4c-0.8,0.6-1.5,1.3-1.5,2.8
		v0.2l0,21.9c0.1,1.4,0.9,2.1,1.7,2.7c0.1,0.1,0.3,0.2,0.4,0.2c1.6,0.9,2,1.6,1.7,2.6c-0.2,0.8-1,1.3-1.9,1.3h-4.3l-0.8,0l-1.1,0
		h-4.3c-0.8,0-1.6-0.5-1.9-1.3c-0.3-1,0.1-1.7,1.7-2.6c1.1-0.6,2.1-1.4,2.1-3.2v-0.2c0-21.9,0-21.9,0-21.9c-0.1-1.4-0.9-2.2-1.8-2.7
		l-0.4-0.2c-1.6-0.9-2-1.6-1.7-2.6c0.2-0.8,1-1.3,1.9-1.3h4.3h0.8H421.2z"/>
	<path class="st1" d="M143.8,135.1c-0.1-0.1-0.1-0.1-0.2-0.2c-0.1-0.1-0.3-0.2-0.4-0.2c-1.3-0.8-1.6-1.5-1.4-2.4
		c0.2-0.8,1-1.3,1.9-1.3h3.7h0.6h3.9h3.3c0.8,0,1.6,0.5,1.9,1.3c0.2,0.9,0,1.6-1.4,2.4c-0.1,0.1-0.3,0.1-0.4,0.2
		c-0.1,0-0.1,0.1-0.2,0.2c-0.5,0.4-0.7,1-0.4,2.2l0.4,1.4l6.6,21.2c1.2,4.3,4.2,3.1,4.2,5.1c0,2-1.8,2-1.8,2h-0.7h-1.5l-2.7,0h-4.3
		c-0.8,0-1.6-0.5-1.9-1.3c-0.3-0.9,0.1-1.6,1.5-2.5c0.2-0.1,0.4-0.2,0.5-0.3c0.1-0.1,0.2-0.1,0.2-0.2c0.3-0.3,0.4-0.7,0.2-1.3
		l-2.5-8.5c-0.1-0.4-0.5-0.6-0.9-0.6h-7c-0.4,0-0.8,0.3-0.9,0.6l-2.4,8.5c-0.2,0.8,0,1.2,0.4,1.5c0.1,0.1,0.2,0.1,0.3,0.2
		c1.6,0.9,2,1.6,1.7,2.6c-0.2,0.8-1,1.3-1.9,1.3h-3h-1.3h-3c-0.8,0-1.6-0.5-1.9-1.3c-0.2-0.9,0-1.5,1.2-2.3c0.2-0.1,0.4-0.2,0.6-0.4
		c0.2-0.1,0.4-0.3,0.6-0.5c0.5-0.5,1.1-1.3,1.4-2.6l5.6-17.9l1.4-4.7C144.5,136.1,144.3,135.5,143.8,135.1 M151.2,146.8
		c0-0.1,0-0.1,0-0.2l-2.3-8.7c0-0.1-0.1-0.2-0.2-0.2c-0.1,0-0.2,0.1-0.2,0.1l-2.4,8.7c0,0.1,0,0.1,0,0.2c0,0.3,0.3,0.6,0.6,0.6h4
		C150.9,147.4,151.2,147.1,151.2,146.8"/>
	<path class="st1" d="M230.7,135.8c-4.8,0-8.4,4.8-8.4,10.1c0,9.7,8.8,15.3,15.1,15.3c4.5,0,8.1-3.5,8.1-9.6
		C245.6,142.1,236.7,135.8,230.7,135.8 M234.5,131c10.2,0,18,8.2,18,17.6c0,10.6-8.3,18.5-18.2,18.5c-11.4,0-17.9-8.7-17.9-18.3
		C216.4,138.6,224.7,131,234.5,131"/>
</g>
</svg>
