<?xml version="1.0" encoding="utf-8"?>
<!-- Generator: Adobe Illustrator 21.1.0, SVG Export Plug-In . SVG Version: 6.00 Build 0)  -->
<svg version="1.1" id="Layer_1" xmlns="http://www.w3.org/2000/svg" xmlns:xlink="http://www.w3.org/1999/xlink" x="0px" y="0px"
	 viewBox="0 0 106.4 69.1" style="enable-background:new 0 0 106.4 69.1;" xml:space="preserve">
<style type="text/css">
	.st0{fill:none;stroke:#E3E3E2;stroke-width:0.32;stroke-miterlimit:10;}
	.st1{clip-path:url(#SVGID_3_);fill:url(#SVGID_4_);}
	.st2{clip-path:url(#SVGID_7_);fill:url(#SVGID_8_);}
	.st3{clip-path:url(#SVGID_11_);fill:url(#SVGID_12_);}
	.st4{clip-path:url(#SVGID_15_);fill:url(#SVGID_16_);}
	.st5{clip-path:url(#SVGID_19_);fill:url(#SVGID_20_);}
	.st6{clip-path:url(#SVGID_23_);fill:url(#SVGID_24_);}
</style>
<path class="st0" d="M28.1,44.3c-0.2,0.2-0.3,0.4-0.5,0.6c-0.2,0.2-0.4,0.4-0.6,0.5c0.2,0.2,0.4,0.3,0.6,0.5
	c0.2,0.2,0.4,0.4,0.5,0.6c0.2-0.2,0.3-0.4,0.5-0.6c0.2-0.2,0.4-0.4,0.6-0.5c-0.2-0.2-0.4-0.3-0.6-0.5C28.4,44.7,28.2,44.5,28.1,44.3
	z"/>
<g>
	<defs>
		<polygon id="SVGID_1_" points="46.2,26.8 46.2,26.8 46.2,57.7 59.8,57.7 59.8,26.8 59.8,26.8 		"/>
	</defs>
	<linearGradient id="SVGID_2_" gradientUnits="userSpaceOnUse" x1="25.9939" y1="42.2115" x2="61.2296" y2="42.2115">
		<stop  offset="0" style="stop-color:#511010"/>
		<stop  offset="0.14" style="stop-color:#8F1913"/>
		<stop  offset="0.54" style="stop-color:#E52521"/>
		<stop  offset="0.7" style="stop-color:#8F1913"/>
		<stop  offset="1" style="stop-color:#961914"/>
	</linearGradient>
	<use xlink:href="#SVGID_1_"  style="overflow:visible;fill:url(#SVGID_2_);"/>
	<clipPath id="SVGID_3_">
		<use xlink:href="#SVGID_1_"  style="overflow:visible;"/>
	</clipPath>
	
		<linearGradient id="SVGID_4_" gradientUnits="userSpaceOnUse" x1="-130.463" y1="752.65" x2="-129.463" y2="752.65" gradientTransform="matrix(51.2 68 68 -51.2 -44486.7305 47397.25)">
		<stop  offset="0" style="stop-color:#511010"/>
		<stop  offset="0.14" style="stop-color:#8F1913"/>
		<stop  offset="0.54" style="stop-color:#E52521"/>
		<stop  offset="0.7" style="stop-color:#8F1913"/>
		<stop  offset="1" style="stop-color:#961914"/>
	</linearGradient>
	<polygon class="st1" points="54.9,20.2 74.7,46.5 51.1,64.2 31.4,37.9 	"/>
</g>
<g>
	<defs>
		<path id="SVGID_5_" d="M62.5,12.6c-5.4,6-8.7,7.6-8.7,7.6l1.9,10.3c8.1,0.2,21.4-11.3,21.4-11.3c8.2-5.5,7-7.4,7-7.4
			C82,7.6,75.6,0,75.6,0c0,0,0,0,0,0C74.4,0,65.7,9,62.5,12.6"/>
	</defs>
	<linearGradient id="SVGID_6_" gradientUnits="userSpaceOnUse" x1="54.0238" y1="15.2858" x2="80.5886" y2="15.2858">
		<stop  offset="0" style="stop-color:#511010"/>
		<stop  offset="0.14" style="stop-color:#8F1913"/>
		<stop  offset="0.54" style="stop-color:#E52521"/>
		<stop  offset="0.7" style="stop-color:#8F1913"/>
		<stop  offset="1" style="stop-color:#961914"/>
	</linearGradient>
	<use xlink:href="#SVGID_5_"  style="overflow:visible;fill:url(#SVGID_6_);"/>
	<clipPath id="SVGID_7_">
		<use xlink:href="#SVGID_5_"  style="overflow:visible;"/>
	</clipPath>
	
		<linearGradient id="SVGID_8_" gradientUnits="userSpaceOnUse" x1="-127.8007" y1="747.0032" x2="-126.8007" y2="747.0032" gradientTransform="matrix(-29.6171 24.4184 24.4184 29.6171 -21939.5371 -19001.7441)">
		<stop  offset="0" style="stop-color:#511010"/>
		<stop  offset="0.14" style="stop-color:#8F1913"/>
		<stop  offset="0.54" style="stop-color:#E52521"/>
		<stop  offset="0.7" style="stop-color:#8F1913"/>
		<stop  offset="1" style="stop-color:#961914"/>
	</linearGradient>
	<polygon class="st2" points="100.4,18.3 66.5,46.3 38.6,12.5 72.5,-15.5 	"/>
</g>
<g>
	<defs>
		<path id="SVGID_9_" d="M29,1.6c-1.3,1.1-3.7,3.4-5.1,4.8c-5.8,5.7-5.1,6.8-5.1,6.8c0.5,0.2,4.3,3.5,4.3,3.5
			c7.9,6.8,8.9,6.9,10.9,6.9c6.1,0.2,8.1,1.8,8.1,1.8l5.6-1.8C46.3,13.9,34.2,4.9,34.2,4.9c-1.7-1.4-4.2-3.4-5-3.4
			C29.1,1.5,29,1.5,29,1.6"/>
	</defs>
	<linearGradient id="SVGID_10_" gradientUnits="userSpaceOnUse" x1="25.5379" y1="13.487" x2="52.3569" y2="13.487">
		<stop  offset="0" style="stop-color:#511010"/>
		<stop  offset="0.14" style="stop-color:#8F1913"/>
		<stop  offset="0.54" style="stop-color:#E52521"/>
		<stop  offset="0.7" style="stop-color:#8F1913"/>
		<stop  offset="1" style="stop-color:#961914"/>
	</linearGradient>
	<use xlink:href="#SVGID_9_"  style="overflow:visible;fill:url(#SVGID_10_);"/>
	<clipPath id="SVGID_11_">
		<use xlink:href="#SVGID_9_"  style="overflow:visible;"/>
	</clipPath>
	
		<linearGradient id="SVGID_12_" gradientUnits="userSpaceOnUse" x1="-121.6039" y1="751.8788" x2="-120.6039" y2="751.8788" gradientTransform="matrix(-26.2009 -23.4964 -23.4964 26.2009 14520.5898 -22537.0059)">
		<stop  offset="0" style="stop-color:#511010"/>
		<stop  offset="0.14" style="stop-color:#8F1913"/>
		<stop  offset="0.54" style="stop-color:#E52521"/>
		<stop  offset="0.7" style="stop-color:#8F1913"/>
		<stop  offset="1" style="stop-color:#961914"/>
	</linearGradient>
	<polygon class="st3" points="34.5,40.1 6.2,14.8 31.3,-13.2 59.5,12.2 	"/>
</g>
<g>
	<defs>
		<path id="SVGID_13_" d="M30,31.4L0.3,53.3L0,69.1c0,0,32.9-23.1,45.5-32.4c0,0,3.9-2.4,4.3-3.2c0,0,0.5-1.4,0.4-3.4L48.6,22
			C48.6,22,43.1,22.5,30,31.4"/>
	</defs>
	<linearGradient id="SVGID_14_" gradientUnits="userSpaceOnUse" x1="3.9802" y1="45.564" x2="55.6967" y2="45.564">
		<stop  offset="0" style="stop-color:#511010"/>
		<stop  offset="0.14" style="stop-color:#8F1913"/>
		<stop  offset="0.54" style="stop-color:#E52521"/>
		<stop  offset="0.7" style="stop-color:#8F1913"/>
		<stop  offset="1" style="stop-color:#961914"/>
	</linearGradient>
	<use xlink:href="#SVGID_13_"  style="overflow:visible;fill:url(#SVGID_14_);"/>
	<clipPath id="SVGID_15_">
		<use xlink:href="#SVGID_13_"  style="overflow:visible;"/>
	</clipPath>
	
		<linearGradient id="SVGID_16_" gradientUnits="userSpaceOnUse" x1="-128.2638" y1="755.9228" x2="-127.2638" y2="755.9228" gradientTransform="matrix(58.8013 -37.728 -37.728 -58.8013 36062.6797 39671.0547)">
		<stop  offset="0" style="stop-color:#511010"/>
		<stop  offset="0.14" style="stop-color:#8F1913"/>
		<stop  offset="0.54" style="stop-color:#E52521"/>
		<stop  offset="0.7" style="stop-color:#8F1913"/>
		<stop  offset="1" style="stop-color:#961914"/>
	</linearGradient>
	<polygon class="st4" points="-21.4,35.7 35.6,-0.9 71.7,55.4 14.7,92 	"/>
</g>
<g>
	<defs>
		<path id="SVGID_17_" d="M55.2,29.2c0,0,0.6,5.3,11.3,10.2c10.9,4.9,39.2,19,39.8,20.3v0c0-0.1-1.1-9.7-3.7-17
			c0,0-25.9-14.3-37.5-17.8c0,0-0.5,0-1.2,0C61.2,25,54.7,25.4,55.2,29.2"/>
	</defs>
	<linearGradient id="SVGID_18_" gradientUnits="userSpaceOnUse" x1="51.8562" y1="42.392" x2="99.8961" y2="42.392">
		<stop  offset="0" style="stop-color:#511010"/>
		<stop  offset="0.14" style="stop-color:#8F1913"/>
		<stop  offset="0.54" style="stop-color:#E52521"/>
		<stop  offset="0.7" style="stop-color:#8F1913"/>
		<stop  offset="1" style="stop-color:#961914"/>
	</linearGradient>
	<use xlink:href="#SVGID_17_"  style="overflow:visible;fill:url(#SVGID_18_);"/>
	<clipPath id="SVGID_19_">
		<use xlink:href="#SVGID_17_"  style="overflow:visible;"/>
	</clipPath>
	
		<linearGradient id="SVGID_20_" gradientUnits="userSpaceOnUse" x1="-124.5899" y1="750.4169" x2="-123.5899" y2="750.4169" gradientTransform="matrix(-53.3075 -12.9851 -12.9851 53.3075 3215.3547 -41570.4336)">
		<stop  offset="0" style="stop-color:#511010"/>
		<stop  offset="0.14" style="stop-color:#8F1913"/>
		<stop  offset="0.54" style="stop-color:#E52521"/>
		<stop  offset="0.7" style="stop-color:#8F1913"/>
		<stop  offset="1" style="stop-color:#961914"/>
	</linearGradient>
	<polygon class="st5" points="103.5,71.7 46.7,57.8 57.6,13.1 114.4,27 	"/>
</g>
<g>
	<defs>
		<path id="SVGID_21_" d="M54.5,18.9c-0.8,0.3-1.8,0.3-2.3,0.4C50,19.4,46,19,46,19c0.9,0.7,1.8,6.1,2.3,8.1
			c1.5,5.8,1.4,6.9,3.3,6.8c1,0,2.6-1.4,3.4-1.9c1.9-1.2,1.9-2.7,1.7-3.7c-0.2-1.6-1.2-8-1.2-8c-0.1-1.2-0.4-1.6-0.7-1.6
			C54.8,18.8,54.7,18.8,54.5,18.9"/>
	</defs>
	<linearGradient id="SVGID_22_" gradientUnits="userSpaceOnUse" x1="42.3293" y1="26.3302" x2="56.9979" y2="26.3302">
		<stop  offset="0" style="stop-color:#EF7D80"/>
		<stop  offset="8.000000e-02" style="stop-color:#E52521"/>
		<stop  offset="0.2" style="stop-color:#FFFFFF"/>
		<stop  offset="0.36" style="stop-color:#E52521"/>
		<stop  offset="0.52" style="stop-color:#BF1818"/>
		<stop  offset="0.66" style="stop-color:#E52521"/>
		<stop  offset="0.7576" style="stop-color:#EA5555"/>
		<stop  offset="0.88" style="stop-color:#E52521"/>
		<stop  offset="1" style="stop-color:#F7BABC"/>
	</linearGradient>
	<use xlink:href="#SVGID_21_"  style="overflow:visible;fill:url(#SVGID_22_);"/>
	<clipPath id="SVGID_23_">
		<use xlink:href="#SVGID_21_"  style="overflow:visible;"/>
	</clipPath>
	
		<linearGradient id="SVGID_24_" gradientUnits="userSpaceOnUse" x1="-136.3209" y1="748.0034" x2="-135.3209" y2="748.0034" gradientTransform="matrix(4.2452 22.484 22.484 -4.2452 -16190.5322 6252.856)">
		<stop  offset="0" style="stop-color:#EF7D80"/>
		<stop  offset="8.000000e-02" style="stop-color:#E52521"/>
		<stop  offset="0.2" style="stop-color:#FFFFFF"/>
		<stop  offset="0.36" style="stop-color:#E52521"/>
		<stop  offset="0.52" style="stop-color:#BF1818"/>
		<stop  offset="0.66" style="stop-color:#E52521"/>
		<stop  offset="0.7576" style="stop-color:#EA5555"/>
		<stop  offset="0.88" style="stop-color:#E52521"/>
		<stop  offset="1" style="stop-color:#F7BABC"/>
	</linearGradient>
	<polygon class="st6" points="56.6,16.8 59.8,33.4 46.4,36 43.3,19.3 	"/>
</g>
</svg>
